**ABCDEFGHIJKLMNOPQRSTUVWXYZabcdefghijklmnopqrstuvwxyz**************************
**PARASOLID !"#$%&'()*+,-./:;<=>?@[\]^_`{|}~0123456789**************************
**PART1;
MC=Unknown;
MC_MODEL=unknown;
MC_ID=LENOVOHN;
OS=windows_64;
OS_RELEASE=Build 9200 Service Pack 0.0;
FRU=PRO/INTERFACE BY PTC, 2024253;
APPL=PRO/ENGINEER BY PTC, 2024253;
SITE=;
USER=Serhii Alieksieiev;
FORMAT=text;
GUISE=transmit;
KEY=CASSETTE_FLAT_SIMPLE_1;
FILE=cassette_flat_simple_3.x_t;
DATE=01-08-2025;
**PART2;
SCH=SCH_1000149_10004;
USFLD_SIZE=0;
**PART3;
**END_OF_HEADER*****************************************************************
T51 : TRANSMIT FILE created by modeller version 100014917 SCH_1000149_100040 12
 1 168 5 7 0 0 0 0 1e3 1e-8 0 0 0 1 0 1 1 49 244 48 99 52 240 100 79 13 2 SDL/TY
SA_NAME80 1 3 0 2 8017 0 0 0 0 0 0 0 0 TTTTTTTTTTTTT3 84 22 4 CASSETTE_FLAT_SIMP
LE_181 1 5 1 3 1 12 0 0 0 4 74 20 6 2 0 5 12 0 0 0 0 0 0 0 0 0 0 0 0 0 0 0 0 0
 0 70 7 0 1 0 0 4 2 20 4 6 6 1 T79 16 8 SDL/TYSA_DENSITY80 2 9 0 8 8004 0 0 0 0
 3 5 0 0 FFTFFFFFFFFFF2 3 83 1 10 7.69995976836994e3 84 7 11 KG/CU M81 2 12 2 9
 1 0 5 0 0 10 11 30 13 3 0 104 0 14 0 +0e0 3.70670380578211e-2
 2.74029713519388e-3 0e0 -9.97278465721571e-1 -7.37269408563034e-2 30 14 4 0
 106 13 15 0 +0e0 3.07849580440498e-2 2.27587465185592e-3 0e0
 -2.45782451160184e-1 9.69325016030068e-1 30 15 5 0 108 14 16 0 +0e0
 2.81500029305784e-2 1.26676983786833e-2 0e0 9.11919116228616e-1
 4.10369986057484e-1 31 16 6 0 112 15 17 0 +0e0 3.40093361158139e-2
 1.39737268356134e-2 1e0 0e0 0e0 0e0 5.82374661172307e-1 -8.12920509044052e-1
 4e-4 30 17 7 0 114 16 18 0 +0e0 3.42422859802828e-2 1.36485586319957e-2 0e0
 -8.12920509044018e-1 -5.82374661172354e-1 31 18 8 0 124 17 19 0 +0e0
 3.65586826368152e-2 3.91952912674075e-3 1e0 0e0 0e0 0e0 9.94301870271165e-1
 1.06601082430070e-1 4e-4 30 19 9 0 132 18 20 0 +-1.8e-3 3.70670380578211e-2
 2.74029713519389e-3 1e0 0e0 0e0 31 20 10 0 126 19 21 0 +0e0 0e0 0e0 1e0 0e0
 0e0 0e0 9.97278465721571e-1 7.37269408563046e-2 3.71681925679621e-2 30 21 11 0
 143 20 22 0 +-1.8e-3 3.69564033849237e-2 3.96216955971278e-3 1e0 0e0 0e0 31 22
 12 0 145 21 23 0 +-1.8e-3 0e0 0e0 -1e0 0e0 0e0 0e0 9.94301870271169e-1
 1.06601082430036e-1 3.71681925679621e-2 30 23 13 0 159 22 24 0 +0e0
 3.51769544376352e-2 4.34141231207899e-3 -1e0 0e0 0e0 30 24 14 0 161 23 25 0 +
-1.8e-3 3.51769544376352e-2 4.34141231207899e-3 0e0 9.99875181120030e-1
 -1.57994360718096e-2 30 25 15 0 151 24 26 0 +-1.8e-3 3.65650024112439e-2
 4.31947919918876e-3 1e0 0e0 0e0 30 26 16 0 122 25 27 0 +0e0
 3.65650024112439e-2 4.31947919918876e-3 0e0 -9.99875181120030e-1
 1.57994360718096e-2 31 27 17 0 120 26 28 0 +0e0 3.52362023229045e-2
 8.09094424127910e-3 -1e0 0e0 0e0 0e0 -1.57994360718098e-2 -9.99875181120030e-1
 3.75e-3 31 28 18 0 172 27 29 0 +-1.8e-3 3.52362023229045e-2
 8.09094424127910e-3 1e0 0e0 0e0 0e0 -9.74635981501944e-1 -2.23796120524332e-1
 3.75e-3 30 29 19 0 177 28 30 0 +0e0 3.13830528343654e-2 8.06665255182464e-3
 -1e0 0e0 0e0 31 30 20 0 179 29 31 0 +-1.8e-3 0e0 0e0 -1e0 0e0 0e0 0e0
 9.68517307933254e-1 2.48946227594882e-1 3.24031925679621e-2 30 31 21 0 170 30
 32 0 +0e0 3.15813173922722e-2 7.25170878931286e-3 -1e0 0e0 0e0 31 32 22 0 118
 31 33 0 +0e0 0e0 0e0 1e0 0e0 0e0 0e0 9.74635981501944e-1 2.23796120524334e-1
 3.24031925679621e-2 31 33 23 0 116 32 34 0 +0e0 3.57413807200651e-2
 9.18691057600159e-3 -1e0 0e0 0e0 0e0 -9.68517307933257e-1 -2.48946227594871e-1
 4.5e-3 31 34 24 0 190 33 35 0 +-1.8e-3 3.57413807200651e-2 9.18691057600159e-3
 1e0 0e0 0e0 0e0 -5.82374661172357e-1 8.12920509044016e-1 4.5e-3 30 35 25 0 188
 34 36 0 +0e0 3.31206947447895e-2 1.28450528666997e-2 -1e0 0e0 0e0 30 36 26 0
 197 35 37 0 +0e0 3.42422859802828e-2 1.36485586319957e-2 -1e0 0e0 0e0 30 37 27
 0 134 36 38 0 +-1.8e-3 3.70670380578211e-2 2.74029713519388e-3 0e0
 -9.97278465721571e-1 -7.37269408563035e-2 31 38 28 0 153 37 39 0 +-1.8e-3
 3.65586826368152e-2 3.91952912674075e-3 -1e0 0e0 0e0 0e0 1.57994360718179e-2
 9.99875181120030e-1 4e-4 30 39 29 0 199 38 40 0 +-1.8e-3 3.42422859802828e-2
 1.36485586319957e-2 0e0 -8.12920509044018e-1 -5.82374661172354e-1 31 40 30 0
 204 39 41 0 +-1.8e-3 3.40093361158139e-2 1.39737268356134e-2 -1e0 0e0 0e0 0e0
 9.24966220543781e-1 3.80049326868176e-1 4e-4 30 41 31 0 224 40 42 0 +-1.8e-3
 2.81500029305784e-2 1.26676983786833e-2 0e0 9.11919116228616e-1
 4.10369986057484e-1 30 42 32 0 226 41 43 0 +-1.8e-3 3.07849580440498e-2
 2.27587465185592e-3 0e0 -2.45782451160184e-1 9.69325016030068e-1 30 43 33 0
 231 42 44 0 +-1.8e-3 3.38943853183910e-2 1.52527106658965e-2 1e0 0e0 0e0 31 44
 34 0 222 43 45 0 +-1.8e-3 0e0 0e0 -1e0 0e0 0e0 0e0 9.11919116228616e-1
 4.10369986057483e-1 3.71681925679621e-2 30 45 35 0 208 44 46 0 +0e0
 3.43793226040314e-2 1.41257465663606e-2 -1e0 0e0 0e0 31 46 36 0 110 45 47 0 +
0e0 0e0 0e0 1e0 0e0 0e0 0e0 9.24966220543782e-1 3.80049326868173e-1
 3.71681925679621e-2 30 47 37 0 240 46 48 0 +-1.8e-3 2.81500029305784e-2
 1.26676983786833e-2 1e0 0e0 0e0 30 48 38 0 136 47 0 0 +-1.8e-3
 3.07849580440498e-2 2.27587465185591e-3 1e0 0e0 0e0 13 49 39 0 1 0 245 0 0 50
 0 19 50 168 0 1 0 52 49 S13 51 40 0 0 0 0 0 0 52 245 19 52 41 0 1 50 0 51 V29
 53 42 0 54 0 55 0e0 3.69564033849236e-2 3.96216955971278e-3 18 54 43 0 150 56
 0 53 ?1 29 55 44 0 56 53 57 0e0 3.65650024112439e-2 4.31947919918876e-3 18 56
 45 0 164 58 54 55 ?1 29 57 46 0 58 55 59 -1.8e-3 3.65650024112439e-2
 4.31947919918876e-3 18 58 47 0 216 60 56 57 ?1 29 59 48 0 60 57 61 -1.8e-3
 3.69564033849236e-2 3.96216955971278e-3 18 60 49 0 215 62 58 59 ?1 29 61 50 0
 62 59 63 0e0 3.51769544376352e-2 4.34141231207899e-3 18 62 51 0 169 64 60 61 ?
1 29 63 52 0 64 61 65 -1.8e-3 3.51769544376352e-2 4.34141231207899e-3 18 64 53
 0 217 66 62 63 ?1 29 65 54 0 66 63 67 0e0 3.15813173922722e-2
 7.25170878931286e-3 18 66 55 0 182 68 64 65 ?1 29 67 56 0 68 65 69 -1.8e-3
 3.15813173922722e-2 7.25170878931286e-3 18 68 57 0 218 70 66 67 ?1 29 69 58 0
 70 67 71 -1.8e-3 3.43793226040314e-2 1.41257465663606e-2 18 70 59 0 234 72 68
 69 ?1 29 71 60 0 72 69 73 -1.8e-3 3.42422859802828e-2 1.36485586319957e-2 18
 72 61 0 221 74 70 71 ?1 29 73 62 0 74 71 75 0e0 3.42422859802828e-2
 1.36485586319957e-2 18 74 63 0 207 76 72 73 ?1 29 75 64 0 76 73 77 0e0
 3.43793226040314e-2 1.41257465663606e-2 18 76 65 0 235 78 74 75 ?1 29 77 66 0
 78 75 79 0e0 3.13830528343655e-2 8.06665255182465e-3 18 78 67 0 187 80 76 77 ?
1 29 79 68 0 80 77 81 -1.8e-3 3.13830528343654e-2 8.06665255182465e-3 18 80 69
 0 219 82 78 79 ?1 29 81 70 0 82 79 83 0e0 3.31206947447895e-2
 1.28450528666997e-2 18 82 71 0 196 84 80 81 ?1 29 83 72 0 84 81 85 -1.8e-3
 3.31206947447895e-2 1.28450528666997e-2 18 84 73 0 220 86 82 83 ?1 29 85 74 0
 86 83 87 0e0 3.70670380578211e-2 2.74029713519388e-3 18 86 75 0 142 88 84 85 ?
1 29 87 76 0 88 85 89 0e0 3.07849580440498e-2 2.27587465185592e-3 18 88 77 0
 248 90 86 87 ?1 29 89 78 0 90 87 91 0e0 2.81500029305784e-2
 1.26676983786833e-2 18 90 79 0 247 92 88 89 ?1 29 91 80 0 92 89 93 0e0
 3.38943853183910e-2 1.52527106658964e-2 18 92 81 0 239 94 90 91 ?1 29 93 82 0
 94 91 95 -1.8e-3 3.70670380578211e-2 2.74029713519388e-3 18 94 83 0 214 96 92
 93 ?1 29 95 84 0 96 93 97 -1.8e-3 3.38943853183910e-2 1.52527106658964e-2 18
 96 85 0 243 98 94 95 ?1 29 97 86 0 98 95 99 -1.8e-3 3.07849580440498e-2
 2.27587465185592e-3 18 98 87 0 249 100 96 97 ?1 29 99 88 0 100 97 0 -1.8e-3
 2.81500029305784e-2 1.26676983786833e-2 18 100 89 0 250 0 98 99 ?1 50 101 90 0
 102 0 128 0 +0e0 0e0 0e0 1e0 0e0 0e0 0e0 1e0 0e0 14 102 91 0 ?0 129 103 49 101
 +0 0 0 129 51 15 103 92 0 127 102 0 16 104 93 0 ?131 106 0 13 0 0 1 17 105 103
 127 107 86 131 104 0 0 -16 106 94 0 ?247 108 104 14 0 0 1 17 107 103 105 109
 88 247 106 0 0 -16 108 95 0 ?239 110 106 15 0 0 1 17 109 103 107 111 90 239
 108 0 0 -16 110 96 0 ?111 112 108 46 0 0 1 17 111 103 109 113 92 235 110 0 0 +
16 112 97 0 ?113 114 110 16 0 0 1 17 113 103 111 115 76 207 112 0 0 +16 114 98
 0 ?196 116 112 17 0 0 1 17 115 103 113 117 74 196 114 0 0 -16 116 99 0 ?117
 118 114 33 0 0 1 17 117 103 115 119 82 187 116 0 0 +16 118 100 0 ?119 120 116
 32 0 0 1 17 119 103 117 121 78 182 118 0 0 +16 120 101 0 ?121 122 118 27 0 0 1
 17 121 103 119 123 66 169 120 0 0 +16 122 102 0 ?123 124 120 26 0 0 1 17 123
 103 121 125 62 164 122 0 0 +16 124 103 0 ?125 126 122 18 0 0 1 17 125 103 123
 127 56 150 124 0 0 +16 126 104 0 ?127 132 124 20 0 0 1 17 127 103 125 105 54
 142 126 0 0 +50 128 105 0 129 101 138 0 +-1.2e-2 3.70670380578211e-2
 2.74029713519388e-3 0e0 -7.37269408563033e-2 9.97278465721571e-1 0e0
 -9.97278465721571e-1 -7.37269408563033e-2 14 129 106 0 ?102 139 130 49 128 -0
 0 102 139 51 15 130 107 0 137 129 0 17 131 130 137 133 88 105 104 0 107 +16
 132 108 0 ?133 134 126 19 0 0 1 17 133 130 131 135 86 141 132 0 105 +16 134
 109 0 ?213 136 132 37 0 0 1 17 135 130 133 137 94 213 134 0 0 -16 136 110 0 ?
248 143 134 48 0 0 1 17 137 130 135 131 98 248 136 0 0 -51 138 111 0 139 128
 147 0 +0e0 0e0 0e0 1e0 0e0 0e0 3.71681925679621e-2 0e0 1e0 0e0 14 139 112 0 ?
129 148 140 49 138 +0 0 129 148 51 15 140 113 0 146 139 0 17 141 140 146 142 94
 133 132 0 135 -17 142 140 141 144 86 127 126 0 133 -16 143 114 0 ?144 145 136
 21 0 0 1 17 144 140 142 146 54 155 143 0 127 +16 145 115 0 ?214 151 143 22 0 0
 1 17 146 140 144 141 60 214 145 0 0 -51 147 116 0 148 138 156 0 +
-4.14648000000001e-3 3.65586826368152e-2 3.91952912674075e-3 1e0 0e0 0e0 4e-4
 0e0 9.94301870271166e-1 1.06601082430063e-1 14 148 117 0 ?139 157 149 49 147 +
0 0 139 157 51 15 149 118 0 155 148 0 17 150 149 155 152 54 125 124 0 144 -16
 151 119 0 ?152 153 145 25 0 0 1 17 152 149 150 154 56 163 151 0 125 +16 153
 120 0 ?215 159 151 38 0 0 1 17 154 149 152 155 58 215 153 0 0 -17 155 149 154
 150 60 144 143 0 146 -50 156 121 0 157 147 165 0 +0e0 3.21044408006060e-2
 4.38996235482895e-3 0e0 -1.57994360718095e-2 -9.99875181120030e-1 0e0
 9.99875181120030e-1 -1.57994360718095e-2 14 157 122 0 ?148 166 158 49 156 -0 0
 148 166 51 15 158 123 0 164 157 0 16 159 124 0 ?168 161 153 23 0 0 1 17 160
 158 164 162 62 168 159 0 123 -16 161 125 0 ?216 170 159 24 0 0 1 17 162 158
 160 163 64 216 161 0 0 -17 163 158 162 164 58 152 151 0 154 -17 164 158 163
 160 56 123 122 0 152 -51 165 126 0 166 156 174 0 +4.69116e-3
 3.52362023229045e-2 8.09094424127910e-3 -1e0 0e0 0e0 3.75e-3 0e0
 -1.57994360718097e-2 -9.99875181120030e-1 14 166 127 0 ?157 175 167 49 165 -0
 0 157 175 51 15 167 128 0 173 166 0 17 168 167 173 169 64 160 159 0 162 +17
 169 167 168 171 62 121 120 0 160 -16 170 129 0 ?181 172 161 31 0 0 1 17 171
 167 169 173 66 181 170 0 121 -16 172 130 0 ?217 177 170 28 0 0 1 17 173 167
 171 168 68 217 172 0 0 -51 174 131 0 175 165 183 0 +0e0 0e0 0e0 1e0 0e0 0e0
 3.24031925679621e-2 0e0 -5e-1 -8.66025403784438e-1 14 175 132 0 ?166 184 176
 49 174 +0 0 166 184 51 15 176 133 0 182 175 0 16 177 134 0 ?186 179 172 29 0 0
 1 17 178 176 182 180 78 186 177 0 119 -16 179 135 0 ?218 188 177 30 0 0 1 17
 180 176 178 181 80 218 179 0 0 -17 181 176 180 182 68 171 170 0 173 +17 182
 176 181 178 66 119 118 0 171 -51 183 136 0 184 174 192 0 +5.59296e-3
 3.57413807200651e-2 9.18691057600159e-3 -1e0 0e0 0e0 4.5e-3 0e0
 -9.68517307933254e-1 -2.48946227594881e-1 14 184 137 0 ?175 193 185 49 183 -0
 0 175 193 51 15 185 138 0 191 184 0 17 186 185 191 187 80 178 177 0 180 +17
 187 185 186 189 78 117 116 0 178 -16 188 139 0 ?195 190 179 35 0 0 1 17 189
 185 187 191 82 195 188 0 117 -16 190 140 0 ?219 197 188 34 0 0 1 17 191 185
 189 186 84 219 190 0 0 -50 192 141 0 193 183 201 0 +0e0 3.44985087090868e-2
 1.38321160932872e-2 0e0 -5.82374661172358e-1 8.12920509044016e-1 0e0
 -8.12920509044016e-1 -5.82374661172358e-1 14 193 142 0 ?184 202 194 49 192 -0
 0 184 202 51 15 194 143 0 200 193 0 17 195 194 200 196 84 189 188 0 191 +17
 196 194 195 198 82 115 114 0 189 +16 197 144 0 ?206 199 190 36 0 0 1 17 198
 194 196 200 74 206 197 0 115 -16 199 145 0 ?220 204 197 39 0 0 1 17 200 194
 198 195 72 220 199 0 0 -51 201 146 0 202 192 210 0 +2.34648000000001e-3
 3.40093361158139e-2 1.39737268356134e-2 -1e0 0e0 0e0 4e-4 0e0
 9.24966220543791e-1 3.80049326868151e-1 14 202 147 0 ?193 211 203 49 201 +0 0
 193 211 51 15 203 148 0 209 202 0 16 204 149 0 ?221 208 199 40 0 0 1 17 205
 203 209 206 70 221 204 0 0 -17 206 203 205 207 72 198 197 0 200 +17 207 203
 206 209 74 113 112 0 198 -16 208 150 0 ?234 222 204 45 0 0 1 17 209 203 207
 205 76 234 208 0 113 -50 210 151 0 211 201 228 0 +-1.8e-3 0e0 0e0 1e0 0e0 0e0
 0e0 1e0 0e0 14 211 152 0 ?202 229 212 49 210 -0 0 202 229 51 15 212 153 0 227
 211 0 17 213 212 227 214 98 135 134 0 137 +17 214 212 213 215 94 146 145 0 141
 +17 215 212 214 216 60 154 153 0 155 +17 216 212 215 217 58 162 161 0 163 +17
 217 212 216 218 64 173 172 0 168 +17 218 212 217 219 68 180 179 0 181 +17 219
 212 218 220 80 191 190 0 186 +17 220 212 219 221 84 200 199 0 195 +17 221 212
 220 223 72 205 204 0 206 +16 222 154 0 ?223 224 208 44 0 0 1 17 223 212 221
 225 70 233 222 0 205 +16 224 155 0 ?225 226 222 41 0 0 1 17 225 212 223 227 96
 242 224 0 0 +16 226 156 0 ?227 231 224 42 0 0 1 17 227 212 225 213 100 249 226
 0 0 +51 228 157 0 229 210 236 0 +0e0 0e0 0e0 1e0 0e0 0e0 3.71681925679621e-2
 0e0 1e0 0e0 14 229 158 0 ?211 237 230 49 228 +0 0 211 237 51 15 230 159 0 235
 229 0 16 231 160 0 ?232 240 226 43 0 0 1 17 232 230 235 233 92 243 231 0 111 +
17 233 230 232 234 96 223 222 0 225 -17 234 230 233 235 70 209 208 0 223 +17
 235 230 234 232 76 111 110 0 209 -50 236 161 0 237 228 244 0 +-1.2e-2
 2.81500029305784e-2 1.26676983786833e-2 0e0 4.10369986057484e-1
 -9.11919116228616e-1 0e0 9.11919116228616e-1 4.10369986057484e-1 14 237 162 0 ?
229 245 238 49 236 -0 0 229 245 51 15 238 163 0 243 237 0 17 239 238 243 241 92
 109 108 0 232 +16 240 164 0 ?241 0 231 47 0 0 1 17 241 238 239 242 90 250 240
 0 109 +17 242 238 241 243 100 225 224 0 227 -17 243 238 242 239 96 232 231 0
 233 -50 244 165 0 245 236 0 0 +-1.2e-2 3.07849580440498e-2 2.27587465185592e-3
 0e0 9.69325016030068e-1 2.45782451160184e-1 0e0 -2.45782451160184e-1
 9.69325016030068e-1 14 245 166 0 ?237 0 246 49 244 -0 0 237 0 51 15 246 167 0
 250 245 0 17 247 246 250 248 90 107 106 0 241 +17 248 246 247 249 88 137 136 0
 131 +17 249 246 248 250 98 227 226 0 213 -17 250 246 249 247 100 241 240 0 242
 -1 0 
