**ABCDEFGHIJKLMNOPQRSTUVWXYZabcdefghijklmnopqrstuvwxyz**************************
**PARASOLID !"#$%&'()*+,-./:;<=>?@[\]^_`{|}~0123456789**************************
**PART1;
MC=Unknown;
MC_MODEL=unknown;
MC_ID=LENOVOHN;
OS=windows_64;
OS_RELEASE=Build 9200 Service Pack 0.0;
FRU=PRO/INTERFACE BY PTC, 2024253;
APPL=PRO/ENGINEER BY PTC, 2024253;
SITE=;
USER=Serhii Alieksieiev;
FORMAT=text;
GUISE=transmit;
KEY=CASSETTE_FLAT_SIMPLE_1;
FILE=cassette_flat_simple_2.x_t;
DATE=01-08-2025;
**PART2;
SCH=SCH_1000149_10004;
USFLD_SIZE=0;
**PART3;
**END_OF_HEADER*****************************************************************
T51 : TRANSMIT FILE created by modeller version 100014917 SCH_1000149_100040 12
 1 222 5 7 0 0 0 0 1e3 1e-8 0 0 0 1 0 1 1 51 358 293 109 54 354 110 79 13 2 SDL/
TYSA_NAME80 1 3 0 2 8017 0 0 0 0 0 0 0 0 TTTTTTTTTTTTT3 84 22 4 CASSETTE_FLAT_SI
MPLE_181 1 5 1 3 1 12 0 0 0 4 74 20 6 2 0 5 12 0 0 0 0 0 0 0 0 0 0 0 0 0 0 0 0
 0 0 70 7 0 1 0 0 4 2 20 4 6 6 1 T79 16 8 SDL/TYSA_DENSITY80 2 9 0 8 8004 0 0 0
 0 3 5 0 0 FFTFFFFFFFFFF2 3 83 1 10 7.69995976836994e3 84 7 11 KG/CU M81 2 12 2
 9 1 0 5 0 0 10 11 30 13 3 0 114 0 14 0 +0e0 3.46929174781045e-2
 -9.79874535049136e-3 0e0 -9.62351313985889e-1 2.71808661505907e-1 30 14 4 0
 116 13 15 0 +0e0 2.97067928798164e-2 -8.39045314631794e-3 0e0
 1.00568725237864e-1 9.94930113879377e-1 30 15 5 0 118 14 16 0 +0e0
 3.07849580440498e-2 2.27587465185591e-3 0e0 9.97278465721571e-1
 7.37269408563042e-2 31 16 6 0 122 15 17 0 +0e0 3.67376182409682e-2
 1.49912997956239e-3 1e0 0e0 0e0 0e0 2.69217982620772e-1 -9.63079268717587e-1
 4e-4 30 17 7 0 124 16 18 0 +0e0 3.68453054340165e-2 1.11389827207535e-3 0e0
 -9.63079268717594e-1 -2.69217982620745e-1 30 18 8 0 132 17 19 0 +0e0
 3.45403749679810e-2 -7.95163388507081e-3 0e0 9.34171604015723e-1
 -3.56824066243704e-1 31 19 9 0 134 18 20 0 +0e0 0e0 0e0 1e0 0e0 0e0 0e0
 9.62351313985889e-1 -2.71808661505907e-1 3.60501585792122e-2 31 20 10 0 140 19
 21 0 +-1.5e-3 3.46929174781045e-2 -9.79874535049136e-3 0e0
 -2.71808661505907e-1 -9.62351313985889e-1 6.66666666666671e-1
 7.17294318769561e-1 -2.02594214666813e-1 1.5e-3 30 21 11 0 204 20 22 0 +
-1.8e-3 3.53339501224384e-2 -8.25475454541440e-3 0e0 -9.34171604015721e-1
 3.56824066243710e-1 30 22 12 0 208 21 23 0 +-1.27195254991673e-3
 3.58372118396636e-2 -8.44698463628116e-3 1e0 -2.61899783446844e-14 0e0 30 23
 13 0 146 22 24 0 +-1.8e-3 3.49192858017057e-2 -9.86268132704294e-3 0e0
 -9.62351313985889e-1 2.71808661505907e-1 31 24 14 0 221 23 25 0 +-1.8e-3
 3.58784652163949e-2 -4.44849037001185e-3 -1e0 0e0 0e0 0e0 -3.56824066243703e-1
 -9.34171604015723e-1 3.75e-3 30 25 15 0 227 24 26 0 +-1.8e-3
 3.68453054340165e-2 1.11389827207535e-3 0e0 -9.63079268717594e-1
 -2.69217982620746e-1 31 26 16 0 229 25 27 0 +-1.8e-3 3.67376182409682e-2
 1.49912997956239e-3 -1e0 0e0 0e0 0e0 9.99168457167499e-1 4.07724686709045e-2
 4e-4 30 27 17 0 233 26 28 0 +-1.8e-3 3.07849580440498e-2 2.27587465185591e-3
 0e0 9.97278465721571e-1 7.37269408563043e-2 30 28 18 0 235 27 29 0 +-1.8e-3
 2.97067928798164e-2 -8.39045314631794e-3 0e0 1.00568725237864e-1
 9.94930113879377e-1 31 29 19 0 144 28 30 0 +5.3e-4 3.32096557590854e-2
 -9.37980958696057e-3 0e0 -2.71808661505907e-1 -9.62351313985888e-1
 -7.95221843003414e-1 5.83491482122962e-1 -1.64802641666333e-1 2.93e-3 31 30 20
 0 218 29 31 0 +-1.8e-3 0e0 0e0 1e0 0e0 0e0 0e0 9.62351313985889e-1
 -2.71808661505907e-1 3.62853827850831e-2 30 31 21 0 142 30 32 0 +
-6.99999999999986e-4 3.57688589562589e-2 -1.01026366724916e-2 1e0 0e0 0e0 31 32
 22 0 179 31 33 0 +-5.00000000000004e-4 0e0 0e0 1e0 0e0 0e0 0e0
 9.62351313985889e-1 -2.71808661505907e-1 3.71681925679621e-2 31 33 23 0 261 32
 34 0 +-6.99999999999984e-4 0e0 0e0 1e0 0e0 0e0 0e0 9.62351313985889e-1
 -2.71808661505907e-1 3.71681925679621e-2 30 34 24 0 272 33 35 0 +
-6.99999999999988e-4 3.60828013522937e-2 -8.91661288494818e-3 1e0 0e0 0e0 30 35
 25 0 212 34 36 0 +-1.8e-3 3.45403749679810e-2 -7.95163388507080e-3 1e0 0e0 0e0
 31 36 26 0 130 35 37 0 +0e0 3.58784652163949e-2 -4.44849037001185e-3 -1e0 0e0
 0e0 0e0 -3.56824066243709e-1 -9.34171604015721e-1 3.75e-3 30 37 27 0 307 36 38
 0 +0e0 3.21569613876927e-2 -3.98706946351277e-3 -1e0 0e0 0e0 31 38 28 0 128 37
 39 0 +0e0 0e0 0e0 1e0 0e0 0e0 0e0 9.92401020987269e-1 -1.23045575066418e-1
 3.24031925679621e-2 30 39 29 0 315 38 40 0 +0e0 3.22493808281209e-2
 -3.15346235101327e-3 -1e0 0e0 0e0 31 40 30 0 223 39 41 0 +-1.8e-3 0e0 0e0 -1e0
 0e0 0e0 0e0 9.95253191810698e-1 -9.73194954293240e-2 3.24031925679621e-2 31 41
 31 0 126 40 42 0 +0e0 3.67280201912691e-2 -3.59140008044525e-3 -1e0 0e0 0e0
 0e0 -9.95253191810698e-1 9.73194954293243e-2 4.5e-3 31 42 32 0 225 41 43 0 +
-1.8e-3 3.67280201912691e-2 -3.59140008044525e-3 1e0 0e0 0e0 0e0
 -2.69217982620748e-1 9.63079268717594e-1 4.5e-3 30 43 33 0 323 42 44 0 +0e0
 3.55165392694757e-2 7.42456628783920e-4 -1e0 0e0 0e0 30 44 34 0 331 43 45 0 +
0e0 3.68453054340165e-2 1.11389827207536e-3 -1e0 0e0 0e0 30 45 35 0 345 44 46 0
 +-1.8e-3 3.70670380578211e-2 2.74029713519389e-3 1e0 0e0 0e0 31 46 36 0 231 45
 47 0 +-1.8e-3 0e0 0e0 -1e0 0e0 0e0 0e0 9.97278465721571e-1 7.37269408563046e-2
 3.71681925679621e-2 30 47 37 0 340 46 48 0 +0e0 3.71372856238352e-2
 1.51543896703075e-3 -1e0 0e0 0e0 31 48 38 0 120 47 49 0 +0e0 0e0 0e0 1e0 0e0
 0e0 0e0 9.99168457167500e-1 4.07724686708876e-2 3.71681925679621e-2 30 49 39 0
 354 48 50 0 +-1.8e-3 3.07849580440498e-2 2.27587465185591e-3 1e0 0e0 0e0 30 50
 40 0 148 49 160 0 +-1.8e-3 2.97067928798164e-2 -8.39045314631794e-3 1e0 0e0
 0e0 13 51 41 0 1 0 359 0 0 52 0 19 52 222 0 1 0 54 51 S13 53 42 0 0 0 0 0 0 54
 359 19 54 43 0 1 52 0 53 V29 55 44 0 56 0 57 -1.8e-3 3.71372856238352e-2
 1.51543896703075e-3 18 56 45 0 348 58 0 55 ?1 29 57 46 0 58 55 59 -1.8e-3
 3.68453054340165e-2 1.11389827207535e-3 18 58 47 0 338 60 56 57 ?1 29 59 48 0
 60 57 61 0e0 3.68453054340165e-2 1.11389827207535e-3 18 60 49 0 339 62 58 59 ?
1 29 61 50 0 62 59 63 0e0 3.71372856238352e-2 1.51543896703075e-3 18 62 51 0
 349 64 60 61 ?1 29 63 52 0 64 61 65 0e0 3.22493808281209e-2
 -3.15346235101328e-3 18 64 53 0 322 66 62 63 ?1 29 65 54 0 66 63 67 -1.8e-3
 3.22493808281209e-2 -3.15346235101328e-3 18 66 55 0 321 68 64 65 ?1 29 67 56 0
 68 65 69 0e0 3.55165392694757e-2 7.42456628783921e-4 18 68 57 0 330 70 66 67 ?
1 29 69 58 0 70 67 71 -1.8e-3 3.55165392694757e-2 7.42456628783921e-4 18 70 59
 0 329 72 68 69 ?1 29 71 60 0 72 69 73 0e0 3.21569613876926e-2
 -3.98706946351278e-3 18 72 61 0 314 74 70 71 ?1 29 73 62 0 74 71 75 -1.8e-3
 3.21569613876926e-2 -3.98706946351278e-3 18 74 63 0 313 76 72 73 ?1 29 75 64 0
 76 73 77 0e0 3.45403749679810e-2 -7.95163388507080e-3 18 76 65 0 306 78 74 75 ?
1 29 77 66 0 78 75 79 0e0 3.51121683355783e-2 -8.17004090322483e-3 18 78 67 0
 211 80 76 77 ?1 29 79 68 0 80 77 81 -2.12174063262831e-4 3.58372118396636e-2
 -8.44698463628114e-3 18 80 69 0 299 82 78 79 ?1 29 81 70 0 82 79 83
 -5.00000000000002e-4 3.60828013522936e-2 -8.91661288494837e-3 18 82 71 0 298
 84 80 81 ?1 29 83 72 0 84 81 85 -6.99999999999995e-4 3.60828013522937e-2
 -8.91661288494818e-3 18 84 73 0 301 86 82 83 ?1 29 85 74 0 86 83 87
 -1.27195254991673e-3 3.58372118396637e-2 -8.44698463628118e-3 18 86 75 0 300
 88 84 85 ?1 29 87 76 0 88 85 89 -1.8e-3 3.53339501224384e-2
 -8.25475454541439e-3 18 88 77 0 266 90 86 87 ?1 29 89 78 0 90 87 91 -1.8e-3
 3.45403749679810e-2 -7.95163388507081e-3 18 90 79 0 305 92 88 89 ?1 29 91 80 0
 92 89 93 0e0 3.46929174781045e-2 -9.79874535049136e-3 18 92 81 0 174 94 90 91 ?
1 29 93 82 0 94 91 95 0e0 2.97067928798164e-2 -8.39045314631794e-3 18 94 83 0
 362 96 92 93 ?1 29 95 84 0 96 93 97 0e0 3.07849580440498e-2
 2.27587465185591e-3 18 96 85 0 361 98 94 95 ?1 29 97 86 0 98 95 99 0e0
 3.70670380578211e-2 2.74029713519388e-3 18 98 87 0 353 100 96 97 ?1 29 99 88 0
 100 97 101 -6.99999999999994e-4 3.57688589562589e-2 -1.01026366724916e-2 18
 100 89 0 270 102 98 99 ?1 29 101 90 0 102 99 103 -5.00000000000002e-4
 3.57688589562589e-2 -1.01026366724916e-2 18 102 91 0 271 104 100 101 ?1 29 103
 92 0 104 101 105 -1.8e-3 3.70670380578211e-2 2.74029713519388e-3 18 104 93 0
 357 106 102 103 ?1 29 105 94 0 106 103 107 -1.79999999999999e-3
 3.49192858017057e-2 -9.86268132704293e-3 18 106 95 0 260 108 104 105 ?1 29 107
 96 0 108 105 109 -1.8e-3 2.97067928798164e-2 -8.39045314631794e-3 18 108 97 0
 363 110 106 107 ?1 29 109 98 0 110 107 0 -1.8e-3 3.07849580440498e-2
 2.27587465185591e-3 18 110 99 0 364 0 108 109 ?1 50 111 100 0 112 0 136 0 +0e0
 0e0 0e0 1e0 0e0 0e0 0e0 1e0 0e0 14 112 101 0 ?0 137 113 51 111 +0 0 0 137 53
 15 113 102 0 135 112 0 16 114 103 0 ?139 116 0 13 0 0 1 17 115 113 135 117 92
 139 114 0 0 -16 116 104 0 ?361 118 114 14 0 0 1 17 117 113 115 119 94 361 116
 0 0 -16 118 105 0 ?353 120 116 15 0 0 1 17 119 113 117 121 96 353 118 0 0 -16
 120 106 0 ?121 122 118 48 0 0 1 17 121 113 119 123 98 349 120 0 0 +16 122 107
 0 ?123 124 120 16 0 0 1 17 123 113 121 125 62 339 122 0 0 +16 124 108 0 ?330
 126 122 17 0 0 1 17 125 113 123 127 60 330 124 0 0 -16 126 109 0 ?127 128 124
 41 0 0 1 17 127 113 125 129 68 322 126 0 0 +16 128 110 0 ?129 130 126 38 0 0 1
 17 129 113 127 131 64 314 128 0 0 +16 130 111 0 ?131 132 128 36 0 0 1 17 131
 113 129 133 72 306 130 0 0 +16 132 112 0 ?211 134 130 18 0 0 1 17 133 113 131
 135 76 211 132 0 0 -16 134 113 0 ?135 140 132 19 0 0 1 17 135 113 133 115 78
 174 134 0 0 +50 136 114 0 137 111 150 0 +-1.2e-2 3.57688589562589e-2
 -1.01026366724916e-2 0e0 2.71808661505907e-1 9.62351313985889e-1 0e0
 -9.62351313985889e-1 2.71808661505907e-1 14 137 115 0 ?112 151 138 51 136 -0 0
 112 151 53 15 138 116 0 149 137 0 17 139 138 149 141 94 115 114 0 117 +16 140
 117 0 ?141 142 134 20 0 0 1 17 141 138 139 143 92 173 140 0 115 +16 142 118 0 ?
143 144 140 31 0 0 1 17 143 138 141 145 102 270 142 0 0 +16 144 119 0 ?145 146
 142 29 0 0 1 17 145 138 143 147 100 260 144 0 0 +16 146 120 0 ?217 148 144 23
 0 0 1 17 147 138 145 149 106 217 146 0 0 -16 148 121 0 ?362 175 146 50 0 0 1
 17 149 138 147 139 108 362 148 0 0 -54 150 122 0 151 136 181 159 +-1.5e-3 0e0
 0e0 1e0 0e0 0e0 3.60501585792122e-2 1.5e-3 0e0 9.89751322387744e-1
 -1.42801680073145e-1 14 151 123 0 ?137 182 172 51 150 +0 0 137 182 53 45 12
 152 6.19786076959410e0 1.57079632679490e0 6.19751855360661e0
 1.51084548323751e0 6.19684051242262e0 1.39101781655956e0 6.19587215559101e0
 1.21160440314613e0 6.19527711107888e0 1.09205383710795e0 6.19499755032307e0
 1.03243615891990e0 127 4 153 4 1 1 4 128 4 154 0e0 3.34424172276169e-1
 6.68353621436620e-1 1e0 136 155 3 6 2 4 6 FFF2 152 153 154 135 156 1 134 157 0
 0 0 0 0 0 +155 156 137 158 127 0 1 160 170 161 -150 157 0 ?141 159 158 169 169
 150 133 160 126 0 176 50 158 0 +158 -2.12174063262818e-4 3.58372118396635e-2
 -8.44698463628112e-3 0e0 3.51121683355782e-2 -8.17004090322480e-3 1e0 0e0 141
 161 160 161 161 158 45 18 162 6.19499755032307e0 1.03243615891990e0
 6.19486985896698e0 1.00580677504375e0 6.19439063549637e0 9.53510210866708e-1
 6.19308685054289e0 8.81552276764171e-1 6.19133468347211e0 8.19625153242920e-1
 6.18923869234403e0 7.70662473018322e-1 6.18683110792356e0 7.37859008343782e-1
 6.18509038348874e0 7.29590529214318e-1 6.18421500902119e0 7.29727656226967e-1
 127 7 163 4 1 1 1 1 1 4 128 7 164 0e0 1.84040583237895e-1 3.66587945936319e-1
 5.38867129914369e-1 7.00785519689656e-1 8.53626686396450e-1 1e0 136 165 3 9 2
 7 6 FFF2 162 163 164 135 166 1 134 167 0 0 0 0 0 0 +165 166 137 168 131 0 1
 170 191 171 -150 167 0 ?141 169 168 159 159 150 133 170 130 0 178 158 168 0 +
168 -5e-4 3.60828013522936e-2 -8.91661288494875e-3 -2.12174063262818e-4
 3.58372118396635e-2 -8.44698463628112e-3 1e0 0e0 141 171 170 171 171 168 15
 172 132 0 180 151 0 17 173 172 180 174 102 141 140 0 143 -17 174 172 173 176
 92 135 134 0 141 -16 175 133 0 5.44079662902747e-7 210 177 148 0 0 0 1 17 176
 172 174 178 78 210 175 160 135 -16 177 134 0 4.66338440488954e-7 298 179 175 0
 0 0 1 17 178 172 176 180 80 298 177 170 0 -16 179 135 0 ?180 204 177 32 0 0 1
 17 180 172 178 173 82 271 179 0 0 +50 181 136 0 182 150 214 190 +-1.8e-3
 3.58372118396636e-2 -8.44698463628116e-3 0e0 3.56824066243710e-1
 9.34171604015721e-1 0e0 -9.34171604015721e-1 3.56824066243710e-1 14 182 137 0 ?
151 215 203 51 181 +0 0 151 215 53 45 10 183 5.38725128297455e-4 0e0
 4.37732759325918e-4 7.63571127796996e-5 2.46816660847589e-4
 2.40800741003030e-4 7.85552308043341e-5 4.28360743885416e-4 0e0
 5.28047450083112e-4 127 3 184 4 1 4 128 3 185 0e0 4.99394319320429e-1 1e0 136
 186 3 5 2 3 6 FFF2 183 184 185 135 187 1 134 188 0 0 0 0 0 0 +186 187 137 189
 141 0 1 191 201 192 -181 188 0 ?141 190 189 200 200 181 133 191 140 0 207 168
 189 0 +189 -1.27195254991689e-3 3.58372118396636e-2 -8.44698463628116e-3
 -1.8e-3 3.53339501224384e-2 -8.25475454541440e-3 1e0 0e0 141 192 191 192 192
 189 45 12 193 0e0 1.58782593673712e-3 7.74306635733759e-5 1.63379329860246e-3
 2.41147575561997e-4 1.71176906540022e-3 5.03965337084184e-4
 1.78375669156420e-3 6.85344281716128e-4 1.80012077451869e-3
 7.76135242142282e-4 1.80000000000002e-3 127 4 194 4 1 1 4 128 4 195 0e0
 3.31646378563588e-1 6.65575827724107e-1 1e0 136 196 3 6 2 4 6 FFF2 193 194 195
 135 197 1 134 198 0 0 0 0 0 0 +196 197 137 199 145 0 1 201 247 202 -181 198 0 ?
141 200 199 190 190 181 133 201 144 0 210 189 199 0 +199 0e0
 3.51121683355785e-2 -8.17004090322490e-3 -2.12174063262879e-4
 3.58372118396636e-2 -8.44698463628115e-3 1e0 0e0 141 202 201 202 202 199 15
 203 146 0 213 182 0 16 204 147 0 ?205 206 179 21 0 0 1 17 205 203 213 207 90
 220 204 0 0 +16 206 148 0 3.89646198185371e-7 265 208 204 0 0 0 1 17 207 203
 205 209 88 265 206 191 0 -16 208 149 0 ?299 212 206 22 0 0 1 17 209 203 207
 210 86 299 208 0 0 -17 210 203 209 211 80 176 175 201 178 +17 211 203 210 213
 78 133 132 0 176 +16 212 150 0 ?213 218 208 35 0 0 1 17 213 203 211 205 76 305
 212 0 133 +50 214 151 0 215 181 237 0 +-1.8e-3 0e0 0e0 1e0 0e0 0e0 0e0 1e0 0e0
 14 215 152 0 ?182 238 216 51 214 -0 0 182 238 53 15 216 153 0 236 215 0 17 217
 216 236 219 108 147 146 0 149 +16 218 154 0 ?266 221 212 30 0 0 1 17 219 216
 217 220 106 266 218 0 147 -17 220 216 219 222 88 205 204 0 207 -16 221 155 0 ?
309 223 218 24 0 0 1 17 222 216 220 224 90 309 221 0 205 -16 223 156 0 ?224 225
 221 40 0 0 1 17 224 216 222 226 74 317 223 0 0 +16 225 157 0 ?226 227 223 42 0
 0 1 17 226 216 224 228 66 325 225 0 0 +16 227 158 0 ?228 229 225 25 0 0 1 17
 228 216 226 230 70 333 227 0 0 +16 229 159 0 ?230 231 227 26 0 0 1 17 230 216
 228 232 58 337 229 0 0 +16 231 160 0 ?232 233 229 46 0 0 1 17 232 216 230 234
 56 347 231 0 0 +16 233 161 0 ?234 235 231 27 0 0 1 17 234 216 232 236 104 356
 233 0 0 +16 235 162 0 ?236 261 233 28 0 0 1 17 236 216 234 217 110 363 235 0 0
 +54 237 163 0 238 214 267 246 +5.3e-4 0e0 0e0 1e0 0e0 0e0 3.45088693457869e-2
 2.93e-3 0e0 9.89751322387744e-1 -1.42801680073145e-1 14 238 164 0 ?215 268 259
 51 237 +0 0 215 268 53 45 22 239 6.18421500902121e0 -4.33219686980264e-1
 6.18490757981088e0 -4.33210732941520e-1 6.18627575959957e0
 -4.37392269930552e-1 6.18813211522932e0 -4.53233860128731e-1
 6.18976931727592e0 -4.75823180459596e-1 6.19123340330816e0
 -5.03741988062958e-1 6.19253000750917e0 -5.36421243694118e-1
 6.19364541131263e0 -5.73739410742831e-1 6.19453704562160e0
 -6.16118523065040e-1 6.19489014033619e0 -6.46403077915732e-1
 6.19499755032307e0 -6.62387070178575e-1 127 9 240 4 1 1 1 1 1 1 1 4 128 9 241
 0e0 8.93321783526555e-2 1.86636725871781e-1 2.93395565218058e-1
 4.11311523189964e-1 5.38707098226143e-1 6.78086038995800e-1
 8.31071589394810e-1 1e0 136 242 3 11 2 9 6 FFF2 239 240 241 135 243 1 134 244
 0 0 0 0 0 0 +242 243 137 245 168 0 1 247 257 248 -237 244 0 ?141 246 245 256
 256 237 133 247 167 0 264 199 245 0 +245 -1.27195254991656e-3
 3.58372118396638e-2 -8.44698463628122e-3 -6.99999999999997e-4
 3.60828013522937e-2 -8.91661288494818e-3 1e0 0e0 141 248 247 248 248 245 45 10
 249 6.19499755032307e0 -6.62387070178575e-1 6.19528067568104e0
 -7.05322863503019e-1 6.19589259977235e0 -7.91037696173887e-1
 6.19659712864522e0 -8.76646940128319e-1 6.19697206150257e0
 -9.19373376975661e-1 127 3 250 4 1 4 128 3 251 0e0 5.00605680679798e-1 1e0 136
 252 3 5 2 3 6 FFF2 249 250 251 135 253 1 134 254 0 0 0 0 0 0 +252 253 137 255
 172 0 1 257 285 258 -237 254 0 ?141 256 255 246 246 237 133 257 171 0 265 245
 255 0 +255 -1.8e-3 3.53339501224384e-2 -8.25475454541440e-3
 -1.27195254991656e-3 3.58372118396638e-2 -8.44698463628122e-3 1e0 0e0 141 258
 257 258 258 255 15 259 173 0 266 238 0 17 260 259 266 262 106 145 144 0 219 -
16 261 174 0 ?274 263 235 33 0 0 1 17 262 259 260 264 100 274 261 0 145 -16 263
 175 0 4.62112267633431e-7 300 272 261 0 0 0 1 17 264 259 262 265 84 300 263
 247 0 -17 265 259 264 266 86 207 206 257 209 +17 266 259 265 260 88 219 218 0
 220 +51 267 176 0 268 237 275 0 +0e0 0e0 0e0 1e0 0e0 0e0 3.71681925679621e-2
 0e0 1e0 0e0 14 268 177 0 ?238 276 269 51 267 +0 0 238 276 53 15 269 178 0 274
 268 0 17 270 269 274 271 100 143 142 0 262 -17 271 269 270 273 102 180 179 0
 173 -16 272 179 0 ?273 307 263 34 0 0 1 17 273 269 271 274 82 301 272 0 180 +
17 274 269 273 270 84 262 261 0 264 +51 275 180 0 276 267 302 284 +-1.8e-3
 3.56944822131662e-2 -8.82065327788745e-3 1e0 0e0 0e0 4e-4 0e0 1e0 0e0 14 276
 181 0 ?268 303 297 51 275 +0 0 268 303 53 45 18 277 6.04092347743246e0
 1.29999999999999e-3 6.12194747440795e0 1.29981064332352e-3 6.28425923335970e0
 1.30915214071779e-3 6.52126485096437e0 1.34520165118833e-3 6.75386231571935e0
 1.39689731059767e-3 6.99018590195270e0 1.45847682554160e-3 7.23385766180122e0
 1.52434297152829e-3 7.40250094296979e0 1.56739546147140e-3 7.48911569011508e0
 1.58782593673720e-3 127 7 278 4 1 1 1 1 1 4 128 7 279 0e0 1.46373313602820e-1
 2.99214480309769e-1 4.61132870085206e-1 6.33412054063434e-1
 8.15959416762038e-1 1e0 136 280 3 9 2 7 6 FFF2 277 278 279 135 281 1 134 282 0
 0 0 0 0 0 +280 281 137 283 185 0 1 285 295 286 -275 282 0 ?141 284 283 294 294
 275 133 285 184 0 298 255 283 0 +283 -2.12174063262797e-4 3.58372118396636e-2
 -8.44698463628115e-3 -5.00000000000008e-4 3.60828013522937e-2
 -8.91661288494818e-3 1e0 0e0 141 286 285 286 286 283 45 22 287
 7.48911569011501e0 5.28047450083270e-4 7.41640596527324e0 5.64967800282242e-4
 7.28104952353816e0 6.36270564224864e-4 7.08982040964002e0 7.39247815462057e-4
 6.91357022770383e0 8.32283000823565e-4 6.74532051021844e0 9.15454947051177e-4
 6.57964405490909e0 9.87710626719858e-4 6.41124479721820e0 1.04694635771996e-3
 6.23262774375368e0 1.08888981921080e-3 6.10504471946267e0 1.10002712809454e-3
 6.04092347743246e0 1.10000000000001e-3 127 9 288 4 1 1 1 1 1 1 1 4 128 9 289
 0e0 1.68928410605408e-1 3.21913961004383e-1 4.61292901773999e-1
 5.88688476810145e-1 7.06604434782018e-1 8.13363274128269e-1
 9.10667821647367e-1 1e0 136 290 3 11 2 9 6 FFF2 287 288 289 135 291 1 134 292
 0 0 0 0 0 0 +290 291 137 293 189 0 1 295 0 296 -275 292 0 ?141 294 293 284 284
 275 133 295 188 0 300 283 293 0 +293 -6.99999999999988e-4 3.60828013522937e-2
 -8.91661288494818e-3 -1.27195254991673e-3 3.58372118396636e-2
 -8.44698463628116e-3 1e0 0e0 141 296 295 296 296 293 15 297 190 0 301 276 0 17
 298 297 301 299 82 178 177 285 273 +17 299 297 298 300 80 209 208 0 210 +17
 300 297 299 301 86 264 263 295 265 +17 301 297 300 298 84 273 272 0 274 -51
 302 191 0 303 275 310 0 +-1.8e-3 3.58784652163949e-2 -4.44849037001185e-3 1e0
 0e0 0e0 3.75e-3 0e0 1e0 0e0 14 303 192 0 ?276 311 304 51 302 -0 0 276 311 53
 15 304 193 0 309 303 0 17 305 304 309 306 90 213 212 0 222 -17 306 304 305 308
 76 131 130 0 213 -16 307 194 0 ?313 315 272 37 0 0 1 17 308 304 306 309 72 313
 307 0 131 -17 309 304 308 305 74 222 221 0 224 +51 310 195 0 311 302 318 0 +
0e0 0e0 0e0 1e0 0e0 0e0 3.24031925679621e-2 0e0 -5e-1 -8.66025403784438e-1 14
 311 196 0 ?303 319 312 51 310 +0 0 303 319 53 15 312 197 0 317 311 0 17 313
 312 317 314 74 308 307 0 309 +17 314 312 313 316 72 129 128 0 308 -16 315 198
 0 ?321 323 307 39 0 0 1 17 316 312 314 317 64 321 315 0 129 -17 317 312 316
 313 66 224 223 0 226 -51 318 199 0 319 310 326 0 +5.59296e-3
 3.67280201912691e-2 -3.59140008044525e-3 -1e0 0e0 0e0 4.5e-3 0e0
 -9.95253191810698e-1 9.73194954293263e-2 14 319 200 0 ?311 327 320 51 318 -0 0
 311 327 53 15 320 201 0 325 319 0 17 321 320 325 322 66 316 315 0 317 +17 322
 320 321 324 64 127 126 0 316 -16 323 202 0 ?329 331 315 43 0 0 1 17 324 320
 322 325 68 329 323 0 127 -17 325 320 324 321 70 226 225 0 228 -50 326 203 0
 327 318 334 0 +0e0 3.71488563907706e-2 1.19875252951229e-3 0e0
 -2.69217982620746e-1 9.63079268717594e-1 0e0 -9.63079268717594e-1
 -2.69217982620746e-1 14 327 204 0 ?319 335 328 51 326 -0 0 319 335 53 15 328
 205 0 333 327 0 17 329 328 333 330 70 324 323 0 325 +17 330 328 329 332 68 125
 124 0 324 +16 331 206 0 ?338 340 323 44 0 0 1 17 332 328 330 333 60 338 331 0
 125 -17 333 328 332 329 58 228 227 0 230 -51 334 207 0 335 326 342 0 +
2.34648000000001e-3 3.67376182409682e-2 1.49912997956239e-3 -1e0 0e0 0e0 4e-4
 0e0 9.99168457167499e-1 4.07724686709047e-2 14 335 208 0 ?327 343 336 51 334 +
0 0 327 343 53 15 336 209 0 341 335 0 17 337 336 341 338 56 230 229 0 232 -17
 338 336 337 339 58 332 331 0 333 +17 339 336 338 341 60 123 122 0 332 -16 340
 210 0 ?348 345 331 47 0 0 1 17 341 336 339 337 62 348 340 0 123 -51 342 211 0
 343 334 350 0 +0e0 0e0 0e0 1e0 0e0 0e0 3.71681925679621e-2 0e0 1e0 0e0 14 343
 212 0 ?335 351 344 51 342 +0 0 335 351 53 15 344 213 0 349 343 0 16 345 214 0 ?
346 354 340 45 0 0 1 17 346 344 349 347 98 357 345 0 121 +17 347 344 346 348
 104 232 231 0 234 -17 348 344 347 349 56 341 340 0 337 +17 349 344 348 346 62
 121 120 0 341 -50 350 215 0 351 342 358 0 +-1.2e-2 3.07849580440498e-2
 2.27587465185591e-3 0e0 7.37269408563041e-2 -9.97278465721571e-1 0e0
 9.97278465721571e-1 7.37269408563041e-2 14 351 216 0 ?343 359 352 51 350 -0 0
 343 359 53 15 352 217 0 357 351 0 17 353 352 357 355 98 119 118 0 346 +16 354
 218 0 ?355 0 345 49 0 0 1 17 355 352 353 356 96 364 354 0 119 +17 356 352 355
 357 110 234 233 0 236 -17 357 352 356 353 104 346 345 0 347 -50 358 219 0 359
 350 0 0 +-1.2e-2 2.97067928798164e-2 -8.39045314631794e-3 0e0
 9.94930113879377e-1 -1.00568725237864e-1 0e0 1.00568725237864e-1
 9.94930113879377e-1 14 359 220 0 ?351 0 360 51 358 -0 0 351 0 53 15 360 221 0
 364 359 0 17 361 360 364 362 96 117 116 0 355 +17 362 360 361 363 94 149 148 0
 139 +17 363 360 362 364 108 236 235 0 217 -17 364 360 363 361 110 355 354 0
 356 -1 0 
