**ABCDEFGHIJKLMNOPQRSTUVWXYZabcdefghijklmnopqrstuvwxyz**************************
**PARASOLID !"#$%&'()*+,-./:;<=>?@[\]^_`{|}~0123456789**************************
**PART1;
MC=Unknown;
MC_MODEL=unknown;
MC_ID=LENOVOHN;
OS=windows_64;
OS_RELEASE=Build 9200 Service Pack 0.0;
FRU=PRO/INTERFACE BY PTC, 2024253;
APPL=PRO/ENGINEER BY PTC, 2024253;
SITE=;
USER=Serhii Alieksieiev;
FORMAT=text;
GUISE=transmit;
KEY=CASSETTE_FLAT_SIMPLE_1;
FILE=cassette_flat_simple_1.x_t;
DATE=01-08-2025;
**PART2;
SCH=SCH_1000149_10004;
USFLD_SIZE=0;
**PART3;
**END_OF_HEADER*****************************************************************
T51 : TRANSMIT FILE created by modeller version 100014917 SCH_1000149_100040 12
 1 222 5 7 0 0 0 0 1e3 1e-8 0 0 0 1 0 1 1 51 358 348 109 54 354 110 79 13 2 SDL/
TYSA_NAME80 1 3 0 2 8017 0 0 0 0 0 0 0 0 TTTTTTTTTTTTT3 84 22 4 CASSETTE_FLAT_SI
MPLE_181 1 5 1 3 1 12 0 0 0 4 74 20 6 2 0 5 12 0 0 0 0 0 0 0 0 0 0 0 0 0 0 0 0
 0 0 70 7 0 1 0 0 4 2 20 4 6 6 1 T79 16 8 SDL/TYSA_DENSITY80 2 9 0 8 8004 0 0 0
 0 3 5 0 0 FFTFFFFFFFFFF2 3 83 1 10 7.69995976836994e3 84 7 11 KG/CU M81 2 12 2
 9 1 0 5 0 0 10 11 30 13 3 0 114 0 14 0 +0e0 3.01564275724357e-2
 -2.17270433984367e-2 0e0 -8.11350390990755e-1 5.84560127821895e-1 30 14 4 0
 116 13 15 0 +0e0 2.49631599921253e-2 -1.79854082254352e-2 0e0
 4.34789829135914e-1 9.00531956390201e-1 30 15 5 0 118 14 16 0 +0e0
 2.96090691351321e-2 -8.36285183289533e-3 0e0 9.62351313985889e-1
 -2.71808661505907e-1 31 16 6 0 120 15 17 0 +0e0 0e0 0e0 1e0 0e0 0e0 0e0
 9.47837229465119e-1 -3.18754743399825e-1 3.60501585792122e-2 30 17 7 0 122 16
 18 0 +0e0 3.41696824294986e-2 -1.14911590474398e-2 0e0 -9.97076455047607e-1
 7.64103578691837e-2 31 18 8 0 132 17 19 0 +0e0 3.05250004401570e-2
 -2.04969347182245e-2 1e0 0e0 0e0 0e0 8.30201277469230e-1 -5.57463755672473e-1
 4e-4 30 19 9 0 140 18 20 0 +-1.8e-3 3.01564275724357e-2 -2.17270433984367e-2
 1e0 0e0 0e0 31 20 10 0 134 19 21 0 +0e0 0e0 0e0 1e0 0e0 0e0 0e0
 8.11350390990755e-1 -5.84560127821895e-1 3.71681925679621e-2 30 21 11 0 151 20
 22 0 +-1.8e-3 3.08570809511447e-2 -2.07199202204935e-2 1e0 0e0 0e0 31 22 12 0
 153 21 23 0 +-1.8e-3 0e0 0e0 -1e0 0e0 0e0 0e0 8.30201277469237e-1
 -5.57463755672463e-1 3.71681925679621e-2 30 23 13 0 167 22 24 0 +0e0
 2.97377165155449e-2 -1.92855956820634e-2 -1e0 0e0 0e0 30 24 14 0 169 23 25 0 +
-1.8e-3 2.97377165155449e-2 -1.92855956820634e-2 0e0 7.55793144562586e-1
 -6.54810447864264e-1 30 25 15 0 159 24 26 0 +-1.8e-3 3.07869246193027e-2
 -2.01946174603994e-2 1e0 0e0 0e0 30 26 16 0 130 25 27 0 +0e0
 3.07869246193027e-2 -2.01946174603994e-2 0e0 -7.55793144562587e-1
 6.54810447864263e-1 31 27 17 0 128 26 28 0 +0e0 3.21932556950359e-2
 -1.64513713899537e-2 -1e0 0e0 0e0 0e0 -6.54810447864262e-1
 -7.55793144562588e-1 3.75e-3 31 28 18 0 180 27 29 0 +-1.8e-3
 3.21932556950359e-2 -1.64513713899537e-2 1e0 0e0 0e0 0e0 -8.90467851062332e-1
 4.55046158344879e-1 3.75e-3 30 29 19 0 185 28 30 0 +0e0 2.92259575438341e-2
 -1.39932231541714e-2 -1e0 0e0 0e0 31 30 20 0 187 29 31 0 +-1.8e-3 0e0 0e0 -1e0
 0e0 0e0 0e0 9.01946852383016e-1 -4.31847051021968e-1 3.24031925679621e-2 30 31
 21 0 178 30 32 0 +0e0 2.88540012535521e-2 -1.47449482961604e-2 -1e0 0e0 0e0 31
 32 22 0 126 31 33 0 +0e0 0e0 0e0 1e0 0e0 0e0 0e0 8.90467851062333e-1
 -4.55046158344877e-1 3.24031925679621e-2 31 33 23 0 124 32 34 0 +0e0
 3.32847183795577e-2 -1.59365348837702e-2 -1e0 0e0 0e0 0e0 -9.01946852383016e-1
 4.31847051021967e-1 4.5e-3 30 34 24 0 142 33 35 0 +-1.8e-3 3.01564275724357e-2
 -2.17270433984367e-2 0e0 -8.11350390990755e-1 5.84560127821894e-1 31 35 25 0
 161 34 36 0 +-1.8e-3 3.05250004401570e-2 -2.04969347182245e-2 -1e0 0e0 0e0 0e0
 6.54810447864257e-1 7.55793144562592e-1 4e-4 31 36 26 0 194 35 37 0 +-1.8e-3
 3.32847183795577e-2 -1.59365348837702e-2 -1e0 0e0 0e0 0e0 -9.01946852383016e-1
 4.31847051021967e-1 4.5e-3 30 37 27 0 214 36 38 0 +-1.8e-3 2.96090691351321e-2
 -8.36285183289533e-3 0e0 9.62351313985889e-1 -2.71808661505907e-1 30 38 28 0
 216 37 39 0 +-1.8e-3 2.49631599921253e-2 -1.79854082254352e-2 0e0
 4.34789829135914e-1 9.00531956390201e-1 30 39 29 0 210 38 40 0 +-1.8e-3
 3.36285649899690e-2 -1.14496908360560e-2 0e0 9.97076455047607e-1
 -7.64103578691846e-2 30 40 30 0 198 39 41 0 +-1.8e-3 3.36285649899690e-2
 -1.14496908360560e-2 1e0 0e0 0e0 31 41 31 0 273 40 42 0 +-1.5e-3
 3.46929174781045e-2 -9.79874535049134e-3 0e0 -2.71808661505907e-1
 -9.62351313985889e-1 6.66666666666662e-1 7.17294318769568e-1
 -2.02594214666813e-1 1.5e-3 30 42 32 0 285 41 43 0 +0e0 2.96090691351321e-2
 -8.36285183289533e-3 -1e0 0e0 0e0 30 43 33 0 144 42 44 0 +0e0
 2.49631599921253e-2 -1.79854082254352e-2 -1e0 0e0 0e0 31 44 34 0 288 43 45 0 +
5.3e-4 3.32096557590854e-2 -9.37980958696056e-3 0e0 -2.71808661505907e-1
 -9.62351313985889e-1 -7.95221843003413e-1 5.83491482122965e-1
 -1.64802641666332e-1 2.93e-3 31 45 35 0 212 44 46 0 +-1.8e-3 0e0 0e0 1e0 0e0
 0e0 0e0 9.48358921946398e-1 -3.17199235756749e-1 3.62853827850831e-2 30 46 36
 0 246 45 47 0 +-1.21557190668392e-3 3.50042372736137e-2 -1.15551146588450e-2
 1e0 -1.42074498286112e-14 0e0 30 47 37 0 290 46 48 0 +-6.99999999999980e-4
 3.57688589562589e-2 -1.01026366724915e-2 1e0 0e0 0e0 31 48 38 0 328 47 49 0 +
-6.99999999999971e-4 0e0 0e0 1e0 0e0 0e0 0e0 9.52856231700899e-1
 -3.03422150985658e-1 3.71681925679621e-2 30 49 39 0 354 48 50 0 +
-6.99999999999999e-4 3.54159439094417e-2 -1.12776529372202e-2 1e0 0e0 0e0 31 50
 40 0 275 49 228 0 +-4.99999999999995e-4 0e0 0e0 1e0 0e0 0e0 0e0
 9.52856231700899e-1 -3.03422150985658e-1 3.71681925679621e-2 13 51 41 0 1 0
 359 0 0 52 0 19 52 222 0 1 0 54 51 S13 53 42 0 0 0 0 0 0 54 359 19 54 43 0 1
 52 0 53 V29 55 44 0 56 0 57 0e0 3.08570809511447e-2 -2.07199202204935e-2 18 56
 45 0 158 58 0 55 ?1 29 57 46 0 58 55 59 0e0 3.07869246193027e-2
 -2.01946174603994e-2 18 58 47 0 172 60 56 57 ?1 29 59 48 0 60 57 61 -1.8e-3
 3.07869246193027e-2 -2.01946174603994e-2 18 60 49 0 206 62 58 59 ?1 29 61 50 0
 62 59 63 -1.8e-3 3.08570809511447e-2 -2.07199202204935e-2 18 62 51 0 205 64 60
 61 ?1 29 63 52 0 64 61 65 0e0 2.97377165155449e-2 -1.92855956820634e-2 18 64
 53 0 177 66 62 63 ?1 29 65 54 0 66 63 67 -1.8e-3 2.97377165155449e-2
 -1.92855956820634e-2 18 66 55 0 207 68 64 65 ?1 29 67 56 0 68 65 69 0e0
 2.88540012535521e-2 -1.47449482961604e-2 18 68 57 0 190 70 66 67 ?1 29 69 58 0
 70 67 71 -1.8e-3 2.88540012535521e-2 -1.47449482961604e-2 18 70 59 0 208 72 68
 69 ?1 29 71 60 0 72 69 73 0e0 2.92259575438341e-2 -1.39932231541714e-2 18 72
 61 0 197 74 70 71 ?1 29 73 62 0 74 71 75 -1.8e-3 2.92259575438341e-2
 -1.39932231541714e-2 18 74 63 0 209 76 72 73 ?1 29 75 64 0 76 73 77 0e0
 3.36285649899690e-2 -1.14496908360560e-2 18 76 65 0 243 78 74 75 ?1 29 77 66 0
 78 75 79 0e0 3.41696824294986e-2 -1.14911590474398e-2 18 78 67 0 280 80 76 77 ?
1 29 79 68 0 80 77 81 -2.38775368584107e-4 3.50042372736136e-2
 -1.15551146588450e-2 18 80 69 0 353 82 78 79 ?1 29 81 70 0 82 79 83
 -4.99999999999997e-4 3.54159439094417e-2 -1.12776529372200e-2 18 82 71 0 364
 84 80 81 ?1 29 83 72 0 84 81 85 -1.21557190668393e-3 3.50042372736136e-2
 -1.15551146588450e-2 18 84 73 0 357 86 82 83 ?1 29 85 74 0 86 83 87
 -6.99999999999997e-4 3.54159439094417e-2 -1.12776529372202e-2 18 86 75 0 363
 88 84 85 ?1 29 87 76 0 88 85 89 -1.8e-3 3.36285649899690e-2
 -1.14496908360560e-2 18 88 77 0 242 90 86 87 ?1 29 89 78 0 90 87 91 -1.8e-3
 3.44115665004738e-2 -1.15096956885695e-2 18 90 79 0 325 92 88 89 ?1 29 91 80 0
 92 89 93 0e0 3.01564275724357e-2 -2.17270433984367e-2 18 92 81 0 150 94 90 91 ?
1 29 93 82 0 94 91 95 0e0 2.49631599921253e-2 -1.79854082254352e-2 18 94 83 0
 297 96 92 93 ?1 29 95 84 0 96 93 97 0e0 2.96090691351321e-2
 -8.36285183289533e-3 18 96 85 0 296 98 94 95 ?1 29 97 86 0 98 95 99 0e0
 3.46929174781045e-2 -9.79874535049134e-3 18 98 87 0 284 100 96 97 ?1 29 99 88
 0 100 97 101 -1.8e-3 3.01564275724357e-2 -2.17270433984367e-2 18 100 89 0 204
 102 98 99 ?1 29 101 90 0 102 99 103 -6.99999999999982e-4 3.57688589562589e-2
 -1.01026366724916e-2 18 102 91 0 362 104 100 101 ?1 29 103 92 0 104 101 105
 -5.00000000000012e-4 3.57688589562589e-2 -1.01026366724916e-2 18 104 93 0 361
 106 102 103 ?1 29 105 94 0 106 103 107 -1.8e-3 2.49631599921253e-2
 -1.79854082254352e-2 18 106 95 0 298 108 104 105 ?1 29 107 96 0 108 105 109
 -1.8e-3 2.96090691351321e-2 -8.36285183289533e-3 18 108 97 0 299 110 106 107 ?
1 29 109 98 0 110 107 0 -1.79999999999999e-3 3.49192858017057e-2
 -9.86268132704292e-3 18 110 99 0 324 0 108 109 ?1 50 111 100 0 112 0 136 0 +
0e0 0e0 0e0 1e0 0e0 0e0 0e0 1e0 0e0 14 112 101 0 ?0 137 113 51 111 +0 0 0 137
 53 15 113 102 0 135 112 0 16 114 103 0 ?139 116 0 13 0 0 1 17 115 113 135 117
 92 139 114 0 0 -16 116 104 0 ?296 118 114 14 0 0 1 17 117 113 115 119 94 296
 116 0 0 -16 118 105 0 ?284 120 116 15 0 0 1 17 119 113 117 121 96 284 118 0 0 -
16 120 106 0 ?121 122 118 16 0 0 1 17 121 113 119 123 98 280 120 0 0 +16 122
 107 0 ?243 124 120 17 0 0 1 17 123 113 121 125 78 243 122 0 0 -16 124 108 0 ?
125 126 122 33 0 0 1 17 125 113 123 127 76 197 124 0 0 +16 126 109 0 ?127 128
 124 32 0 0 1 17 127 113 125 129 72 190 126 0 0 +16 128 110 0 ?129 130 126 27 0
 0 1 17 129 113 127 131 68 177 128 0 0 +16 130 111 0 ?131 132 128 26 0 0 1 17
 131 113 129 133 64 172 130 0 0 +16 132 112 0 ?133 134 130 18 0 0 1 17 133 113
 131 135 58 158 132 0 0 +16 134 113 0 ?135 140 132 20 0 0 1 17 135 113 133 115
 56 150 134 0 0 +50 136 114 0 137 111 146 0 +2.5e-2 3.01564275724357e-2
 -2.17270433984367e-2 0e0 5.84560127821895e-1 8.11350390990754e-1 0e0
 -8.11350390990754e-1 5.84560127821895e-1 14 137 115 0 ?112 147 138 51 136 -0 0
 112 147 53 15 138 116 0 145 137 0 17 139 138 145 141 94 115 114 0 117 +16 140
 117 0 ?141 142 134 19 0 0 1 17 141 138 139 143 92 149 140 0 115 +16 142 118 0 ?
203 144 140 34 0 0 1 17 143 138 141 145 100 203 142 0 0 -16 144 119 0 ?145 151
 142 43 0 0 1 17 145 138 143 139 106 297 144 0 0 +51 146 120 0 147 136 155 0 +
0e0 0e0 0e0 1e0 0e0 0e0 3.71681925679621e-2 0e0 1e0 0e0 14 147 121 0 ?137 156
 148 51 146 +0 0 137 156 53 15 148 122 0 154 147 0 17 149 148 154 150 100 141
 140 0 143 -17 150 148 149 152 92 135 134 0 141 -16 151 123 0 ?152 153 144 21 0
 0 1 17 152 148 150 154 56 163 151 0 135 +16 153 124 0 ?204 159 151 22 0 0 1 17
 154 148 152 149 62 204 153 0 0 -51 155 125 0 156 146 164 0 +
-4.14648000000001e-3 3.05250004401570e-2 -2.04969347182245e-2 1e0 0e0 0e0 4e-4
 0e0 8.30201277469232e-1 -5.57463755672470e-1 14 156 126 0 ?147 165 157 51 155 +
0 0 147 165 53 15 157 127 0 163 156 0 17 158 157 163 160 56 133 132 0 152 -16
 159 128 0 ?160 161 153 25 0 0 1 17 160 157 158 162 58 171 159 0 133 +16 161
 129 0 ?205 167 159 35 0 0 1 17 162 157 160 163 60 205 161 0 0 -17 163 157 162
 158 62 152 151 0 154 -50 164 130 0 165 155 173 0 +0e0 2.74152418834208e-2
 -1.72734304951263e-2 0e0 -6.54810447864263e-1 -7.55793144562587e-1 0e0
 7.55793144562587e-1 -6.54810447864263e-1 14 165 131 0 ?156 174 166 51 164 -0 0
 156 174 53 15 166 132 0 172 165 0 16 167 133 0 ?176 169 161 23 0 0 1 17 168
 166 172 170 64 176 167 0 131 -16 169 134 0 ?206 178 167 24 0 0 1 17 170 166
 168 171 66 206 169 0 0 -17 171 166 170 172 60 160 159 0 162 -17 172 166 171
 168 58 131 130 0 160 -51 173 135 0 174 164 182 0 +4.69116e-3
 3.21932556950359e-2 -1.64513713899537e-2 -1e0 0e0 0e0 3.75e-3 0e0
 -6.54810447864262e-1 -7.55793144562588e-1 14 174 136 0 ?165 183 175 51 173 -0
 0 165 183 53 15 175 137 0 181 174 0 17 176 175 181 177 66 168 167 0 170 +17
 177 175 176 179 64 129 128 0 168 -16 178 138 0 ?189 180 169 31 0 0 1 17 179
 175 177 181 68 189 178 0 129 -16 180 139 0 ?207 185 178 28 0 0 1 17 181 175
 179 176 70 207 180 0 0 -51 182 140 0 183 173 191 0 +0e0 0e0 0e0 1e0 0e0 0e0
 3.24031925679621e-2 0e0 -9.39692620785908e-1 -3.42020143325669e-1 14 183 141 0
 ?174 192 184 51 182 +0 0 174 192 53 15 184 142 0 190 183 0 16 185 143 0 ?196
 187 180 29 0 0 1 17 186 184 190 188 72 196 185 0 127 -16 187 144 0 ?208 194
 185 30 0 0 1 17 188 184 186 189 74 208 187 0 0 -17 189 184 188 190 70 179 178
 0 181 +17 190 184 189 186 68 127 126 0 179 -51 191 145 0 192 182 200 0 +
-1.8e-3 3.32847183795577e-2 -1.59365348837702e-2 1e0 0e0 0e0 4.5e-3 0e0 1e0 0e0
 14 192 146 0 ?183 201 193 51 191 -0 0 183 201 53 15 193 147 0 199 192 0 16 194
 148 0 ?195 198 187 36 0 0 1 17 195 193 199 196 88 209 194 0 0 +17 196 193 195
 197 74 186 185 0 188 +17 197 193 196 199 72 125 124 0 186 -16 198 149 0 ?199
 210 194 40 0 0 1 17 199 193 197 195 76 242 198 0 125 +50 200 150 0 201 191 218
 0 +-1.8e-3 0e0 0e0 1e0 0e0 0e0 0e0 1e0 0e0 14 201 151 0 ?192 219 202 51 200 -0
 0 192 219 53 15 202 152 0 217 201 0 17 203 202 217 204 106 143 142 0 145 +17
 204 202 203 205 100 154 153 0 149 +17 205 202 204 206 62 162 161 0 163 +17 206
 202 205 207 60 170 169 0 171 +17 207 202 206 208 66 181 180 0 176 +17 208 202
 207 209 70 188 187 0 189 +17 209 202 208 211 74 195 194 0 196 -16 210 153 0 ?
241 212 198 39 0 0 1 17 211 202 209 213 88 241 210 0 195 -16 212 154 0 ?324 214
 210 45 0 0 1 17 213 202 211 215 90 324 212 0 0 -16 214 155 0 ?215 216 212 37 0
 0 1 17 215 202 213 217 110 287 214 0 0 +16 216 156 0 ?217 244 214 38 0 0 1 17
 217 202 215 203 108 298 216 0 0 +50 218 157 0 219 200 250 227 +-1.8e-3
 3.36285649899690e-2 -1.14496908360560e-2 0e0 -7.64103578691853e-2
 -9.97076455047607e-1 0e0 9.97076455047607e-1 -7.64103578691853e-2 14 219 158 0
 ?201 251 240 51 218 +0 0 201 251 53 45 12 220 5.42704059242656e-4 1.8e-3
 6.41473032714633e-4 1.80013617372142e-3 8.38455987985621e-4
 1.78162932580511e-3 1.12227227630961e-3 1.70041968468936e-3
 1.29751849742585e-3 1.61273830150260e-3 1.37970591591087e-3
 1.56122463141586e-3 127 4 221 4 1 1 4 128 4 222 0e0 3.36000949615479e-1
 6.70197152637655e-1 1e0 136 223 3 6 2 4 6 FFF2 220 221 222 135 224 1 134 225 0
 0 0 0 0 0 +223 224 137 226 162 0 1 228 238 229 -218 225 0 ?141 227 226 237 237
 218 133 228 161 0 245 50 226 0 +226 -2.38775368584139e-4 3.50042372736136e-2
 -1.15551146588450e-2 0e0 3.41696824294986e-2 -1.14911590474398e-2 1e0 0e0 141
 229 228 229 229 226 45 10 230 1.37970591591088e-3 5.84428093316092e-4
 1.29452991661666e-3 4.73249201737975e-4 1.11015879865933e-3
 2.64443204603910e-4 8.98306311854213e-4 8.35808884336358e-5
 7.85297362645490e-4 0e0 127 3 231 4 1 4 128 3 232 0e0 4.99112779253951e-1 1e0
 136 233 3 5 2 3 6 FFF2 230 231 232 135 234 1 134 235 0 0 0 0 0 0 +233 234 137
 236 166 0 1 238 260 239 -218 235 0 ?141 237 236 227 227 218 133 238 165 0 249
 226 236 0 +236 -1.8e-3 3.44115665004738e-2 -1.15096956885695e-2
 -1.21557190668391e-3 3.50042372736137e-2 -1.15551146588450e-2 1e0 0e0 141 239
 238 239 239 236 15 240 167 0 249 219 0 17 241 240 249 242 90 211 210 0 213 +17
 242 240 241 243 88 199 198 0 211 -17 243 240 242 245 76 123 122 0 199 +16 244
 168 0 6.55513252935986e-7 245 246 216 0 0 0 1 17 245 240 243 247 78 279 244
 228 123 +16 246 169 0 ?247 248 244 46 0 0 1 17 247 240 245 249 80 357 246 0 0 +
16 248 170 0 5.06750840382886e-7 325 273 246 0 0 0 1 17 249 240 247 241 84 325
 248 238 0 -54 250 171 0 251 218 281 259 +-1.5e-3 0e0 0e0 1e0 0e0 0e0
 3.60501585792122e-2 1.5e-3 0e0 9.89751322387744e-1 -1.42801680073145e-1 14 251
 172 0 ?219 282 272 51 250 +0 0 219 282 53 45 16 252 6.11819476215209e0
 7.29727656226969e-1 6.11728177051606e0 7.29590902583164e-1 6.11542952849433e0
 7.38768077135886e-1 6.11284062850443e0 7.76180691215062e-1 6.11056020242185e0
 8.34198456693322e-1 6.10869508807460e0 9.09508484768693e-1 6.10790067654420e0
 9.67888288436271e-1 6.10763353890771e0 9.98789663351533e-1 127 6 253 4 1 1 1 1
 4 128 6 254 0e0 1.65290405815681e-1 3.46030684411109e-1 5.44623157884935e-1
 7.64340690116923e-1 1e0 136 255 3 8 2 6 6 FFF2 252 253 254 135 256 1 134 257 0
 0 0 0 0 0 +255 256 137 258 176 0 1 260 270 261 -250 257 0 ?141 259 258 269 269
 250 133 260 175 0 278 236 258 0 +258 -2.38775368584090e-4 3.50042372736136e-2
 -1.15551146588450e-2 -4.99999999999997e-4 3.54159439094419e-2
 -1.12776529372196e-2 1e0 0e0 141 261 260 261 261 258 45 12 262
 6.10763353890771e0 9.98789663351532e-1 6.10709871792759e0 1.06207131770700e0
 6.10595036090179e0 1.18910747799940e0 6.10406373844189e0 1.37962154820767e0
 6.10273407587751e0 1.50697549623825e0 6.10206142960118e0 1.57079632679490e0
 127 4 263 4 1 1 4 128 4 264 0e0 3.29802847362278e-1 6.63999050384491e-1 1e0
 136 265 3 6 2 4 6 FFF2 262 263 264 135 266 1 134 267 0 0 0 0 0 0 +265 266 137
 268 180 0 1 270 310 271 -250 267 0 ?141 269 268 259 259 250 133 270 179 0 279
 258 268 0 +268 0e0 3.41696824294986e-2 -1.14911590474398e-2
 -2.38775368584090e-4 3.50042372736136e-2 -1.15551146588450e-2 1e0 0e0 141 271
 270 271 271 268 15 272 181 0 280 251 0 16 273 182 0 ?274 275 248 41 0 0 1 17
 274 272 280 276 98 292 273 0 121 +16 275 183 0 ?276 277 273 50 0 0 1 17 276
 272 274 278 104 364 275 0 0 +16 277 184 0 8.89926157966585e-7 353 285 275 0 0
 0 1 17 278 272 276 279 82 353 277 260 0 -17 279 272 278 280 80 245 244 270 247
 -17 280 272 279 274 78 121 120 0 245 -50 281 185 0 282 250 293 0 +2.5e-2
 2.96090691351321e-2 -8.36285183289533e-3 0e0 -2.71808661505907e-1
 -9.62351313985889e-1 0e0 9.62351313985889e-1 -2.71808661505907e-1 14 282 186 0
 ?251 294 283 51 281 -0 0 251 294 53 15 283 187 0 292 282 0 17 284 283 292 286
 98 119 118 0 274 +16 285 188 0 ?299 288 277 42 0 0 1 17 286 283 284 287 96 299
 285 0 119 -17 287 283 286 289 108 215 214 0 217 -16 288 189 0 ?323 290 285 44
 0 0 1 17 289 283 287 291 110 323 288 0 215 -16 290 190 0 ?361 326 288 47 0 0 1
 17 291 283 289 292 102 361 290 0 0 -17 292 283 291 284 104 274 273 0 276 -50
 293 191 0 294 281 300 0 +2.5e-2 2.49631599921253e-2 -1.79854082254352e-2 0e0
 9.00531956390201e-1 -4.34789829135914e-1 0e0 4.34789829135914e-1
 9.00531956390201e-1 14 294 192 0 ?282 301 295 51 293 -0 0 282 301 53 15 295
 193 0 299 294 0 17 296 295 299 297 96 117 116 0 286 +17 297 295 296 298 94 145
 144 0 139 -17 298 295 297 299 106 217 216 0 203 -17 299 295 298 296 108 286
 285 0 287 +54 300 194 0 301 293 330 309 +5.3e-4 0e0 0e0 1e0 0e0 0e0
 3.45088693457869e-2 2.93e-3 0e0 9.89751322387744e-1 -1.42801680073145e-1 14
 301 195 0 ?294 331 322 51 300 +0 0 294 331 53 45 10 302 6.10370209034505e0
 -9.19373376975661e-1 6.10445983062280e0 -8.72639522133956e-1
 6.10587129064692e0 -7.79127428346781e-1 6.10708043733807e0
 -6.85196191682361e-1 6.10763353890771e0 -6.38209496915037e-1 127 3 303 4 1 4
 128 3 304 0e0 5.00887220746089e-1 1e0 136 305 3 5 2 3 6 FFF2 302 303 304 135
 306 1 134 307 0 0 0 0 0 0 +305 306 137 308 199 0 1 310 320 311 -300 307 0 ?141
 309 308 319 319 300 133 310 198 0 325 268 308 0 +308 -1.21557190668395e-3
 3.50042372736136e-2 -1.15551146588450e-2 -1.8e-3 3.44115665004738e-2
 -1.15096956885695e-2 1e0 0e0 141 311 310 311 311 308 45 20 312
 6.10763353890771e0 -6.38209496915036e-1 6.10782620320068e0
 -6.22013990486130e-1 6.10833500902926e0 -5.91451630607553e-1
 6.10945332670027e0 -5.49108131573920e-1 6.11079025498888e0
 -5.12341401357900e-1 6.11231924537514e0 -4.81076822477071e-1
 6.11403020222221e0 -4.55909836822130e-1 6.11598896721335e0
 -4.38037274350142e-1 6.11744669529341e0 -4.33240738677442e-1
 6.11819476215207e0 -4.33219686980265e-1 127 8 313 4 1 1 1 1 1 1 4 128 8 314
 0e0 1.88729567859417e-1 3.59091189736061e-1 5.13557760710316e-1
 6.54325908488720e-1 7.81545989525495e-1 8.95041073048560e-1 1e0 136 315 3 10 2
 8 6 FFF2 312 313 314 135 316 1 134 317 0 0 0 0 0 0 +315 316 137 318 203 0 1
 320 340 321 -300 317 0 ?141 319 318 309 309 300 133 320 202 0 327 308 318 0 +
318 -6.99999999999999e-4 3.54159439094417e-2 -1.12776529372202e-2
 -1.21557190668395e-3 3.50042372736136e-2 -1.15551146588450e-2 1e0 0e0 141 321
 320 321 321 318 15 322 204 0 329 301 0 17 323 322 329 324 102 289 288 0 291 +
17 324 322 323 325 110 213 212 0 289 +17 325 322 324 327 90 249 248 310 241 +16
 326 205 0 4.81916659644736e-7 356 328 290 0 0 0 1 17 327 322 325 329 84 356
 326 320 249 -16 328 206 0 ?362 354 326 48 0 0 1 17 329 322 327 323 86 362 328
 0 0 -51 330 207 0 331 300 358 339 +-1.8e-3 3.50348014167613e-2
 -1.11562840768259e-2 1e0 0e0 0e0 4e-4 0e0 1e0 0e0 14 331 208 0 ?301 359 352 51
 330 +0 0 301 359 53 45 16 332 4.63590407228913e0 1.56122463141591e-3
 4.73672987292011e0 1.53621613732225e-3 4.92706139188389e0 1.48514001766118e-3
 5.20055398322212e0 1.41196878924919e-3 5.46112947019842e0 1.35122325164739e-3
 5.71764920317314e0 1.31017973790674e-3 5.89044681806691e0 1.29980838454711e-3
 5.97490323056332e0 1.3e-3 127 6 333 4 1 1 1 1 4 128 6 334 0e0
 2.35659309883243e-1 4.55376842115496e-1 6.53969315589552e-1
 8.34709594185203e-1 1e0 136 335 3 8 2 6 6 FFF2 332 333 334 135 336 1 134 337 0
 0 0 0 0 0 +335 336 137 338 212 0 1 340 350 341 -330 337 0 ?141 339 338 349 349
 330 133 340 211 0 353 318 338 0 +338 -4.99999999999997e-4 3.54159439094417e-2
 -1.12776529372202e-2 -2.38775368584093e-4 3.50042372736136e-2
 -1.15551146588450e-2 1e0 0e0 141 341 340 341 341 338 45 20 342
 5.97490323056332e0 1.10000000000001e-3 5.90568354364158e0 1.09994667801498e-3
 5.76964855449303e0 1.08717158841342e-3 5.58022359085297e0 1.03988139100971e-3
 5.40176436954499e0 9.74008860854165e-4 5.22378165100312e0 8.93381901770536e-4
 5.04069084894185e0 8.00359957824046e-4 4.84520166066509e0 6.95779379527423e-4
 4.70887297332922e0 6.22530496434439e-4 4.63590407228916e0 5.84428093316077e-4
 127 8 343 4 1 1 1 1 1 1 4 128 8 344 0e0 1.04958926951470e-1
 2.18454010474530e-1 3.45674091511311e-1 4.86442239289727e-1
 6.40908810263985e-1 8.11270432140629e-1 1e0 136 345 3 10 2 8 6 FFF2 342 343
 344 135 346 1 134 347 0 0 0 0 0 0 +345 346 137 348 216 0 1 350 0 351 -330 347
 0 ?141 349 348 339 339 330 133 350 215 0 356 338 348 0 +348
 -1.21557190668392e-3 3.50042372736137e-2 -1.15551146588450e-2
 -6.99999999999993e-4 3.54159439094417e-2 -1.12776529372202e-2 1e0 0e0 141 351
 350 351 351 348 15 352 217 0 357 331 0 17 353 352 357 355 80 278 277 340 279 +
16 354 218 0 ?355 0 328 49 0 0 1 17 355 352 353 356 82 363 354 0 278 +17 356
 352 355 357 86 327 326 350 329 +17 357 352 356 353 84 247 246 0 327 -51 358
 219 0 359 330 0 0 +0e0 0e0 0e0 1e0 0e0 0e0 3.71681925679621e-2 0e0 1e0 0e0 14
 359 220 0 ?331 0 360 51 358 +0 0 331 0 53 15 360 221 0 364 359 0 17 361 360
 364 362 104 291 290 0 292 +17 362 360 361 363 102 329 328 0 323 +17 363 360
 362 364 86 355 354 0 356 -17 364 360 363 361 82 276 275 0 355 -1 0 
