**ABCDEFGHIJKLMNOPQRSTUVWXYZabcdefghijklmnopqrstuvwxyz**************************
**PARASOLID !"#$%&'()*+,-./:;<=>?@[\]^_`{|}~0123456789**************************
**PART1;
MC=Unknown;
MC_MODEL=unknown;
MC_ID=LENOVOHN;
OS=windows_64;
OS_RELEASE=Build 9200 Service Pack 0.0;
FRU=PRO/INTERFACE BY PTC, 2024253;
APPL=PRO/ENGINEER BY PTC, 2024253;
SITE=;
USER=Serhii Alieksieiev;
FORMAT=text;
GUISE=transmit;
KEY=CHAIN_TAB_OUTER;
FILE=chain_tab.x_t;
DATE=12-28-2024;
**PART2;
SCH=SCH_1000149_10004;
USFLD_SIZE=0;
**PART3;
**END_OF_HEADER*****************************************************************
T51 : TRANSMIT FILE created by modeller version 100014917 SCH_1000149_100040 12
 1 126 5 7 0 0 0 0 1e3 1e-8 0 0 0 1 0 1 1 37 184 36 71 40 180 72 79 13 2 SDL/TYS
A_NAME80 1 3 0 2 8017 0 0 0 0 0 0 0 0 TTTTTTTTTTTTT3 84 15 4 CHAIN_TAB_OUTER81
 1 5 1 3 1 12 0 0 0 4 74 20 6 3 0 5 12 78 0 0 0 0 0 0 0 0 0 0 0 0 0 0 0 0 0 70
 7 0 1 0 0 4 3 20 4 6 6 1 T79 16 8 SDL/TYSA_DENSITY80 2 9 0 8 8004 0 0 0 0 3 5
 0 0 FFTFFFFFFFFFF2 3 83 1 10 6.99996342579086e3 84 7 11 KG/CU M81 2 12 2 9 1 0
 5 0 0 10 11 30 13 3 0 80 0 14 0 +0e0 -3.85e-3 -1.74015085552948e-3 0e0 0e0 1e0
 31 14 4 0 82 13 15 0 +0e0 0e0 0e0 1e0 0e0 0e0 0e0 -9.11242603550296e-1
 -4.11870024977393e-1 4.225e-3 31 15 5 0 84 14 16 0 +0e0 6.35e-3
 -1.49307777761241e-2 -1e0 0e0 0e0 0e0 -3.91371340523883e-1 9.20232836741082e-1
 1.2e-2 31 16 6 0 86 15 17 0 +0e0 1.27e-2 0e0 1e0 0e0 0e0 0e0
 -3.91371340523896e-1 -9.20232836741076e-1 4.225e-3 30 17 7 0 88 16 18 0 +0e0
 1.655e-2 1.74015085552949e-3 0e0 0e0 -1e0 31 18 8 0 90 17 19 0 +0e0 1.27e-2
 0e0 1e0 0e0 0e0 0e0 9.11242603550295e-1 4.11870024977394e-1 4.225e-3 30 19 9 0
 92 18 20 0 +0e0 1.27e-2 4.225e-3 0e0 -1e0 0e0 31 20 10 0 94 19 21 0 +0e0 0e0
 0e0 1e0 0e0 0e0 0e0 0e0 1e0 4.225e-3 30 21 11 0 101 20 22 0 +0e0 -3.85e-3
 1.74015085552948e-3 1e0 0e0 0e0 30 22 12 0 115 21 23 0 +0e0 0e0 4.225e-3 1e0
 0e0 0e0 30 23 13 0 125 22 24 0 +0e0 1.27e-2 4.225e-3 1e0 0e0 0e0 30 24 14 0
 136 23 25 0 +0e0 1.655e-2 1.74015085552949e-3 1e0 0e0 0e0 30 25 15 0 158 24 26
 0 +0e0 1.10464560862866e-2 -3.88798373523107e-3 1e0 0e0 0e0 30 26 16 0 146 25
 27 0 +0e0 1.655e-2 -1.74015085552949e-3 1e0 0e0 0e0 30 27 17 0 169 26 28 0 +
0e0 1.65354391371340e-3 -3.88798373523107e-3 1e0 0e0 0e0 30 28 18 0 105 27 29 0
 +0e0 -3.85e-3 -1.74015085552948e-3 1e0 0e0 0e0 30 29 19 0 103 28 30 0 +7.4e-4
 -3.85e-3 -1.74015085552948e-3 0e0 0e0 1e0 31 30 20 0 117 29 31 0 +7.4e-4 0e0
 0e0 1e0 0e0 0e0 0e0 0e0 1e0 4.225e-3 30 31 21 0 127 30 32 0 +7.4e-4 1.27e-2
 4.225e-3 0e0 -1e0 0e0 31 32 22 0 138 31 33 0 +7.4e-4 1.27e-2 0e0 1e0 0e0 0e0
 0e0 9.11242603550295e-1 4.11870024977394e-1 4.225e-3 30 33 23 0 148 32 34 0 +
7.4e-4 1.655e-2 1.74015085552949e-3 0e0 0e0 -1e0 31 34 24 0 160 33 35 0 +7.4e-4
 1.27e-2 0e0 1e0 0e0 0e0 0e0 -3.91371340523896e-1 -9.20232836741076e-1 4.225e-3
 31 35 25 0 171 34 36 0 +7.4e-4 6.35e-3 -1.49307777761241e-2 -1e0 0e0 0e0 0e0
 -3.91371340523883e-1 9.20232836741082e-1 1.2e-2 31 36 26 0 180 35 0 0 +7.4e-4
 0e0 0e0 1e0 0e0 0e0 0e0 -9.11242603550296e-1 -4.11870024977393e-1 4.225e-3 13
 37 27 0 1 0 185 0 0 38 0 19 38 126 0 1 0 40 37 S13 39 28 0 0 0 0 0 0 40 185 19
 40 29 0 1 38 0 39 V29 41 30 0 42 0 43 0e0 1.65354391371341e-3
 -3.88798373523107e-3 18 42 31 0 183 44 0 41 ?1 29 43 32 0 44 41 45 0e0
 1.10464560862866e-2 -3.88798373523107e-3 18 44 33 0 168 46 42 43 ?1 29 45 34 0
 46 43 47 7.4e-4 1.65354391371341e-3 -3.88798373523107e-3 18 46 35 0 196 48 44
 45 ?1 29 47 36 0 48 45 49 7.4e-4 1.10464560862866e-2 -3.88798373523107e-3 18
 48 37 0 195 50 46 47 ?1 29 49 38 0 50 47 51 0e0 -3.85e-3 -1.74015085552948e-3
 18 50 39 0 179 52 48 49 ?1 29 51 40 0 52 49 53 0e0 -3.85e-3
 1.74015085552949e-3 18 52 41 0 114 54 50 51 ?1 29 53 42 0 54 51 55 7.4e-4
 -3.85e-3 -1.74015085552948e-3 18 54 43 0 189 56 52 53 ?1 29 55 44 0 56 53 57
 7.4e-4 -3.85e-3 1.74015085552948e-3 18 56 45 0 190 58 54 55 ?1 29 57 46 0 58
 55 59 0e0 1.655e-2 -1.74015085552949e-3 18 58 47 0 157 60 56 57 ?1 29 59 48 0
 60 57 61 0e0 1.655e-2 1.74015085552949e-3 18 60 49 0 151 62 58 59 ?1 29 61 50
 0 62 59 63 0e0 1.27e-2 4.225e-3 18 62 51 0 135 64 60 61 ?1 29 63 52 0 64 61 65
 0e0 0e0 4.225e-3 18 64 53 0 124 66 62 63 ?1 29 65 54 0 66 63 67 7.4e-4
 1.655e-2 -1.74015085552949e-3 18 66 55 0 194 68 64 65 ?1 29 67 56 0 68 65 69
 7.4e-4 1.655e-2 1.74015085552949e-3 18 68 57 0 193 70 66 67 ?1 29 69 58 0 70
 67 71 7.4e-4 1.27e-2 4.225e-3 18 70 59 0 192 72 68 69 ?1 29 71 60 0 72 69 0
 7.4e-4 0e0 4.225e-3 18 72 61 0 191 0 70 71 ?1 50 73 62 0 74 0 96 0 +0e0 0e0
 0e0 1e0 0e0 0e0 0e0 1e0 0e0 14 74 63 78 ?0 97 79 37 73 -0 0 0 97 39 79 15 75 SD
L/TYSA_COLOUR80 1 76 0 75 8001 0 0 0 0 3 5 0 0 FFFFTFTFFFFFF2 83 3 77
 5.70707e-1 5.5644e-1 5.13639e-1 81 1 78 64 76 74 0 0 187 0 77 15 79 65 0 95 74
 0 16 80 66 0 ?81 82 0 13 0 0 1 17 81 79 95 83 52 107 80 0 0 +16 82 67 0 ?183
 84 80 14 0 0 1 17 83 79 81 85 50 183 82 0 0 -16 84 68 0 ?168 86 82 15 0 0 1 17
 85 79 83 87 42 168 84 0 0 -16 86 69 0 ?157 88 84 16 0 0 1 17 87 79 85 89 44
 157 86 0 0 -16 88 70 0 ?89 90 86 17 0 0 1 17 89 79 87 91 58 151 88 0 0 +16 90
 71 0 ?135 92 88 18 0 0 1 17 91 79 89 93 60 135 90 0 0 -16 92 72 0 ?124 94 90
 19 0 0 1 17 93 79 91 95 62 124 92 0 0 -16 94 73 0 ?114 101 92 20 0 0 1 17 95
 79 93 81 64 114 94 0 0 -50 96 74 0 97 73 108 0 +0e0 -3.85e-3
 -2.95510083273500e-3 0e0 1e0 0e0 0e0 0e0 1e0 14 97 75 99 ?74 109 100 37 96 -0
 0 74 109 39 83 3 98 5.70707e-1 5.5644e-1 5.13639e-1 81 1 99 76 76 97 0 0 0 111
 98 15 100 77 0 107 97 0 16 101 78 0 ?113 103 94 21 0 0 1 17 102 100 107 104 52
 113 101 0 81 -16 103 79 0 ?104 105 101 29 0 0 1 17 104 100 102 106 56 189 103
 0 0 +16 105 80 0 ?106 115 103 28 0 0 1 17 106 100 104 107 54 179 105 0 0 +17
 107 100 106 102 50 81 80 0 83 -51 108 81 0 109 96 119 0 +0e0 0e0 0e0 1e0 0e0
 0e0 4.225e-3 0e0 1e0 0e0 14 109 82 111 ?97 120 112 37 108 +0 0 97 120 39 83 3
 110 5.70707e-1 5.5644e-1 5.13639e-1 81 1 111 83 76 109 0 0 99 122 110 15 112
 84 0 118 109 0 17 113 112 118 114 56 102 101 0 104 +17 114 112 113 116 52 95
 94 0 102 +16 115 85 0 ?129 117 105 22 0 0 1 17 116 112 114 118 64 129 115 0 95
 -16 117 86 0 ?190 125 115 30 0 0 1 17 118 112 116 113 72 190 117 0 0 -50 119
 87 0 120 108 130 0 +0e0 1.27e-2 4.225e-3 0e0 0e0 1e0 0e0 -1e0 0e0 14 120 88
 122 ?109 131 123 37 119 +0 0 109 131 39 83 3 121 5.70707e-1 5.5644e-1
 5.13639e-1 81 1 122 89 76 120 0 0 111 133 121 15 123 90 0 129 120 0 17 124 123
 129 126 64 93 92 0 116 +16 125 91 0 ?140 127 117 23 0 0 1 17 126 123 124 128
 62 140 125 0 93 -16 127 92 0 ?191 136 125 31 0 0 1 17 128 123 126 129 70 191
 127 0 0 -17 129 123 128 124 72 116 115 0 118 +51 130 93 0 131 119 141 0 +0e0
 1.27e-2 0e0 1e0 0e0 0e0 4.225e-3 0e0 1e0 0e0 14 131 94 133 ?120 142 134 37 130
 +0 0 120 142 39 83 3 132 5.70707e-1 5.5644e-1 5.13639e-1 81 1 133 95 76 131 0
 0 122 144 132 15 134 96 0 140 131 0 17 135 134 140 137 62 91 90 0 126 +16 136
 97 0 ?150 138 127 24 0 0 1 17 137 134 135 139 60 150 136 0 91 -16 138 98 0 ?
192 146 136 32 0 0 1 17 139 134 137 140 68 192 138 0 0 -17 140 134 139 135 70
 126 125 0 128 +50 141 99 0 142 130 152 0 +0e0 1.655e-2 2.95510083273500e-3 0e0
 -1e0 0e0 0e0 0e0 -1e0 14 142 100 144 ?131 153 145 37 141 -0 0 131 153 39 83 3
 143 5.70707e-1 5.5644e-1 5.13639e-1 81 1 144 101 76 142 0 0 133 155 143 15 145
 102 0 151 142 0 16 146 103 0 ?162 148 138 26 0 0 1 17 147 145 151 149 58 162
 146 0 89 -16 148 104 0 ?149 158 146 33 0 0 1 17 149 145 147 150 66 193 148 0 0
 +17 150 145 149 151 68 137 136 0 139 +17 151 145 150 147 60 89 88 0 137 -51
 152 105 0 153 141 163 0 +0e0 1.27e-2 0e0 1e0 0e0 0e0 4.225e-3 0e0 1e0 0e0 14
 153 106 155 ?142 164 156 37 152 +0 0 142 164 39 83 3 154 5.70707e-1 5.5644e-1
 5.13639e-1 81 1 155 107 76 153 0 0 144 166 154 15 156 108 0 162 153 0 17 157
 156 162 159 58 87 86 0 147 +16 158 109 0 ?173 160 148 25 0 0 1 17 159 156 157
 161 44 173 158 0 87 -16 160 110 0 ?194 169 158 34 0 0 1 17 161 156 159 162 48
 194 160 0 0 -17 162 156 161 157 66 147 146 0 149 +51 163 111 0 164 152 174 0 +
0e0 6.35e-3 -1.49307777761241e-2 1e0 0e0 0e0 1.2e-2 0e0 1e0 0e0 14 164 112 166 ?
153 175 167 37 163 -0 0 153 175 39 83 3 165 5.70707e-1 5.5644e-1 5.13639e-1 81
 1 166 113 76 164 0 0 155 177 165 15 167 114 0 173 164 0 17 168 167 173 170 44
 85 84 0 159 +16 169 115 0 ?182 171 160 27 0 0 1 17 170 167 168 172 42 182 169
 0 85 -16 171 116 0 ?195 180 169 35 0 0 1 17 172 167 170 173 46 195 171 0 0 -17
 173 167 172 168 48 159 158 0 161 +51 174 117 0 175 163 184 0 +0e0 0e0 0e0 1e0
 0e0 0e0 4.225e-3 0e0 1e0 0e0 14 175 118 177 ?164 185 178 37 174 +0 0 164 185
 39 83 3 176 5.70707e-1 5.5644e-1 5.13639e-1 81 1 177 119 76 175 0 0 166 187
 176 15 178 120 0 183 175 0 17 179 178 183 181 50 106 105 0 107 -16 180 121 0 ?
196 0 171 36 0 0 1 17 181 178 179 182 54 196 180 0 106 -17 182 178 181 183 46
 170 169 0 172 +17 183 178 182 179 42 83 82 0 170 +50 184 122 0 185 174 0 0 +
7.4e-4 0e0 0e0 1e0 0e0 0e0 0e0 1e0 0e0 14 185 123 187 ?175 0 188 37 184 +0 0
 175 0 39 83 3 186 5.70707e-1 5.5644e-1 5.13639e-1 81 1 187 124 76 185 0 0 177
 78 186 15 188 125 0 196 185 0 17 189 188 196 190 54 104 103 0 181 -17 190 188
 189 191 56 118 117 0 113 +17 191 188 190 192 72 128 127 0 129 +17 192 188 191
 193 70 139 138 0 140 +17 193 188 192 194 68 149 148 0 150 -17 194 188 193 195
 66 161 160 0 162 +17 195 188 194 196 48 172 171 0 173 +17 196 188 195 189 46
 181 180 0 182 +1 0 
