**ABCDEFGHIJKLMNOPQRSTUVWXYZabcdefghijklmnopqrstuvwxyz**************************
**PARASOLID !"#$%&'()*+,-./:;<=>?@[\]^_`{|}~0123456789**************************
**PART1;
MC=Unknown;
MC_MODEL=unknown;
MC_ID=LENOVOHN;
OS=windows_64;
OS_RELEASE=Build 9200 Service Pack 0.0;
FRU=PRO/INTERFACE BY PTC, 2024253;
APPL=PRO/ENGINEER BY PTC, 2024253;
SITE=;
USER=Serhii Alieksieiev;
FORMAT=text;
GUISE=transmit;
KEY=PRT0002;
FILE=sprocket_main_conv.x_t;
DATE=01-19-2025;
**PART2;
SCH=SCH_1300120_13006;
USFLD_SIZE=0;
**PART3;
**END_OF_HEADER*****************************************************************
T51 : TRANSMIT FILE created by modeller version 130012017 SCH_1300120_130060 12
 1 105 5 7 0 0 0 0 1e3 1e-8 0 0 0 1 0 1 1 14 188 206 32 17 186 33 79 13 2 SDL/TY
SA_NAME80 1 3 0 2 8017 0 0 0 0 0 0 0 0 0 TTTTTTTTTTTTTT3 84 7 4 PRT000281 1 5 1
 3 1 0 0 0 0 4 74 20 6 1 0 5 0 0 0 0 0 0 0 0 0 0 0 0 0 0 0 0 0 0 0 70 7 0 1 0 0
 4 1 20 4 6 6 1 T30 8 2 0 106 0 9 0 +-1.675e-3 1.11807527784446e-2
 6.65439695622618e-2 0e0 3.61226639568243e-1 9.32478050608289e-1 31 9 3 0 108 8
 10 0 +-1.67999736439541e-3 6.31808536910583e-8 3.37987705712806e-7 1e0 0e0 0e0
 0e0 2.01738582241578e-1 9.79439403146085e-1 6.74799932420437e-2 30 10 4 0 110
 9 11 0 +-1.675e-3 1.36127365008597e-2 6.75491529825218e-2 0e0
 2.06760944941530e-4 -9.99999978624956e-1 31 11 5 0 154 10 12 0 +
-9.00000000000026e-4 6.31808536910583e-8 3.37987705712806e-7 -1e0 0e0 0e0 0e0
 1.59497126104784e-1 9.87198392808819e-1 6.54800000000043e-2 30 12 6 0 137 11
 13 0 +-9e-4 1.23102941128803e-2 6.94597169668276e-2 0e0 -3.61241666187141e-1
 -9.32472229404360e-1 30 13 7 0 158 12 51 0 +-9e-4 1.36127365005065e-2
 6.40497370878766e-2 0e0 1.00938343203073e-10 1e0 13 14 8 0 1 0 189 0 0 15 0 19
 15 105 0 1 0 17 14 S13 16 9 0 0 0 0 0 0 17 189 19 17 10 0 1 15 0 16 V29 18 11
 0 19 0 20 -9.00033990053615e-4 1.36127365010280e-2 6.92162869156246e-2 18 19
 12 0 214 21 0 18 3.39900536493386e-8 1 29 20 13 0 21 18 22
 -1.67568675796509e-3 1.36127365008597e-2 6.75491529825218e-2 18 21 14 0 211 23
 19 20 6.86757965772378e-7 1 29 22 15 0 23 20 24 -9e-4 1.23102941128803e-2
 6.94597169668276e-2 18 23 16 0 157 25 21 22 ?1 29 24 17 0 25 22 26
 -1.67568673738419e-3 1.17080701877991e-2 6.79051978219341e-2 18 25 18 0 136 27
 23 24 6.86737384879899e-7 1 29 26 19 0 27 24 28 -9.00000000000009e-4
 1.36127365005065e-2 6.40497370878766e-2 18 27 20 0 213 29 25 26 ?1 29 28 21 0
 29 26 30 -1.67634776629391e-3 1.36128871279317e-2 6.60872205819705e-2 18 29 22
 0 212 31 27 28 7.42524376194091e-6 1 29 30 23 0 31 28 32 -1.67618035056700e-3
 1.11797127620538e-2 6.65412849705340e-2 18 31 24 0 184 33 29 30
 5.76631188834687e-6 1 29 32 25 0 33 30 0 -9.00000000000009e-4
 1.04439349981956e-2 6.46420887488314e-2 18 33 26 0 185 0 31 32 ?1 45 273 34
 -8.28650581828758e-4 1.22303668692639e-2 6.95648062562840e-2
 -8.80221153570827e-4 1.22049373482982e-2 6.95056721457246e-2
 -9.62383962098335e-4 1.21616732091981e-2 6.94045634453290e-2
 -1.09709210826302e-3 1.20833400635118e-2 6.92208581835199e-2
 -1.22358251644686e-3 1.20010940196215e-2 6.90272573521750e-2
 -1.34152041328851e-3 1.19155059638959e-2 6.88254569616753e-2
 -1.43692984661705e-3 1.18392023585655e-2 6.86452979219234e-2
 -1.51085282444912e-3 1.17720084573793e-2 6.84865577625311e-2
 -1.56540372094120e-3 1.17187203140333e-2 6.83606989014723e-2
 -1.60967234903728e-3 1.16666952126433e-2 6.82380498043401e-2
 -1.67608229589159e-3 1.15812310649583e-2 6.80362039071823e-2
 -1.68688451693889e-3 1.15245436558164e-2 6.79037309067019e-2
 -1.65195011798897e-3 1.14971603391071e-2 6.78351332448336e-2
 -8.28509564592610e-4 1.23736752244676e-2 6.95398181250347e-2
 -8.80202311412685e-4 1.23512311049602e-2 6.94800096682152e-2
 -9.62476605519409e-4 1.23128905976791e-2 6.93779099446548e-2
 -1.09724091844674e-3 1.22431213226679e-2 6.91926600628319e-2
 -1.22368459473381e-3 1.21695488043492e-2 6.89976484471425e-2
 -1.34159559857201e-3 1.20928003687758e-2 6.87944464437318e-2
 -1.43697500694261e-3 1.20242552371594e-2 6.86131115768600e-2
 -1.51087804270243e-3 1.19638566927787e-2 6.84533787474633e-2
 -1.56544611670517e-3 1.19159766316698e-2 6.83267427757169e-2
 -1.60965603737505e-3 1.18694043511417e-2 6.82034081068185e-2
 -1.67608000293609e-3 1.17926369612710e-2 6.80003329152851e-2
 -1.68689161373428e-3 1.17424353900932e-2 6.78666788520317e-2
 -1.65193333706790e-3 1.17154240125680e-2 6.77978199852445e-2
 -8.28277357809382e-4 1.26230948550406e-2 6.94955226420492e-2
 -8.80181724756982e-4 1.26053596115200e-2 6.94346136615622e-2
 -9.62648924475753e-4 1.25749701316905e-2 6.93308492122753e-2
 -1.09751010559868e-3 1.25194890399525e-2 6.91429411404356e-2
 -1.22387137057079e-3 1.24608134487557e-2 6.89454233017061e-2
 -1.34173442538983e-3 1.23995132500773e-2 6.87396622820844e-2
 -1.43706025651344e-3 1.23447065590636e-2 6.85561243025102e-2
 -1.51092713888262e-3 1.22964007890298e-2 6.83944938148967e-2
 -1.56552350085979e-3 1.22581274167710e-2 6.82663375772044e-2
 -1.60962973428672e-3 1.22209880979113e-2 6.81417000008727e-2
 -1.67607675370198e-3 1.21596096266312e-2 6.79363138514471e-2
 -1.68690364958010e-3 1.21198454964252e-2 6.78006875749912e-2
 -1.65190377223724e-3 1.20969877334890e-2 6.77306826510771e-2
 -8.27960030097957e-4 1.29786311521154e-2 6.94303957365655e-2
 -8.80165159703038e-4 1.29670925591671e-2 6.93679446212516e-2
 -9.62906314477959e-4 1.29473879485672e-2 6.92618302189703e-2
 -1.09790472748472e-3 1.29116218820792e-2 6.90700696921530e-2
 -1.22414732125793e-3 1.28739648550609e-2 6.88688160582728e-2
 -1.34194078855618e-3 1.28347371244332e-2 6.86591323968163e-2
 -1.43718881889304e-3 1.27997416268183e-2 6.84721253076820e-2
 -1.51100262098710e-3 1.27689293220850e-2 6.83074333591412e-2
 -1.56563764337803e-3 1.27445262595938e-2 6.81767445361921e-2
 -1.60959440592570e-3 1.27207498463498e-2 6.80499672580785e-2
 -1.67607289675244e-3 1.26815526399049e-2 6.78409308695799e-2
 -1.68692048513306e-3 1.26557655508204e-2 6.77024826536280e-2
 -1.65186122843522e-3 1.26424827832487e-2 6.76299858146724e-2
 -8.27642642716260e-4 1.33339265318145e-2 6.93636101709217e-2
 -8.80148591534181e-4 1.33285774146726e-2 6.92995719933616e-2
 -9.63163752879808e-4 1.33195450768519e-2 6.91910290427391e-2
 -1.09829942357539e-3 1.33034707392458e-2 6.89952709376145e-2
 -1.22442332383479e-3 1.32868055127798e-2 6.87901164805311e-2
 -1.34214719052689e-3 1.32696139983183e-2 6.85762933382681e-2
 -1.43731740544730e-3 1.32543894049721e-2 6.83855810429294e-2
 -1.51107811728483e-3 1.32410262904468e-2 6.82175726222683e-2
 -1.56575180735931e-3 1.32304448844400e-2 6.80840765403437e-2
 -1.60955907092082e-3 1.32199885642347e-2 6.79549166010866e-2
 -1.67606903907798e-3 1.32029283465878e-2 6.77419702162330e-2
 -1.68693732385155e-3 1.31910966104810e-2 6.76005690594925e-2
 -1.65181867663352e-3 1.31873514423366e-2 6.75253710585305e-2
 -8.27410371212029e-4 1.35826910844284e-2 6.93154417647239e-2
 -8.80127996964700e-4 1.35820286242549e-2 6.92501766166529e-2
 -9.63336115745278e-4 1.35809144412068e-2 6.91397805589715e-2
 -1.09856868072264e-3 1.35790667180327e-2 6.89410131650833e-2
 -1.22461014783529e-3 1.35772295517342e-2 6.87329618580381e-2
 -1.34228605290784e-3 1.35753952818561e-2 6.85160702594194e-2
 -1.43740267651035e-3 1.35738097514164e-2 6.83226032527449e-2
 -1.51112722557174e-3 1.35724313615239e-2 6.81521016623226e-2
 -1.56582921150441e-3 1.35713392147027e-2 6.80164432476258e-2
 -1.60953276038605e-3 1.35702111178009e-2 6.78854060959510e-2
 -1.67606578882812e-3 1.35684315658166e-2 6.76695475007886e-2
 -1.68694936297935e-3 1.35669770736936e-2 6.75258352229233e-2
 -1.65178910396491e-3 1.35673153218095e-2 6.74491145547693e-2
 -8.27269281502784e-4 1.37254819666263e-2 6.92873188042279e-2
 -8.80109139527147e-4 1.37277892122092e-2 6.92212861739282e-2
 -9.63428796183188e-4 1.37315695448399e-2 6.91097288470874e-2
 -1.09871755444094e-3 1.37382349504426e-2 6.89091216235930e-2
 -1.22471226856636e-3 1.37450155198249e-2 6.86993383289547e-2
 -1.34236126877912e-3 1.37519482851100e-2 6.84806344386715e-2
 -1.43744785421007e-3 1.37580424365466e-2 6.82855510220404e-2
 -1.51115245272752e-3 1.37633738172311e-2 6.81135824118174e-2
 -1.56587162499781e-3 1.37675961440091e-2 6.79766330077042e-2
 -1.60951644004182e-3 1.37718368489548e-2 6.78444468783518e-2
 -1.67606349441230e-3 1.37786678743519e-2 6.76268767976548e-2
 -1.68695646323426e-3 1.37836501342110e-2 6.74817017015643e-2
 -1.65177231545575e-3 1.37843114829609e-2 6.74044684259447e-2 127 5 35 4 1 1 1
 4 128 5 36 -8.90647475483243e-2 2.5e-1 5e-1 7.5e-1 1.08922252527504e0 127 11
 37 4 1 1 1 1 1 1 1 1 1 4 128 11 38 -5.24584004281366e-2 6.25e-2 1.25e-1 2.5e-1
 3.75e-1 5e-1 6.25e-1 7.5e-1 8.75e-1 9.375e-1 1.04994568614283e0 126 39 FF3 3 7
 13 6 6 5 11 FFF2 3 34 35 37 36 38 125 40 -8.90647475483243e-2
 1.08922252527504e0 -5.24584004281366e-2 1.04994568614283e0 ??1 BBBB????????0 0
 0 0 124 41 27 0 42 0 92 50 +39 40 14 42 28 0 ?0 93 83 14 41 +0 0 0 93 16 45 4
 43 0e0 1e0 1e0 1e0 127 2 44 2 2 128 2 45 0e0 1e0 136 46 1 2 2 2 6 FFF2 43 44
 45 135 47 1 0 134 48 0 0 0 0 0 0 +46 47 137 49 32 0 1 51 61 52 -41 48 0 ?141
 50 49 80 60 41 133 51 31 0 85 13 49 0 +49 -1.67637351593017e-3
 1.36127365008597e-2 6.75491529825218e-2 -1.67637347476839e-3
 1.17080701877991e-2 6.79051978219341e-2 1e0 0e0 141 52 51 52 52 49 45 54 53
 1e0 1e0 9.99999998904345e-1 9.94106842836819e-1 9.99999865394972e-1
 9.81225991550723e-1 9.99999375756898e-1 9.60850165932954e-1
 9.99998772480481e-1 9.38429955911341e-1 9.99998443940112e-1
 9.14866795795386e-1 9.99998378128113e-1 8.90656638897509e-1
 9.99998510230706e-1 8.65474770027303e-1 9.99998802902015e-1
 8.38087730393253e-1 9.99999241380024e-1 8.07207961929567e-1
 9.99999795787817e-1 7.70589622282131e-1 1.00000022596541e0 7.27728767017810e-1
 1.00000031889830e0 6.80487699951804e-1 1.00000020405852e0 6.31261353431523e-1
 1.00000006231963e0 5.82808458374065e-1 9.99999942449494e-1 5.33659822744158e-1
 9.99999880734647e-1 4.82633285785100e-1 9.99999909715689e-1
 4.30094446440439e-1 9.99999982475146e-1 3.77587273448845e-1 1.00000005643278e0
 3.26151837185590e-1 9.99999958669868e-1 2.75677005912363e-1
 9.99999397081924e-1 2.25089612871996e-1 9.99998630505395e-1
 1.72880993713369e-1 1.00000023750943e0 1.17915257714507e-1 1.00000340548698e0
 6.03781563396937e-2 1.00000241374271e0 2.05726795229999e-2 1e0 0e0 127 25 54 4
 1 1 1 1 1 1 1 1 1 1 1 1 1 1 1 1 1 1 1 1 1 1 1 4 128 25 55 0e0
 2.18884352963918e-2 4.82865085558849e-2 7.72870526165431e-2
 1.07038570004555e-1 1.35895889077685e-1 1.62904307565650e-1
 1.87900173784416e-1 2.12712428278527e-1 2.39075597151852e-1
 2.67547055720037e-1 2.98519453759995e-1 3.31892298245619e-1
 3.67402289072592e-1 4.06136610869845e-1 4.50011697994155e-1
 4.98468534638360e-1 5.49529047805685e-1 6.02166108673062e-1
 6.56154452264673e-1 7.13878147714492e-1 7.78282013053899e-1
 8.48839064517422e-1 9.23451800316537e-1 1e0 136 56 3 27 2 25 6 FFF2 53 54 55
 135 57 1 0 134 58 0 0 0 0 0 0 +56 57 137 59 36 0 1 61 71 62 -41 58 0 ?141 60
 59 50 70 41 133 61 35 0 87 49 59 0 +59 -9.00050985080423e-4
 1.36127365010280e-2 6.92162869156246e-2 -1.67637351593017e-3
 1.36127365008597e-2 6.75491529825218e-2 1e0 0e0 141 62 61 62 62 59 45 12 63
 1e0 0e0 8.90643326489848e-1 -2.22942826779540e-5 6.70170180893796e-1
 -3.50577139515135e-5 3.36825303514652e-1 -8.57349155480324e-6
 1.12854007556291e-1 4.19657227113218e-6 0e0 0e0 127 4 64 4 1 1 4 128 4 65 0e0
 3.28088286213791e-1 6.61421602288854e-1 1e0 136 66 3 6 2 4 6 FFF2 63 64 65 135
 67 1 0 134 68 0 0 0 0 0 0 +66 67 137 69 40 0 1 71 81 72 -41 68 0 ?141 70 69 60
 80 41 133 71 39 0 89 59 69 0 +69 -9e-4 1.23102941128803e-2 6.94597169668276e-2
 -9.00050985080423e-4 1.36127365010280e-2 6.92162869156246e-2 1e0 0e0 141 72 71
 72 72 69 45 52 73 0e0 0e0 -2.33355428049168e-6 1.98438542888052e-2
 -3.48694694887715e-6 5.96965166549748e-2 -2.12663740366421e-7
 1.18114401742706e-1 1.44864082287020e-6 1.75143524901950e-1
 4.97363863873567e-7 2.28906139251271e-1 -3.76314988974551e-8
 2.80290659392406e-1 -8.27158754772275e-8 3.31352188433988e-1
 2.86602897223051e-8 3.83915285035557e-1 9.11932140010188e-8
 4.37673933960232e-1 9.56792854762260e-8 4.91174625224132e-1
 1.86798530121332e-8 5.43345336360326e-1 -9.28794854240462e-8
 5.95020777091967e-1 -2.18183592856100e-7 6.48970500005553e-1
 -2.36250741218474e-7 7.04464370827949e-1 7.96959787000583e-8
 7.55362024972675e-1 6.53206340100417e-7 7.98013958310343e-1
 1.13109768431615e-6 8.32189711115628e-1 1.47444757399619e-6
 8.61484833641851e-1 1.68558633971618e-6 8.88085617728332e-1
 1.70105727805555e-6 9.13267709286010e-1 1.39484490978325e-6
 9.37546936065677e-1 7.24610824303970e-7 9.60299236259275e-1
 1.60034945036730e-7 9.80891917175397e-1 1.67334036778416e-9
 9.93959925033106e-1 0e0 1e0 127 24 74 4 1 1 1 1 1 1 1 1 1 1 1 1 1 1 1 1 1 1 1
 1 1 1 4 128 24 75 0e0 7.28434240645293e-2 1.49683201520284e-1
 2.24156341597177e-1 2.90154863162228e-1 3.47904339019514e-1
 4.02330039897823e-1 4.55716222216972e-1 5.08352855502768e-1
 5.57251280558313e-1 6.00659626352371e-1 6.41129075754140e-1
 6.79935951754886e-1 7.17003533122165e-1 7.50929813110150e-1
 7.80371284852675e-1 8.07063622853063e-1 8.33251119439305e-1
 8.61165940105981e-1 8.91550335589081e-1 9.22295227578294e-1
 9.51529359310807e-1 9.77873865992034e-1 1e0 136 76 3 26 2 24 6 FFF2 73 74 75
 135 77 1 0 134 78 0 0 0 0 0 0 +76 77 137 79 44 0 1 81 102 82 -41 78 0 ?141 80
 79 70 50 41 133 81 43 0 91 69 79 0 +79 -1.67637347476839e-3
 1.17080701877991e-2 6.79051978219341e-2 -9e-4 1.23102941128803e-2
 6.94597169668276e-2 1e0 0e0 141 82 81 82 82 79 15 83 45 0 91 42 0 16 84 46 0
 1.37351621069014e-6 85 86 0 0 0 0 1 17 85 0 83 91 87 25 105 84 51 0 +16 86 47
 0 6.86757965771945e-7 87 88 84 0 0 0 1 17 87 0 83 85 89 21 214 86 61 0 +16 88
 48 0 5.09850804742789e-8 157 90 86 0 0 0 1 17 89 0 83 87 91 19 157 88 71 0 -16
 90 49 0 6.86737384877297e-7 91 106 88 0 0 0 1 17 91 0 83 89 85 23 136 90 81 0 +
50 92 50 0 93 41 112 101 +-1.675e-3 0e0 0e0 1e0 0e0 0e0 0e0 9.95734176295034e-1
 -9.22683594633024e-2 14 93 51 0 ?42 113 104 14 92 -0 0 42 113 16 45 12 94
 7.32201743797195e-3 6.85170250692191e-2 7.10791991804461e-3
 6.85398533368945e-2 6.67952456405547e-3 6.85835356642581e-2
 6.03636624387349e-3 6.86431333706429e-2 5.60725487878147e-3
 6.86789111812170e-2 5.39262442239172e-3 6.86958106480843e-2 127 4 95 4 1 1 4
 128 4 96 0e0 3.33347015654943e-1 6.66678346274354e-1 1e0 136 97 3 6 2 4 6 FFF2
 94 95 96 135 98 1 0 134 99 0 0 0 0 0 0 +97 98 137 100 55 0 1 102 122 103 -92
 99 0 ?141 101 100 101 101 92 133 102 54 0 105 79 100 0 +100 -1.675e-3
 1.17080701877991e-2 6.79051978219341e-2 -1.675e-3 1.36127365008597e-2
 6.75491529825218e-2 1e0 0e0 141 103 102 103 103 100 15 104 56 0 111 93 0 17
 105 0 104 111 107 21 85 84 102 87 -16 106 57 0 ?107 108 90 8 0 0 1 17 107 0
 104 105 109 25 135 106 0 85 +16 108 58 0 ?109 110 106 9 0 0 1 17 109 0 104 107
 111 31 183 108 0 0 +16 110 59 0 ?111 137 108 10 0 0 1 17 111 0 104 109 105 29
 211 110 0 0 +50 112 60 0 113 92 141 121 +-9e-4 1.24446645371730e-2
 6.98065670144111e-2 0e0 9.32472229404356e-1 -3.61241666187153e-1 0e0
 -3.61241666187153e-1 -9.32472229404356e-1 14 113 61 0 ?93 142 134 14 112 -0 0
 93 142 16 45 52 114 2.03906253990164e-3 7.75686737384195e-4
 2.02535262163530e-3 7.76691344338547e-4 1.99531180414854e-3
 7.76817541209176e-4 1.94736911242569e-3 7.71658413997595e-4
 1.89475409500819e-3 7.62015448081176e-4 1.84042337924654e-3
 7.48462563631344e-4 1.78752801561706e-3 7.32844618766084e-4
 1.73760429253139e-3 7.17176315522813e-4 1.68993652706255e-3
 7.01957703501512e-4 1.64154424893465e-3 6.85906593517688e-4
 1.58889678758913e-3 6.67478249270676e-4 1.53066527942512e-3
 6.45593404366541e-4 1.46758872242837e-3 6.20173157981724e-4
 1.40114991826496e-3 5.92282552692772e-4 1.33144694455019e-3
 5.62033303572029e-4 1.25658343543473e-3 5.28000508676907e-4
 1.17563458618516e-3 4.89187839642352e-4 1.08992378559688e-3
 4.46057131979330e-4 1.00193400020345e-3 3.99872859993500e-4
 9.12014233676842e-4 3.50586361397396e-4 8.16255856452355e-4
 2.95739752009729e-4 7.10988243718443e-4 2.32558598269752e-4
 5.97425983236988e-4 1.60291939795177e-4 4.82783579645188e-4
 8.19552084607570e-5 4.07956512601095e-4 2.72061259353807e-5
 3.71968233096970e-4 0e0 127 24 115 4 1 1 1 1 1 1 1 1 1 1 1 1 1 1 1 1 1 1 1 1 1
 1 4 128 24 116 0e0 2.21268332660161e-2 4.84713211087890e-2 7.77054319365955e-2
 1.08450301940813e-1 1.38834675696604e-1 1.66749476401920e-1
 1.92936954262006e-1 2.19629273175249e-1 2.49070723864771e-1
 2.82996979592746e-1 3.20064534453730e-1 3.58871382704460e-1
 3.99340803167321e-1 4.42749117920950e-1 4.91647508010195e-1
 5.44284103656599e-1 5.97670247800335e-1 6.52095909759943e-1
 7.09845344321725e-1 7.75843818692555e-1 8.50316905515176e-1
 9.27156628024344e-1 1e0 136 117 3 26 2 24 6 FFF2 114 115 116 135 118 1 0 134
 119 0 0 0 0 0 0 +117 118 137 120 65 0 1 122 132 123 -112 119 0 ?141 121 120
 131 131 112 133 122 64 0 136 100 120 0 +120 -9e-4 1.23102941128804e-2
 6.94597169668276e-2 -1.67568673738419e-3 1.17080701877991e-2
 6.79051978219341e-2 1e0 0e0 141 123 122 123 123 120 45 12 124
 5.53847943426552e-3 0e0 5.30914509573089e-3 8.74488578591551e-5
 4.85337074990640e-3 2.61397725234945e-4 4.17639448821221e-3
 5.19877538427434e-4 3.72866319954672e-3 6.90674298727491e-4
 3.50738144052123e-3 7.74996009033282e-4 127 4 125 4 1 1 4 128 4 126 0e0
 3.38706424290242e-1 6.73214343960431e-1 1e0 136 127 3 6 2 4 6 FFF2 124 125 126
 135 128 1 0 134 129 0 0 0 0 0 0 +127 128 137 130 69 0 1 132 151 133 -112 129 0
 ?141 131 130 121 121 112 133 132 68 0 140 120 130 0 +130 -1.67499600903328e-3
 1.11776522216452e-2 6.65360312231968e-2 -9e-4 1.04439349981956e-2
 6.46420887488314e-2 1e0 0e0 141 133 132 133 133 130 15 134 70 0 140 113 0 17
 135 0 134 140 136 31 107 106 0 109 -17 136 0 134 135 138 25 91 90 122 107 -16
 137 71 0 ?156 139 110 12 0 0 1 17 138 0 134 136 140 23 156 137 0 91 -16 139 72
 0 9.12613874629910e-6 140 154 137 0 0 0 1 17 140 0 134 138 135 33 184 139 132
 0 +50 141 73 0 142 112 160 150 +-9e-4 0e0 0e0 -1e0 0e0 0e0 0e0 0e0 -1e0 14 142
 74 0 ?113 161 153 14 141 -0 0 113 161 16 45 12 143 -6.94597169668276e-2
 -1.23102941128803e-2 -6.94336131797863e-2 -1.24575385357716e-2
 -6.93809266202610e-2 -1.27495904354521e-2 -6.92997940064098e-2
 -1.31837489288544e-2 -6.92442894468006e-2 -1.34705603102981e-2
 -6.92162869156246e-2 -1.36127365010280e-2 127 4 144 4 1 1 4 128 4 145 0e0
 3.38578398540996e-1 6.71911715212056e-1 1e0 136 146 3 6 2 4 6 FFF2 143 144 145
 135 147 1 0 134 148 0 0 0 0 0 0 +146 147 137 149 78 0 1 151 170 152 -141 148 0
 ?141 150 149 150 150 141 133 151 77 0 157 130 149 0 +149 -9e-4
 1.36127365010280e-2 6.92162869156246e-2 -9e-4 1.23102941128803e-2
 6.94597169668276e-2 1e0 0e0 141 152 151 152 152 149 15 153 79 0 159 142 0 16
 154 80 0 ?155 158 139 11 0 0 1 17 155 0 153 159 156 27 185 154 0 0 +17 156 0
 153 155 157 33 138 137 0 140 +17 157 0 153 156 159 23 89 88 151 138 +16 158 81
 0 ?159 186 154 13 0 0 1 17 159 0 153 157 155 19 213 158 0 89 +52 160 82 0 161
 141 188 169 +-8.13878527346049e-4 6.31808536910583e-8 3.37987705712806e-7 -1e0
 0e0 0e0 6.52591757111479e-2 9.31654555106780e-1 3.63345276491642e-1 0e0 0e0
 -1e0 14 161 83 0 ?142 189 182 14 160 -0 0 142 189 16 45 12 162
 3.30805821496694e0 8.64666515321681e-4 3.30738792439146e0 7.79084073729780e-4
 3.30602748169415e0 6.07036197645763e-4 3.30393414951398e0 3.47516974755649e-4
 3.30250202693390e0 1.73602685704378e-4 3.30177389058666e0 8.61214726539765e-5
 127 4 163 4 1 1 4 128 4 164 0e0 3.29598249545994e-1 6.62708642789295e-1 1e0
 136 165 3 6 2 4 6 FFF2 162 163 164 135 166 1 0 134 167 0 0 0 0 0 0 +165 166
 137 168 87 0 1 170 180 171 -160 167 0 ?141 169 168 179 179 160 133 170 86 0
 184 149 168 0 +168 -9.00000000000026e-4 1.04439349981954e-2
 6.46420887488314e-2 -1.67854504266773e-3 1.11807332860716e-2
 6.65438541261434e-2 1e0 0e0 141 171 170 171 171 168 45 14 172
 3.35101055241209e0 8.61214726539765e-5 3.35046800991222e0 1.51317248559527e-4
 3.34938887126392e0 2.82006041612851e-4 3.34779729642335e0 4.77764913294201e-4
 3.34624042973479e0 6.72238274660681e-4 3.34522451477842e0 8.01231642158576e-4
 3.34472531641694e0 8.65164771535667e-4 127 5 173 4 1 1 1 4 128 5 174 0e0
 2.51209781441715e-1 5.03490521736217e-1 7.53958058537720e-1 1e0 136 175 3 7 2
 5 6 FFF2 172 173 174 135 176 1 0 134 177 0 0 0 0 0 0 +175 176 137 178 91 0 1
 180 198 181 -160 177 0 ?141 179 178 169 169 160 133 180 90 0 187 168 178 0 +
178 -1.67904329888172e-3 1.36128869417304e-2 6.60905064518953e-2
 -9.00000000000026e-4 1.36127365005064e-2 6.40497370878766e-2 1e0 0e0 141 181
 180 181 181 178 15 182 92 0 187 161 0 17 183 0 182 187 184 29 109 108 0 111 -
17 184 0 182 183 185 31 140 139 170 135 -17 185 0 182 184 187 33 155 154 0 156 -
16 186 93 0 1.13330891866950e-5 212 0 158 0 0 0 1 17 187 0 182 185 183 27 212
 186 180 155 -50 188 94 0 189 160 0 197 +-9e-4 1.36127365007127e-2
 6.60930420108229e-2 0e0 -1e0 1.00938146729845e-10 0e0 1.00938146729845e-10 1e0
 14 189 95 0 ?161 0 210 14 188 -0 0 161 0 16 45 14 190 -1.31217769448878e-5
 7.75e-4 -1.76949401787349e-4 7.12415386704144e-4 -5.11151839662114e-4
 5.84769836123435e-4 -1.01698183280383e-3 3.91643034768020e-4
 -1.52987817728594e-3 1.95884497916087e-4 -1.87240313596530e-3
 6.51958894667503e-5 -2.04330492294633e-3 0e0 127 5 191 4 1 1 1 4 128 5 192 0e0
 2.42110221110148e-1 4.93883889681528e-1 7.47480216686041e-1 1e0 136 193 3 7 2
 5 6 FFF2 190 191 192 135 194 1 0 134 195 0 0 0 0 0 0 +193 194 137 196 99 0 1
 198 208 199 -188 195 0 ?141 197 196 207 207 188 133 198 98 0 212 178 196 0 +
196 -9e-4 1.36127365005065e-2 6.40497370878766e-2 -1.675e-3 1.36127365007114e-2
 6.60799202338780e-2 1e0 0e0 141 199 198 199 199 196 45 54 200
 3.12324490480174e-3 5.09850804230773e-8 3.08541419372565e-3
 2.86266347752021e-5 3.00979751106809e-3 8.38526846103917e-5
 2.89632989949672e-3 1.61233364561899e-4 2.78683314129255e-3
 2.30963303230369e-4 2.68456507351043e-3 2.92483263019385e-4
 2.58997401352465e-3 3.46808100624211e-4 2.50078266764222e-3
 3.95865579771486e-4 2.41437771816874e-3 4.41391990493191e-4
 2.33028092068014e-3 4.83920951283942e-4 2.25030459263035e-3
 5.22542996397292e-4 2.17650508279563e-3 5.56360859337664e-4
 2.10947983057684e-3 5.85681765197255e-4 2.04808528856460e-3
 6.11627771518540e-4 1.99087739507770e-3 6.35125647062309e-4
 1.93730730191331e-3 6.55987151523058e-4 1.88737951147627e-3
 6.74203715987180e-4 1.84071794326480e-3 6.90208876421042e-4
 1.79589697845337e-3 7.04929375921041e-4 1.75056277537593e-3
 7.19359081902823e-4 1.70279065291738e-3 7.34389794899430e-4
 1.65190755106427e-3 7.49333257471719e-4 1.59921471738132e-3
 7.62404154034203e-4 1.54729739727525e-3 7.71833022947231e-4
 1.49959950055526e-3 7.76858851215630e-4 1.46967205972961e-3
 7.76684144043546e-4 1.45611097169889e-3 7.75686757965086e-4 127 25 201 4 1 1 1
 1 1 1 1 1 1 1 1 1 1 1 1 1 1 1 1 1 1 1 1 4 128 25 202 0e0 7.65481083794936e-2
 1.51160755183191e-1 2.21717722488755e-1 2.86121511009517e-1
 3.43845137608548e-1 3.97833416804799e-1 4.50470414888544e-1
 5.01530867152701e-1 5.49987645999305e-1 5.93862680790975e-1
 6.32596956387303e-1 6.68106904859212e-1 7.01479709538899e-1
 7.32452070636101e-1 7.60923495244534e-1 7.87286632672814e-1
 8.12098857571727e-1 8.37094693976311e-1 8.64103080249622e-1
 8.92960364902758e-1 9.22711846804216e-1 9.51712356274025e-1
 9.78110398046841e-1 1e0 136 203 3 27 2 25 6 FFF2 200 201 202 135 204 1 0 134
 205 0 0 0 0 0 0 +203 204 137 206 103 0 1 208 0 209 -188 205 0 ?141 207 206 197
 197 188 133 208 102 0 214 196 206 0 +206 -1.67568675796509e-3
 1.36127365008597e-2 6.75491529825218e-2 -9.00050985080423e-4
 1.36127365010280e-2 6.92162869156246e-2 1e0 0e0 141 209 208 209 209 206 15 210
 104 0 214 189 0 17 211 0 210 214 212 21 111 110 0 105 -17 212 0 210 211 213 29
 187 186 198 183 +17 213 0 210 212 214 27 159 158 0 187 -17 214 0 210 213 211
 19 87 86 208 159 -1 0 
