**ABCDEFGHIJKLMNOPQRSTUVWXYZabcdefghijklmnopqrstuvwxyz**************************
**PARASOLID !"#$%&'()*+,-./:;<=>?@[\]^_`{|}~0123456789**************************
**PART1;
MC=Unknown;
MC_MODEL=unknown;
MC_ID=LENOVOHN;
OS=windows_64;
OS_RELEASE=Build 9200 Service Pack 0.0;
FRU=PRO/INTERFACE BY PTC, 2024253;
APPL=PRO/ENGINEER BY PTC, 2024253;
SITE=;
USER=Serhii Alieksieiev;
FORMAT=text;
GUISE=transmit;
KEY=SPROCKET_UPPER_SIMPLE;
FILE=sprocket_upper_segment.x_t;
DATE=11-17-2024;
**PART2;
SCH=SCH_1000149_10004;
USFLD_SIZE=0;
**PART3;
**END_OF_HEADER*****************************************************************
T51 : TRANSMIT FILE created by modeller version 100014917 SCH_1000149_100040 12
 1 459 5 7 0 0 0 0 1e3 1e-8 0 0 0 1 0 1 1 101 803 811 205 104 794 206 79 13 2 SD
L/TYSA_NAME80 1 3 0 2 8017 0 0 0 0 0 0 0 0 TTTTTTTTTTTTT3 84 21 4 SPROCKET_UPPER
_SIMPLE81 1 5 1 3 1 12 0 0 0 4 74 20 6 2 0 5 12 0 0 0 0 0 0 0 0 0 0 0 0 0 0 0 0
 0 0 70 7 0 1 0 0 4 2 20 4 6 6 1 T79 16 8 SDL/TYSA_DENSITY80 2 9 0 8 8004 0 0 0
 0 3 5 0 0 FFTFFFFFFFFFF2 3 83 1 10 7.84995898463689e3 84 7 11 KG/CU M81 2 12 2
 9 1 0 5 0 0 10 11 31 13 3 0 210 0 14 0 +-9.74999999999740e-4 0e0 0e0 1e0 0e0
 0e0 0e0 1.03788549822905e-1 9.94599385142409e-1 2.96261690434598e-2 31 14 4 0
 212 13 15 0 +-9.74999999999741e-4 6.11303828197990e-3 3.16643403993958e-2 1e0
 0e0 0e0 0e0 -9.52810208527768e-1 -3.03566642642552e-1 3.75e-3 31 15 5 0 214 14
 16 0 +-9.74999999999948e-4 1.13534944288830e-2 3.33339569339285e-2 1e0 0e0 0e0
 0e0 -9.95083885372443e-1 -9.90356555594156e-2 9.25e-3 31 16 6 0 216 15 17 0 +
-9.74999999999724e-4 0e0 0e0 -1e0 0e0 0e0 0e0 2.60321362369135e-2
 9.99661106517075e-1 3.24890261863176e-2 30 17 7 0 218 16 18 0 +
-9.74999999999740e-4 0e0 2.96261690434598e-2 0e0 2.84325391762901e-1
 9.58727840212681e-1 30 18 8 0 243 17 19 0 +8.75000000000362e-4 0e0
 2.96261690434598e-2 1e0 0e0 0e0 30 19 9 0 245 18 20 0 +-8.74999999998960e-4
 0e0 2.96261690434598e-2 1e0 0e0 0e0 30 20 10 0 224 19 21 0 +
-9.74999999999738e-4 0e0 2.96261690434598e-2 1e0 0e0 0e0 31 21 11 0 260 20 22 0
 +8.75000000000362e-4 0e0 0e0 -1e0 0e0 0e0 0e0 0e0 1e0 2.96261690434598e-2 31
 22 12 0 256 21 23 0 +9.75000000000157e-4 0e0 0e0 1e0 0e0 0e0 0e0
 1.03788549822905e-1 9.94599385142409e-1 2.96261690434598e-2 30 23 13 0 251 22
 24 0 +9.75000000000156e-4 0e0 2.96261690434598e-2 0e0 2.84325391762900e-1
 9.58727840212682e-1 31 24 14 0 270 23 25 0 +9.75000000000156e-4
 6.11303828197990e-3 3.16643403993958e-2 -1e0 0e0 0e0 0e0 -8.10181642706923e-1
 -5.86178902572169e-1 3.75e-3 30 25 15 0 268 24 26 0 +9.75000000000155e-4
 8.45758755886941e-4 3.24780158670764e-2 4.66440032966058e-14
 6.55474810736518e-1 -7.55217036678812e-1 31 26 16 0 403 25 32 0 +
-1.49999999999886e-4 0e0 0e0 -1e0 0e0 0e0 0e0 2.49828070688109e-2
 9.99687880966336e-1 3.55490261863170e-2 45 12 27 5.31145217101376e-4
 2.12704861055842e-3 3.26742618820138e-2 7.08104584464325e-4
 2.17900593527933e-3 3.19475906116879e-2 8.56524560405755e-4
 2.31527273161507e-3 3.12313211029643e-2 9.75000000000298e-4
 2.54000000000045e-3 3.05259654894871e-2 127 2 28 4 4 128 2 29 0e0 1e0 136 30 3
 4 3 2 6 FFF2 27 28 29 135 31 1 134 32 17 0 293 26 33 0 +30 31 30 33 18 0 419
 32 39 0 +-9.06412724342857e-4 2.12704861055841e-3 3.26742618820140e-2 1e0 0e0
 0e0 45 12 34 2.90540021670167e-5 1.47200000000051e-3 3.53209379630986e-2
 1.40949485907727e-4 1.84695259960973e-3 3.44672917413718e-2
 3.09493750428452e-4 2.06196916661381e-3 3.35844581335999e-2
 5.31145217101344e-4 2.12704861055852e-3 3.26742618820138e-2 127 2 35 4 4 128 2
 36 0e0 1e0 136 37 3 4 3 2 6 FFF2 34 35 36 135 38 1 134 39 19 0 291 33 40 0 +37
 38 30 40 20 0 439 39 46 0 +-2.03228334527472e-4 1.47200000000057e-3
 3.53209379630985e-2 1e0 0e0 0e0 45 15 41 6.80548720612286e-5
 1.16300000000049e-3 3.55299970981627e-2 4.66114973458176e-5
 1.23518073660122e-3 3.55276344130086e-2 2.19526252449387e-5
 1.35431567333194e-3 3.54832890506688e-2 2.00771800267606e-5
 1.44191940438352e-3 3.53894217843131e-2 2.90540021670905e-5
 1.47200000000034e-3 3.53209379630986e-2 127 3 42 4 1 4 128 3 43 0e0 5e-1 1e0
 136 44 3 5 3 3 6 FFF2 41 42 43 135 45 1 134 46 21 0 289 40 47 0 +44 45 30 47
 22 0 457 46 53 0 +-1.49999999999975e-4 1.16300000000035e-3 3.55299970981627e-2
 1e0 0e0 0e0 45 12 48 1.50000000000310e-4 8.88114462697100e-4
 3.55379306586160e-2 1.22595725973290e-4 9.79726623096504e-4
 3.55356412151087e-2 9.52806315317500e-5 1.07135512603928e-3
 3.55329969010651e-2 6.80548720612129e-5 1.16300000000049e-3
 3.55299970981627e-2 127 2 49 4 4 128 2 50 0e0 1e0 136 51 3 4 3 2 6 FFF2 48 49
 50 135 52 1 134 53 23 0 287 47 54 0 +51 52 30 54 24 0 258 53 55 0 +
9.75000000000157e-4 3.07485712182894e-3 2.94661695147502e-2 -1e0 0e0 0e0 30 55
 25 0 423 54 56 0 +-9.74999999999725e-4 2.54000000000047e-3 3.05259654894872e-2
 1e0 0e0 0e0 30 56 26 0 228 55 57 0 +-8.74999999998957e-4 3.07485712182894e-3
 2.94661695147502e-2 -1e0 0e0 0e0 31 57 27 0 495 56 58 0 +8.75000000000082e-4
 6.46970751743919e-3 3.15933944773992e-2 1e0 0e0 0e0 0e0 -2.00617143601767e-1
 -9.79669720718706e-1 3.75e-3 30 58 28 0 499 57 59 0 +8.75000000000081e-4
 1.13374440573799e-2 2.73710112059719e-2 0e0 -3.82683432365372e-1
 -9.23879532511170e-1 30 59 29 0 501 58 60 0 +8.75000000000081e-4
 1.09547606250146e-2 2.64471316734607e-2 0e0 -9.80785280403231e-1
 1.95090322016127e-1 30 60 30 0 503 59 61 0 +8.75000000000087e-4 0e0
 2.86261690434598e-2 0e0 0e0 1e0 31 61 31 0 481 60 62 0 +8.75000000000083e-4
 6.11303828197990e-3 3.16643403993958e-2 1e0 0e0 0e0 0e0 -8.10181642706924e-1
 -5.86178902572167e-1 3.75e-3 31 62 32 0 507 61 63 0 +8.75000000000292e-4 0e0
 0e0 1e0 0e0 0e0 0e0 2.00617143601821e-1 9.79669720718695e-1
 2.84990261863171e-2 30 63 33 0 513 62 64 0 +-8.74999999999735e-4
 5.71739322893224e-3 2.79196330247041e-2 1e0 0e0 0e0 30 64 34 0 517 63 65 0 +
-8.74999999998958e-4 8.43541732830266e-3 2.83998877935993e-2 -1e0 0e0 0e0 30 65
 35 0 521 64 66 0 +9.75000000000155e-4 8.75331911568231e-3 2.86188998869907e-2
 -1e0 0e0 0e0 30 66 36 0 525 65 67 0 +9.75000000000108e-4 8.43541732830266e-3
 2.83998877935993e-2 -1e0 0e0 0e0 30 67 37 0 490 66 68 0 +-8.74999999999973e-4
 5.40219841273913e-3 2.79823291717788e-2 1e0 0e0 0e0 31 68 38 0 488 67 69 0 +
-8.74999999999957e-4 6.11303828197990e-3 3.16643403993958e-2 -1e0 0e0 0e0 0e0
 -1.89557298464301e-1 -9.81869660697852e-1 3.75e-3 31 69 39 0 226 68 70 0 +
-8.74999999998958e-4 0e0 0e0 -1e0 0e0 0e0 0e0 0e0 1e0 2.96261690434598e-2 30 70
 40 0 540 69 71 0 +-8.74999999999953e-4 0e0 2.96261690434598e-2 0e0 0e0 -1e0 30
 71 41 0 542 70 72 0 +-8.74999999999959e-4 1.09547606250146e-2
 2.64471316734607e-2 0e0 -9.80785280403231e-1 1.95090322016126e-1 30 72 42 0
 544 71 73 0 +-8.74999999999959e-4 1.09547606250146e-2 2.64471316734607e-2 0e0
 3.82683432365372e-1 9.23879532511170e-1 31 73 43 0 546 72 74 0 +
-8.74999999998958e-4 0e0 0e0 -1e0 0e0 0e0 0e0 2.84728589644122e-1
 9.58608173467799e-1 2.96261690434598e-2 31 74 44 0 515 73 75 0 +
-8.74999999999958e-4 6.46970751743919e-3 3.15933944773992e-2 -1e0 0e0 0e0 0e0
 5.24189282896923e-1 -8.51601782346661e-1 3.75e-3 31 75 45 0 530 74 76 0 +
-8.74999999999959e-4 0e0 0e0 -1e0 0e0 0e0 0e0 1.89557298464196e-1
 9.81869660697873e-1 2.84990261863171e-2 30 76 46 0 554 75 77 0 +
-8.74999999999956e-4 0e0 2.86261690434598e-2 1e0 0e0 0e0 30 77 47 0 564 76 78 0
 +-8.74999999999959e-4 1.09547606250146e-2 2.64471316734607e-2 1e0 0e0 0e0 30
 78 48 0 570 77 79 0 +-8.74999999998960e-4 1.13374440573800e-2
 2.73710112059719e-2 1e0 0e0 0e0 30 79 49 0 587 78 80 0 +8.75000000000362e-4
 1.13374440573799e-2 2.73710112059719e-2 1e0 -8.67361737990196e-14
 3.46944695196078e-14 30 80 50 0 595 79 81 0 +-9.74999999999741e-4
 1.13374440573799e-2 2.73710112059719e-2 1e0 8.67361737981608e-14
 -3.46944695192643e-14 31 81 51 0 497 80 82 0 +8.75000000000362e-4 0e0 0e0 -1e0
 0e0 0e0 0e0 2.84728589644122e-1 9.58608173467799e-1 2.96261690434598e-2 31 82
 52 0 602 81 83 0 +9.75000000000155e-4 0e0 0e0 1e0 0e0 0e0 0e0
 3.82683432365102e-1 9.23879532511282e-1 2.96261690434598e-2 31 83 53 0 523 82
 84 0 +9.75000000000154e-4 6.46970751743919e-3 3.15933944773992e-2 -1e0 0e0 0e0
 0e0 6.08963092864816e-1 -7.93198557442283e-1 3.75e-3 31 84 54 0 611 83 85 0 +
9.75000000000153e-4 9.36228220854714e-3 2.78257013295484e-2 1e0 0e0 0e0 0e0
 -2.99914738136965e-1 9.53966010845374e-1 1e-3 31 85 55 0 613 84 86 0 +
9.75000000000155e-4 8.12968921523414e-3 3.17463216636175e-2 1e0 0e0 0e0 0e0
 2.99914738136962e-1 -9.53966010845375e-1 3.10981134495e-3 31 86 56 0 615 85 87
 0 +9.75000000000153e-4 1.45943805634068e-2 2.89837595006067e-2 1e0 0e0 0e0 0e0
 -9.14792408088616e-1 4.03924312345062e-1 3.92040799242755e-3 31 87 57 0 617 86
 88 0 +9.75000000000170e-4 0e0 0e0 1e0 0e0 0e0 0e0 4.06604301300666e-1
 9.13604368511774e-1 3.24890261863171e-2 30 88 58 0 589 87 89 0 +
9.75000000000154e-4 1.32101777924266e-2 2.96821162525126e-2 0e0
 -6.29571670619458e-1 -7.76942411992951e-1 31 89 59 0 632 88 90 0 +
-9.74999999999741e-4 0e0 0e0 1e0 0e0 0e0 0e0 3.82683432365102e-1
 9.23879532511282e-1 2.96261690434598e-2 30 90 60 0 593 89 91 0 +
-9.74999999999743e-4 1.32101777924270e-2 2.96821162525132e-2 0e0
 -6.29571670619456e-1 -7.76942411992953e-1 31 91 61 0 635 90 92 0 +
-9.74999999999726e-4 0e0 0e0 -1e0 0e0 0e0 0e0 3.38822746862142e-1
 9.40850225173376e-1 3.24890261863177e-2 31 92 62 0 637 91 93 0 +
-9.74999999999743e-4 1.45943805634068e-2 2.89837595006067e-2 1e0 0e0 0e0 0e0
 -9.14792408088554e-1 4.03924312345203e-1 3.92040799242755e-3 31 93 63 0 639 92
 94 0 +-9.74999999999742e-4 8.12968921523414e-3 3.17463216636175e-2 1e0 0e0 0e0
 0e0 2.99914738136950e-1 -9.53966010845378e-1 3.10981134495e-3 31 94 64 0 623
 93 95 0 +-9.74999999999743e-4 9.36228220854714e-3 2.78257013295484e-2 -1e0 0e0
 0e0 0e0 -6.08963092864781e-1 7.93198557442309e-1 1e-3 31 95 65 0 519 94 96 0 +
-9.74999999999742e-4 6.46970751743919e-3 3.15933944773992e-2 1e0 0e0 0e0 0e0
 5.24189282896923e-1 -8.51601782346661e-1 3.75e-3 31 96 66 0 675 95 97 0 +
-1.49999999999900e-4 0e0 0e0 -1e0 0e0 0e0 0e0 3.85483160394167e-1
 9.22714870939298e-1 3.55490261863170e-2 31 97 67 0 763 96 98 0 +
1.50000000000164e-4 0e0 0e0 1e0 0e0 0e0 0e0 4.05645093697538e-1
 9.14030665765167e-1 3.55490261863171e-2 30 98 68 0 790 97 99 0 +
-9.74999999999744e-4 1.09893397512083e-2 3.05243047188567e-2 1e0 0e0 0e0 30 99
 69 0 625 98 100 0 +9.75000000000155e-4 9.06236747041018e-3 2.87796673403938e-2
 -1e0 0e0 0e0 30 100 70 0 794 99 240 0 +1.50000000000111e-4 1.37035509632367e-2
 3.28016151095252e-2 -1e0 0e0 0e0 13 101 71 0 1 0 804 0 0 102 0 19 102 459 0 1
 0 104 101 S13 103 72 0 0 0 0 0 0 104 804 19 104 73 0 1 102 0 103 V29 105 74 0
 106 0 107 -2.03228334527554e-4 1.47200000000048e-3 3.53209379630985e-2 18 106
 75 0 460 108 0 105 ?1 29 107 76 0 108 105 109 2.90540021668852e-5
 1.47200000000047e-3 3.53209379630985e-2 18 108 77 0 456 110 106 107 ?1 29 109
 78 0 110 107 111 -8.74999999999962e-4 5.40219841273902e-3 2.79823291717789e-2
 18 110 79 0 538 112 108 109 ?1 29 111 80 0 112 109 113 8.75000000000182e-4
 5.40219841273919e-3 2.79823291717788e-2 18 112 81 0 534 114 110 111 ?1 29 113
 82 0 114 111 115 5.31145217101312e-4 2.12704861055843e-3 3.26742618820140e-2
 18 114 83 0 438 116 112 113 ?1 29 115 84 0 116 113 117 9.75000000000193e-4
 2.54000000000050e-3 3.05259654894871e-2 18 116 85 0 485 118 114 115 ?1 29 117
 86 0 118 115 119 8.75000000000219e-4 5.71739322893234e-3 2.79196330247041e-2
 18 118 87 0 533 120 116 117 ?1 29 119 88 0 120 117 121 -1.49999999999918e-4
 1.16300000000035e-3 3.55299970981627e-2 18 120 89 0 476 122 118 119 ?1 29 121
 90 0 122 119 123 -9.06412724342896e-4 2.12704861055846e-3 3.26742618820140e-2
 18 122 91 0 442 124 120 121 ?1 29 123 92 0 124 121 125 -8.74999999999888e-4
 5.71739322893254e-3 2.79196330247040e-2 18 124 93 0 549 126 122 123 ?1 29 125
 94 0 126 123 127 -9.74999999999852e-4 2.14896848918797e-3 3.24178771200037e-2
 18 126 95 0 422 128 124 125 ?1 29 127 96 0 128 125 129 -9.74999999999803e-4
 2.54000000000054e-3 3.05259654894869e-2 18 128 97 0 486 130 126 127 ?1 29 129
 98 0 130 127 131 6.80548720612943e-5 1.16300000000040e-3 3.55299970981627e-2
 18 130 99 0 477 132 128 129 ?1 29 131 100 0 132 129 133 1.50000000000129e-4
 1.37035509632367e-2 3.28016151095252e-2 18 132 101 0 818 134 130 131 ?1 29 133
 102 0 134 131 135 9.75000000000150e-4 1.10080210953242e-2 3.05673076030601e-2
 18 134 103 0 789 136 132 133 ?1 29 135 104 0 136 133 137 -1.49999999999905e-4
 1.37035509632367e-2 3.28016151095252e-2 18 136 105 0 819 138 134 135 ?1 29 137
 106 0 138 135 139 -9.74999999999743e-4 1.10080210953244e-2 3.05673076030607e-2
 18 138 107 0 793 140 136 137 ?1 29 139 108 0 140 137 141 -9.74999999999743e-4
 1.09893397512083e-2 3.05243047188567e-2 18 140 109 0 801 142 138 139 ?1 29 141
 110 0 142 139 143 9.75000000000153e-4 1.09893397512083e-2 3.05243047188566e-2
 18 142 111 0 802 144 140 141 ?1 29 143 112 0 144 141 145 -9.74999999999742e-4
 8.75331911568233e-3 2.86188998869907e-2 18 144 113 0 642 146 142 143 ?1 29 145
 114 0 146 143 147 -9.74999999999742e-4 9.06236747041017e-3 2.87796673403938e-2
 18 146 115 0 800 148 144 145 ?1 29 147 116 0 148 145 149 9.75000000000154e-4
 9.06236747041018e-3 2.87796673403938e-2 18 148 117 0 799 150 146 147 ?1 29 149
 118 0 150 147 151 9.75000000000154e-4 8.75331911568229e-3 2.86188998869907e-2
 18 150 119 0 628 152 148 149 ?1 29 151 120 0 152 149 153 9.75000000000154e-4
 1.32101777924266e-2 2.96821162525126e-2 18 152 121 0 760 154 150 151 ?1 29 153
 122 0 154 151 155 1.50000000000151e-4 1.44202880582050e-2 3.24929000723827e-2
 18 154 123 0 817 156 152 153 ?1 29 155 124 0 156 153 157 -9.74999999999777e-4
 8.45758755886978e-4 3.24780158670762e-2 18 156 125 0 396 158 154 155 ?1 29 157
 126 0 158 155 159 -1.49999999999903e-4 8.88114462697089e-4 3.55379306586160e-2
 18 158 127 0 475 160 156 157 ?1 29 159 128 0 160 157 161 -1.49999999999918e-4
 1.44202880582050e-2 3.24929000723827e-2 18 160 129 0 816 162 158 159 ?1 29 161
 130 0 162 159 163 -9.74999999999788e-4 1.32101777924268e-2 2.96821162525129e-2
 18 162 131 0 735 164 160 161 ?1 29 163 132 0 164 161 165 1.50000000000265e-4
 8.88114462697094e-4 3.55379306586160e-2 18 164 133 0 474 166 162 163 ?1 29 165
 134 0 166 163 167 9.75000000000196e-4 8.45758755886957e-4 3.24780158670761e-2
 18 166 135 0 351 168 164 165 ?1 29 167 136 0 168 165 169 -9.74999999999737e-4
 3.07485712182893e-3 2.94661695147502e-2 18 168 137 0 487 170 166 167 ?1 29 169
 138 0 170 167 171 -9.74999999999773e-4 0e0 2.96261690434598e-2 18 170 139 0
 248 172 168 169 ?1 29 171 140 0 172 169 173 -9.74999999999742e-4
 1.13374440573799e-2 2.73710112059719e-2 18 172 141 0 646 174 170 171 ?1 29 173
 142 0 174 171 175 -9.74999999999741e-4 8.43541732830266e-3 2.83998877935992e-2
 18 174 143 0 647 176 172 173 ?1 29 175 144 0 176 173 177 9.75000000000157e-4
 3.07485712182894e-3 2.94661695147502e-2 18 176 145 0 484 178 174 175 ?1 29 177
 146 0 178 175 179 9.75000000000162e-4 0e0 2.96261690434598e-2 18 178 147 0 267
 180 176 177 ?1 29 179 148 0 180 177 181 9.75000000000139e-4
 8.43541732830266e-3 2.83998877935992e-2 18 180 149 0 610 182 178 179 ?1 29 181
 150 0 182 179 183 8.75000000000269e-4 8.43541732830266e-3 2.83998877935992e-2
 18 182 151 0 601 184 180 181 ?1 29 183 152 0 184 181 185 -8.74999999999291e-4
 8.43541732830265e-3 2.83998877935992e-2 18 184 153 0 648 186 182 183 ?1 29 185
 154 0 186 183 187 8.75000000000270e-4 3.07485712182894e-3 2.94661695147502e-2
 18 186 155 0 506 188 184 185 ?1 29 187 156 0 188 185 189 -8.74999999999290e-4
 3.07485712182894e-3 2.94661695147502e-2 18 188 157 0 539 190 186 187 ?1 29 189
 158 0 190 187 191 9.75000000000154e-4 1.13374440573799e-2 2.73710112059719e-2
 18 190 159 0 609 192 188 189 ?1 29 191 160 0 192 189 193 8.75000000000292e-4
 1.13374440573799e-2 2.73710112059719e-2 18 192 161 0 605 194 190 191 ?1 29 193
 162 0 194 191 195 -8.74999999999209e-4 1.13374440573799e-2 2.73710112059719e-2
 18 194 163 0 649 196 192 193 ?1 29 195 164 0 196 193 197 8.75000000000293e-4
 0e0 2.96261690434598e-2 18 196 165 0 553 198 194 195 ?1 29 197 166 0 198 195
 199 -8.74999999999208e-4 0e0 2.96261690434598e-2 18 198 167 0 557 200 196 197 ?
1 29 199 168 0 200 197 201 8.75000000000081e-4 1.09547606250146e-2
 2.64471316734607e-2 18 200 169 0 569 202 198 199 ?1 29 201 170 0 202 199 203
 8.75000000000085e-4 0e0 2.86261690434598e-2 18 202 171 0 563 204 200 201 ?1 29
 203 172 0 204 201 205 -8.74999999999955e-4 0e0 2.86261690434598e-2 18 204 173
 0 562 206 202 203 ?1 29 205 174 0 206 203 0 -8.74999999999959e-4
 1.09547606250146e-2 2.64471316734607e-2 18 206 175 0 573 0 204 205 ?1 50 207
 176 0 208 0 220 0 +-9.74999999999726e-4 0e0 0e0 1e0 0e0 0e0 0e0 -1e0
 1.09356967925578e-14 14 208 177 0 ?0 221 209 101 207 -0 0 0 221 103 15 209 178
 0 219 208 0 16 210 179 0 ?211 212 0 13 0 0 1 17 211 209 219 213 170 223 210 0
 0 +16 212 180 0 ?213 214 210 14 0 0 1 17 213 209 211 215 168 486 212 0 0 +16
 214 181 0 ?215 216 212 15 0 0 1 17 215 209 213 217 128 422 214 0 0 +16 216 182
 0 ?217 218 214 16 0 0 1 17 217 209 215 219 126 396 216 0 0 +16 218 183 0 ?219
 224 216 17 0 0 1 17 219 209 217 211 156 248 218 0 0 +51 220 184 0 221 207 230
 0 +0e0 0e0 0e0 1e0 0e0 0e0 2.96261690434598e-2 0e0 0e0 1e0 14 221 185 0 ?208
 231 222 101 220 -0 0 208 231 103 15 222 186 0 229 221 0 17 223 222 229 225 168
 211 210 0 213 -16 224 187 0 ?247 226 218 20 0 0 1 17 225 222 223 227 170 247
 224 0 211 -16 226 188 0 ?539 228 224 69 0 0 1 17 227 222 225 229 198 539 226 0
 0 -16 228 189 0 ?487 243 226 56 0 0 1 17 229 222 227 223 188 487 228 0 0 -50
 230 190 0 231 220 253 239 +-2.5e-2 0e0 2.96261690434598e-2 0e0
 9.58727840212681e-1 -2.84325391762901e-1 0e0 2.84325391762901e-1
 9.58727840212681e-1 14 231 191 0 ?221 254 242 101 230 -0 0 221 254 103 45 4
 232 2.97461563542737e-3 2.40250000000003e-2 2.97461563542728e-3
 2.59750000000002e-2 127 2 233 2 2 128 2 234 0e0 1e0 136 235 1 2 2 2 6 FFF2 232
 233 234 135 236 1 134 237 0 0 0 0 0 0 +235 236 137 238 195 0 1 240 282 241 -
230 237 0 ?141 239 238 239 239 230 133 240 194 0 250 100 238 0 +238
 9.75000000000156e-4 8.45758755886912e-4 3.24780158670759e-2
 -9.74999999999740e-4 8.45758755886939e-4 3.24780158670760e-2 1e0 0e0 141 241
 240 241 241 238 15 242 196 0 252 231 0 16 243 197 0 ?244 245 228 18 0 0 1 17
 244 242 252 246 178 262 243 0 0 +16 245 198 0 ?246 249 243 19 0 0 1 17 246 242
 244 247 196 557 245 0 0 +17 247 242 246 248 198 225 224 0 227 +17 248 242 247
 250 170 219 218 0 225 -16 249 199 0 5e-9 351 251 245 0 0 0 1 17 250 242 248
 252 156 351 249 240 219 -16 251 200 0 ?252 256 249 23 0 0 1 17 252 242 250 244
 166 267 251 0 0 +51 253 201 0 254 230 263 0 +0e0 0e0 0e0 1e0 0e0 0e0
 2.96261690434598e-2 0e0 0e0 1e0 14 254 202 0 ?231 264 255 101 253 -0 0 231 264
 103 15 255 203 0 262 254 0 16 256 204 0 ?257 258 251 22 0 0 1 17 257 255 262
 259 178 266 256 0 244 +16 258 205 0 ?483 260 256 54 0 0 1 17 259 255 257 261
 176 483 258 0 0 -16 260 206 0 ?261 268 258 21 0 0 1 17 261 255 259 262 186 505
 260 0 0 +17 262 255 261 257 196 244 243 0 246 -50 263 207 0 264 253 272 0 +
9.75000000000170e-4 0e0 0e0 1e0 0e0 0e0 0e0 -1e0 1.09356967925578e-14 14 264
 208 0 ?254 273 265 101 263 +0 0 254 273 103 15 265 209 0 271 264 0 17 266 265
 271 267 176 257 256 0 259 -17 267 265 266 269 178 252 251 0 257 -16 268 210 0 ?
295 270 260 25 0 0 1 17 269 265 267 271 166 295 268 0 252 -16 270 211 0 ?271
 285 268 24 0 0 1 17 271 265 269 266 116 484 270 0 0 +50 272 212 0 273 263 302
 281 +8.46510760710251e-3 2.58833926151528e-3 2.24649485533987e-3
 9.26911560124485e-1 2.83417730095907e-1 2.45986483317430e-1
 -2.92402299922007e-1 9.56295401536743e-1 -1.07729679235175e-14 14 273 213 0 ?
264 304 284 101 272 +0 0 264 304 103 45 12 274 5.23702966639773e-4
 3.11898845248002e-2 5.54982122809270e-4 3.15403758555083e-2
 6.17565289513699e-4 3.22416356954103e-2 7.11477461868091e-4
 3.32939412104230e-2 7.74110501869224e-4 3.39957553926021e-2
 8.05439431726746e-4 3.43468010744769e-2 127 4 275 4 1 1 4 128 4 276 0e0
 3.33069922272291e-1 6.66403255608059e-1 1e0 136 277 3 6 2 4 6 FFF2 274 275 276
 135 278 1 134 279 0 0 0 0 0 0 +277 278 137 280 217 0 1 282 301 283 -272 279 0 ?
141 281 280 281 281 272 133 282 216 0 286 238 280 0 +280 1.50000000000297e-4
 8.88114462697099e-4 3.55379306586161e-2 9.75000000000155e-4
 8.45758755886941e-4 3.24780158670764e-2 1e0 0e0 141 283 282 283 283 280 15 284
 218 0 295 273 0 16 285 219 0 5e-9 286 287 270 0 0 0 1 17 286 284 295 288 166
 350 285 282 269 +16 287 220 0 ?477 289 285 53 0 0 1 17 288 284 286 290 164 477
 287 0 0 -16 289 221 0 ?456 291 287 46 0 0 1 17 290 284 288 292 130 456 289 0 0
 -16 291 222 0 ?438 293 289 39 0 0 1 17 292 284 290 294 108 438 291 0 0 -16 293
 223 0 ?418 346 291 32 0 0 1 17 294 284 292 295 114 418 293 0 0 -17 295 284 294
 286 116 269 268 0 271 +45 24 296 -1.09500480019189e-3 8.89776178244548e-4
 3.56579239533064e-2 -1.09500480019189e-3 8.89222230898478e-4
 3.56179261889934e-2 -1.09500480019189e-3 8.83960020245128e-4
 3.52379381573884e-2 -1.09500480019189e-3 8.73996101583717e-4
 3.45179595315561e-2 -1.09500480019189e-3 8.59877614573124e-4
 3.34979879332482e-2 -1.09500480019189e-3 8.49909199367808e-4
 3.27780088966564e-2 -1.09500480019189e-3 8.44651952773372e-4
 3.23980203233400e-2 -1.09500480019189e-3 8.44098621258907e-4
 3.23580225505027e-2 127 6 297 4 1 1 1 1 4 128 6 298 0e0 3.63626940677549e-2
 3.45454016488895e-1 6.54545553580889e-1 9.63637305932185e-1 1e0 136 299 3 8 3
 6 6 FFF2 296 297 298 135 300 1 134 301 224 0 0 280 313 303 +299 300 67 302 225
 0 304 272 352 312 +301 1e0 0e0 0e0 ?141 303 302 303 303 301 14 304 226 0 ?273
 353 345 101 302 +0 0 273 353 103 45 12 305 9.63637305932186e-1
 1.20004800192006e-4 8.61080103120127e-1 2.11249777903999e-4
 6.55492376781873e-1 3.94161267569878e-4 3.46400842952829e-1
 6.69161309916863e-4 1.39866521010716e-1 8.52916485640076e-4
 3.63626940677862e-2 9.45004800191985e-4 127 4 306 4 1 1 4 128 4 307 0e0
 3.31801896872784e-1 6.65135225556806e-1 1e0 136 308 3 6 2 4 6 FFF2 305 306 307
 135 309 1 134 310 0 0 0 0 0 0 +308 309 137 311 230 0 1 313 323 314 -302 310 0 ?
141 312 311 342 322 302 133 313 229 0 347 301 311 0 +311 -1.49999999999907e-4
 8.88114462697098e-4 3.55379306586160e-2 -9.74999999999886e-4
 8.45758755886939e-4 3.24780158670760e-2 1e0 0e0 141 314 313 314 314 311 45 4
 315 3.63626940677862e-2 9.45004800191985e-4 3.63626940677862e-2
 1.24500480019220e-3 127 2 316 2 2 128 2 317 0e0 1e0 136 318 1 2 2 2 6 FFF2 315
 316 317 135 319 1 134 320 0 0 0 0 0 0 +318 319 137 321 234 0 1 323 333 324 -
302 320 0 ?141 322 321 312 332 302 133 323 233 0 349 311 321 0 +321
 1.50000000000306e-4 8.88114462697098e-4 3.55379306586160e-2
 -1.49999999999907e-4 8.88114462697098e-4 3.55379306586160e-2 1e0 0e0 141 324
 323 324 324 321 45 12 325 3.63626940677862e-2 1.24500480019220e-3
 1.39474621507157e-1 1.33674394308204e-3 3.45617060080374e-1
 1.52014976850768e-3 6.54708596984396e-1 1.79514977320995e-3
 8.60688208129437e-1 1.97841061445164e-3 9.63637305932214e-1
 2.07000480019221e-3 127 4 326 4 1 1 4 128 4 327 0e0 3.33596744391871e-1
 6.66930077727583e-1 1e0 136 328 3 6 2 4 6 FFF2 325 326 327 135 329 1 134 330 0
 0 0 0 0 0 +328 329 137 331 238 0 1 333 343 334 -302 330 0 ?141 332 331 322 342
 302 133 333 237 0 350 321 331 0 +331 9.75000000000316e-4 8.45758755886938e-4
 3.24780158670759e-2 1.50000000000306e-4 8.88114462697098e-4
 3.55379306586160e-2 1e0 0e0 141 334 333 334 334 331 45 4 335
 9.63637305932214e-1 2.07000480019221e-3 9.63637305932186e-1
 1.20004800192006e-4 127 2 336 2 2 128 2 337 0e0 1e0 136 338 1 2 2 2 6 FFF2 335
 336 337 135 339 1 134 340 0 0 0 0 0 0 +338 339 137 341 242 0 1 343 362 344 -
302 340 0 ?141 342 341 332 312 302 133 343 241 0 351 331 341 0 +341
 -9.74999999999886e-4 8.45758755886939e-4 3.24780158670760e-2
 9.75000000000316e-4 8.45758755886938e-4 3.24780158670759e-2 1e0 0e0 141 344
 343 344 344 341 15 345 243 0 351 304 0 16 346 244 0 5e-9 395 348 293 0 0 0 1
 17 347 345 351 349 156 395 346 313 250 -16 348 245 0 5e-9 474 397 346 0 0 0 1
 17 349 345 347 350 158 474 348 323 0 -17 350 345 349 351 164 286 285 333 288 -
17 351 345 350 347 166 250 249 343 286 +52 352 246 0 353 302 405 361 +
-1.00623880055446e-3 0e0 0e0 1e0 0e0 0e0 3.23731586351692e-2
 9.65524303716241e-1 2.60312925021536e-1 0e0 -1e0 1.09356967925578e-14 14 353
 247 0 ?304 406 394 101 352 +0 0 304 406 103 45 12 354 4.68740357378814e0
 8.56238800554576e-4 4.68729647863186e0 7.64150486002663e-4 4.68707668355382e0
 5.80395310279446e-4 4.68672764237865e0 3.05395267932512e-4 4.68648091714667e0
 1.22483778266682e-4 4.68635390304199e0 3.12388005547365e-5 127 4 355 4 1 1 4
 128 4 356 0e0 3.34864774443252e-1 6.68198103127331e-1 1e0 136 357 3 6 2 4 6 FFF
2 354 355 356 135 358 1 134 359 0 0 0 0 0 0 +357 358 137 360 251 0 1 362 372
 363 -352 359 0 ?141 361 360 391 371 352 133 362 250 0 395 341 360 0 +360
 -9.74999999999740e-4 8.45758755886944e-4 3.24780158670765e-2
 -1.49999999999902e-4 8.88114462697083e-4 3.55379306586160e-2 1e0 0e0 141 363
 362 363 363 360 45 12 364 4.64619621248278e0 3.12388005546064e-5
 4.64634081161467e0 3.88270881767212e-5 4.64662153010320e0 5.40314403129033e-5
 4.64701680035737e0 7.68948405692161e-5 4.64726314701449e0 9.21737232508083e-5
 4.64738210901510e0 9.98260762115014e-5 127 4 365 4 1 1 4 128 4 366 0e0
 3.32618336168088e-1 6.65951721458051e-1 1e0 136 367 3 6 2 4 6 FFF2 364 365 366
 135 368 1 134 369 0 0 0 0 0 0 +367 368 137 370 255 0 1 372 382 373 -352 369 0 ?
141 371 370 361 381 352 133 372 254 0 398 360 370 0 +370 -9.06412724342975e-4
 2.12704861055847e-3 3.26742618820139e-2 -9.74999999999870e-4
 2.14896848918796e-3 3.24178771200040e-2 1e0 0e0 141 373 372 373 373 370 45 12
 374 4.64738210901510e0 9.98260762115014e-5 4.64865672565037e0
 1.82464553068776e-4 4.65218520168071e0 3.44673813919183e-4 4.66014184184857e0
 5.80150551378906e-4 4.66698361918348e0 7.30149257640695e-4 4.67073808493086e0
 8.03010466026759e-4 127 4 375 4 1 1 4 128 4 376 0e0 3.39467998668418e-1
 6.71420210037924e-1 1e0 136 377 3 6 2 4 6 FFF2 374 375 376 135 378 1 134 379 0
 0 0 0 0 0 +377 378 137 380 259 0 1 382 392 383 -352 379 0 ?141 381 380 371 391
 352 133 382 258 0 400 370 380 0 +380 -2.03228334527720e-4 1.47200000000048e-3
 3.53209379630986e-2 -9.06412724342975e-4 2.12704861055847e-3
 3.26742618820139e-2 1e0 0e0 141 383 382 383 383 380 45 12 384
 4.67073808493086e0 8.03010466026759e-4 4.67126952568064e0 8.13742578576093e-4
 4.67278539233803e0 8.32743814309551e-4 4.67598404137687e0 8.51716603642518e-4
 4.67843202455636e0 8.56344365390447e-4 4.67966775890931e0 8.56238800554588e-4
 127 4 385 4 1 1 4 128 4 386 0e0 3.40259162867145e-1 6.71480232027085e-1 1e0
 136 387 3 6 2 4 6 FFF2 384 385 386 135 388 1 134 389 0 0 0 0 0 0 +387 388 137
 390 263 0 1 392 415 393 -352 389 0 ?141 391 390 381 361 352 133 392 262 0 402
 380 390 0 +390 -1.49999999999890e-4 1.16300000000033e-3 3.55299970981628e-2
 -2.03228334527720e-4 1.47200000000048e-3 3.53209379630986e-2 1e0 0e0 141 393
 392 393 393 390 15 394 264 0 404 353 0 17 395 394 404 396 158 347 346 362 349 +
17 396 394 395 398 156 217 216 0 347 -16 397 265 0 5e-9 398 399 348 0 0 0 1 17
 398 394 396 400 126 421 397 372 217 +16 399 266 0 1.11677803746670e-6 400 401
 397 0 0 0 1 17 400 394 398 402 122 441 399 382 0 +16 401 267 0
 1.15592729027778e-6 402 403 399 0 0 0 1 17 402 394 400 404 106 459 401 392 0 +
16 403 268 0 ?404 419 401 26 0 0 1 17 404 394 402 395 120 475 403 0 0 +51 405
 269 0 406 352 425 414 +9.75000000000392e-4 1.13534944288830e-2
 3.33339569339285e-2 -1e0 0e0 0e0 9.25e-3 0e0 1e0 -1.12522603847144e-14 14 406
 270 0 ?353 426 417 101 405 -0 0 353 426 103 45 12 407 3.07021367287594e0
 1.88141272434325e-3 3.06711644969745e0 1.88906507732552e-3 3.06092835884724e0
 1.90434396002450e-3 3.05165529132249e0 1.92720736024252e-3 3.04547925508044e0
 1.94241171236990e-3 3.04239438800985e0 1.95000000000034e-3 127 4 408 4 1 1 4
 128 4 409 0e0 3.34048277782149e-1 6.67381663444215e-1 1e0 136 410 3 6 2 4 6 FFF
2 407 408 409 135 411 1 134 412 0 0 0 0 0 0 +410 411 137 413 274 0 1 415 435
 416 -405 412 0 ?141 414 413 414 414 405 133 415 273 0 421 390 413 0 +413
 -9.74999999999946e-4 2.14896848918800e-3 3.24178771200031e-2
 -9.06412724342857e-4 2.12704861055841e-3 3.26742618820140e-2 1e0 0e0 141 416
 415 416 416 413 15 417 275 0 424 406 0 17 418 417 424 420 116 294 293 0 295 +
16 419 276 0 ?420 423 403 33 0 0 1 17 420 417 418 421 114 442 419 0 294 +17 421
 417 420 422 122 398 397 415 400 -17 422 417 421 424 126 215 214 0 398 -16 423
 277 0 ?485 439 419 55 0 0 1 17 424 417 422 418 128 485 423 0 215 -51 425 278 0
 426 405 443 434 +9.75000000000170e-4 -5.85258020528978e-3 3.21037148100877e-2
 -1e0 0e0 0e0 8e-3 0e0 1e0 -1.12757025938492e-14 14 426 279 0 ?406 444 437 101
 425 +0 0 406 444 103 45 12 427 5.86931825355714e0 1.17822833452764e-3
 5.90696136867150e0 1.25108600279445e-3 5.98252249102333e0 1.40108367818267e-3
 6.09665310832936e0 1.63656959638996e-3 6.17315008317725e0 1.79877792281167e-3
 6.21180632646570e0 1.88141272434303e-3 127 4 428 4 1 1 4 128 4 429 0e0
 3.28584318732191e-1 6.60527837857891e-1 1e0 136 430 3 6 2 4 6 FFF2 427 428 429
 135 431 1 134 432 0 0 0 0 0 0 +430 431 137 433 283 0 1 435 453 436 -425 432 0 ?
141 434 433 434 434 425 133 435 282 0 441 413 433 0 +433 -9.06412724342857e-4
 2.12704861055850e-3 3.26742618820140e-2 -2.03228334527472e-4
 1.47200000000057e-3 3.53209379630985e-2 1e0 0e0 141 436 435 436 436 433 15 437
 284 0 442 426 0 17 438 437 442 440 114 292 291 0 420 +16 439 285 0 ?440 457
 423 40 0 0 1 17 440 437 438 441 108 460 439 0 292 +17 441 437 440 442 106 400
 399 435 402 -17 442 437 441 438 122 420 419 0 421 -51 443 286 0 444 425 461
 452 +9.75000000000281e-4 1.15154961601893e-3 3.51801844501542e-2 -1e0 0e0 0e0
 3.50000000000001e-4 0e0 1e0 -1.98254111540206e-14 14 444 287 0 ?426 462 455
 101 443 +0 0 426 462 103 45 12 445 4.74511020185998e0 1.12500000000026e-3
 4.86986818883607e0 1.12489495660265e-3 5.11976735031741e0 1.12952216637384e-3
 5.49525057936352e0 1.14849309552953e-3 5.74421904572723e0 1.16749510107001e-3
 5.86931825355717e0 1.17822833452775e-3 127 4 446 4 1 1 4 128 4 447 0e0
 3.28539063014022e-1 6.59777948925572e-1 1e0 136 448 3 6 2 4 6 FFF2 445 446 447
 135 449 1 134 450 0 0 0 0 0 0 +448 449 137 451 291 0 1 453 471 454 -443 450 0 ?
141 452 451 452 452 443 133 453 290 0 459 433 451 0 +451 -2.03228334527471e-4
 1.47200000000039e-3 3.53209379630984e-2 -1.49999999999975e-4
 1.16300000000035e-3 3.55299970981627e-2 1e0 0e0 141 454 453 454 454 451 15 455
 292 0 460 444 0 17 456 455 460 458 108 290 289 0 440 +16 457 293 0 ?458 481
 439 47 0 0 1 17 458 455 456 459 130 476 457 0 290 +17 459 455 458 460 120 402
 401 453 404 -17 460 455 459 456 106 440 439 0 441 -51 461 294 0 462 443 478
 470 +9.75000000000170e-4 0e0 0e0 -1e0 0e0 0e0 3.55490261863171e-2 0e0 1e0
 -1.09356967925578e-14 14 462 295 0 ?444 479 473 101 461 +0 0 444 479 103 45 4
 463 4.73737438698124e0 8.24999999999961e-4 4.73737438698124e0
 1.12500000000005e-3 127 2 464 2 2 128 2 465 0e0 1e0 136 466 1 2 2 2 6 FFF2 463
 464 465 135 467 1 134 468 0 0 0 0 0 0 +466 467 137 469 299 0 1 471 584 472 -
461 468 0 ?141 470 469 470 470 461 133 471 298 0 474 451 469 0 +469
 -1.49999999999900e-4 8.88114462697086e-4 3.55379306586160e-2
 1.50000000000193e-4 8.88114462697086e-4 3.55379306586160e-2 1e0 0e0 141 472
 471 472 472 469 15 473 300 0 477 462 0 17 474 473 477 475 164 349 348 471 350 +
17 475 473 474 476 158 404 403 0 395 -17 476 473 475 477 120 458 457 0 459 -17
 477 473 476 474 130 288 287 0 458 +51 478 301 0 479 461 492 0 +
9.75000000000059e-4 6.11303828197990e-3 3.16643403993958e-2 -1e0 0e0 0e0
 3.75e-3 0e0 1e0 -1.11022302462516e-14 14 479 302 0 ?462 493 480 101 478 -0 0
 462 493 103 15 480 303 0 491 479 0 16 481 304 0 ?482 488 457 61 0 0 1 17 482
 480 491 483 112 506 481 0 0 +17 483 480 482 484 186 259 258 0 261 +17 484 480
 483 485 176 271 270 0 266 -17 485 480 484 486 116 424 423 0 418 +17 486 480
 485 487 128 213 212 0 424 -17 487 480 486 489 168 229 228 0 223 +16 488 305 0 ?
489 490 481 68 0 0 1 17 489 480 487 491 188 538 488 0 229 +16 490 306 0 ?534
 495 488 67 0 0 1 17 491 480 489 482 110 534 490 0 0 -50 492 307 0 493 478 509
 0 +8.75000000000070e-4 2.73182180898290e-2 1.13155764326727e-2 -1e0 0e0 0e0
 0e0 -3.82683432365078e-1 9.23879532511292e-1 14 493 308 0 ?479 510 494 101 492
 -0 0 479 510 103 15 494 309 0 508 493 0 16 495 310 0 ?512 497 490 57 0 0 1 17
 496 494 508 498 118 512 495 0 0 -16 497 311 0 ?605 499 495 81 0 0 1 17 498 494
 496 500 182 605 497 0 0 -16 499 312 0 ?569 501 497 58 0 0 1 17 500 494 498 502
 192 569 499 0 0 -16 501 313 0 ?563 503 499 59 0 0 1 17 502 494 500 504 200 563
 501 0 0 -16 503 314 0 ?553 507 501 60 0 0 1 17 504 494 502 505 202 553 503 0 0
 -17 505 494 504 506 196 261 260 0 262 -17 506 494 505 508 186 482 481 0 483 -
16 507 315 0 ?508 513 503 62 0 0 1 17 508 494 506 496 112 533 507 0 482 +51 509
 316 0 510 492 527 0 +9.75000000000059e-4 6.46970751743919e-3
 3.15933944773992e-2 -1e0 0e0 0e0 3.75e-3 0e0 -9.23879532511283e-1
 3.82683432365099e-1 14 510 317 0 ?493 528 511 101 509 -0 0 493 528 103 15 511
 318 0 526 510 0 17 512 511 526 514 182 496 495 0 498 +16 513 319 0 ?514 515
 507 63 0 0 1 17 514 511 512 516 118 532 513 0 496 +16 515 320 0 ?516 517 513
 74 0 0 1 17 516 511 514 518 124 548 515 0 0 +16 517 321 0 ?647 519 515 64 0 0
 1 17 518 511 516 520 184 647 517 0 0 -16 519 322 0 ?642 521 517 95 0 0 1 17
 520 511 518 522 174 642 519 0 0 -16 521 323 0 ?522 523 519 65 0 0 1 17 522 511
 520 524 144 628 521 0 0 +16 523 324 0 ?610 525 521 83 0 0 1 17 524 511 522 526
 150 610 523 0 0 -16 525 325 0 ?601 530 523 66 0 0 1 17 526 511 524 512 180 601
 525 0 0 -51 527 326 0 528 509 535 0 +9.75000000000170e-4 0e0 0e0 -1e0 0e0 0e0
 2.84990261863171e-2 0e0 -9.23879532511283e-1 3.82683432365100e-1 14 528 327 0 ?
510 536 529 101 527 +0 0 510 536 103 15 529 328 0 534 528 0 16 530 329 0 ?549
 540 525 75 0 0 1 17 531 529 534 532 110 549 530 0 491 -17 532 529 531 533 124
 514 513 0 516 -17 533 529 532 534 118 508 507 0 514 -17 534 529 533 531 112
 491 490 0 508 +50 535 330 0 536 527 550 0 +-8.74999999999959e-4 0e0 0e0 1e0
 0e0 0e0 0e0 3.82683432365078e-1 -9.23879532511292e-1 14 536 331 0 ?528 551 537
 101 535 -0 0 528 551 103 15 537 332 0 549 536 0 17 538 537 549 539 110 489 488
 0 531 -17 539 537 538 541 188 227 226 0 489 +16 540 333 0 ?556 542 530 70 0 0
 1 17 541 537 539 543 198 556 540 0 247 -16 542 334 0 ?543 544 540 71 0 0 1 17
 543 537 541 545 204 561 542 0 0 +16 544 335 0 ?572 546 542 72 0 0 1 17 545 537
 543 547 206 572 544 0 0 -16 546 336 0 ?547 554 544 73 0 0 1 17 547 537 545 548
 194 648 546 0 0 +17 548 537 547 549 184 516 515 0 518 -17 549 537 548 538 124
 531 530 0 532 +50 550 337 0 551 535 558 0 +-2.5e-2 0e0 2.86261690434598e-2 0e0
 1e0 0e0 0e0 0e0 1e0 14 551 338 0 ?536 559 552 101 550 -0 0 536 559 103 15 552
 339 0 557 551 0 17 553 552 557 555 196 504 503 0 505 +16 554 340 0 ?555 564
 546 76 0 0 1 17 555 552 553 556 202 562 554 0 504 +17 556 552 555 557 204 541
 540 0 543 +17 557 552 556 553 198 246 245 0 541 -50 558 341 0 559 550 566 0 +
-2.5e-2 1.09547606250146e-2 2.64471316734607e-2 0e0 1.95090322016127e-1
 9.80785280403231e-1 0e0 -9.80785280403231e-1 1.95090322016127e-1 14 559 342 0 ?
551 567 560 101 558 -0 0 551 567 103 15 560 343 0 565 559 0 17 561 560 565 562
 206 543 542 0 545 -17 562 560 561 563 204 555 554 0 556 -17 563 560 562 565
 202 502 501 0 555 +16 564 344 0 ?565 570 554 77 0 0 1 17 565 560 563 561 200
 573 564 0 502 +50 566 345 0 567 558 574 0 +-2.5e-2 1.13374440573800e-2
 2.73710112059719e-2 0e0 -9.23879532511171e-1 3.82683432365370e-1 0e0
 -3.82683432365370e-1 -9.23879532511171e-1 14 567 346 0 ?559 575 568 101 566 -0
 0 559 575 103 15 568 347 0 573 567 0 17 569 568 573 571 200 500 499 0 565 +16
 570 348 0 ?571 587 564 78 0 0 1 17 571 568 569 572 192 597 570 0 500 +17 572
 568 571 573 194 545 544 0 547 +17 573 568 572 569 206 565 564 0 561 -50 574
 349 0 575 566 598 583 +-2.5e-2 1.32101777924266e-2 2.96821162525126e-2 0e0
 -7.76942411992951e-1 6.29571670619458e-1 0e0 -6.29571670619458e-1
 -7.76942411992951e-1 14 575 350 0 ?567 599 586 101 574 -0 0 567 599 103 45 4
 576 0e0 2.59750000000002e-2 0e0 2.40250000000003e-2 127 2 577 2 2 128 2 578
 0e0 1e0 136 579 1 2 2 2 6 FFF2 576 577 578 135 580 1 134 581 0 0 0 0 0 0 +579
 580 137 582 354 0 1 584 660 585 -574 581 0 ?141 583 582 583 583 574 133 584
 353 0 592 469 582 0 +582 -9.74999999999743e-4 1.32101777924266e-2
 2.96821162525126e-2 9.75000000000153e-4 1.32101777924266e-2
 2.96821162525126e-2 1e0 0e0 141 585 584 585 585 582 15 586 355 0 597 575 0 16
 587 356 0 ?604 589 570 79 0 0 1 17 588 586 597 590 192 604 587 0 571 -16 589
 357 0 ?590 591 587 88 0 0 1 17 590 586 588 592 190 619 589 0 0 +16 591 358 0
 5e-9 592 593 589 0 0 0 1 17 592 586 590 594 152 735 591 584 0 +16 593 359 0 ?
634 595 591 90 0 0 1 17 594 586 592 596 162 634 593 0 0 -16 595 360 0 ?649 602
 593 80 0 0 1 17 596 586 594 597 172 649 595 0 0 -17 597 586 596 588 194 571
 570 0 572 -51 598 361 0 599 574 606 0 +0e0 0e0 0e0 1e0 0e0 0e0
 2.96261690434598e-2 0e0 0e0 1e0 14 599 362 0 ?575 607 600 101 598 -0 0 575 607
 103 15 600 363 0 605 599 0 17 601 600 605 603 182 526 525 0 512 +16 602 364 0 ?
603 611 595 82 0 0 1 17 603 600 601 604 180 609 602 0 526 +17 604 600 603 605
 190 588 587 0 590 +17 605 600 604 601 192 498 497 0 588 +50 606 365 0 607 598
 620 0 +9.75000000000170e-4 0e0 0e0 1e0 0e0 0e0 0e0 -9.23879532511283e-1
 3.82683432365100e-1 14 607 366 0 ?599 621 608 101 606 +0 0 599 621 103 15 608
 367 0 619 607 0 17 609 608 619 610 190 603 602 0 604 -17 610 608 609 612 180
 524 523 0 603 +16 611 368 0 ?612 613 602 84 0 0 1 17 612 608 610 614 150 627
 611 0 524 +16 613 369 0 ?802 615 611 85 0 0 1 17 614 608 612 616 148 802 613 0
 0 -16 615 370 0 ?616 617 613 86 0 0 1 17 616 608 614 618 142 789 615 0 0 +16
 617 371 0 ?618 623 615 87 0 0 1 17 618 608 616 619 134 760 617 0 0 +17 619 608
 618 609 152 590 589 0 592 -51 620 372 0 621 606 629 0 +2.38342800000007e-2
 9.36228220854712e-3 2.78257013295484e-2 -1e0 0e0 0e0 1e-3 0e0
 -6.08963092864825e-1 7.93198557442275e-1 14 621 373 0 ?607 630 622 101 620 +0
 0 607 630 103 15 622 374 0 628 621 0 16 623 375 0 ?641 625 617 94 0 0 1 17 624
 622 628 626 144 641 623 0 522 -16 625 376 0 ?626 632 623 99 0 0 1 17 626 622
 624 627 146 799 625 0 0 +17 627 622 626 628 148 612 611 0 614 -17 628 622 627
 624 150 522 521 0 612 -50 629 377 0 630 620 643 0 +-9.74999999999726e-4 0e0
 0e0 1e0 0e0 0e0 0e0 -9.23879532511283e-1 3.82683432365100e-1 14 630 378 0 ?621
 644 631 101 629 -0 0 621 644 103 15 631 379 0 642 630 0 16 632 380 0 ?633 635
 625 89 0 0 1 17 633 631 642 634 174 646 632 0 520 +17 634 631 633 636 172 594
 593 0 596 +16 635 381 0 ?636 637 632 91 0 0 1 17 636 631 634 638 162 679 635 0
 594 +16 637 382 0 ?792 639 635 92 0 0 1 17 638 631 636 640 138 792 637 0 0 -16
 639 383 0 ?640 673 637 93 0 0 1 17 640 631 638 641 140 800 639 0 0 +17 641 631
 640 642 146 624 623 0 626 +17 642 631 641 633 144 520 519 0 624 +51 643 384 0
 644 629 650 0 +0e0 0e0 0e0 1e0 0e0 0e0 2.96261690434598e-2 0e0 0e0 1e0 14 644
 385 0 ?630 651 645 101 643 -0 0 630 651 103 15 645 386 0 649 644 0 17 646 645
 649 647 172 633 632 0 634 -17 647 645 646 648 174 518 517 0 633 +17 648 645
 647 649 184 547 546 0 548 -17 649 645 648 646 194 596 595 0 597 +52 650 387 0
 651 643 686 659 +-1.00623880055433e-3 0e0 0e0 1e0 0e0 0e0 3.23731586351697e-2
 9.65524303716241e-1 2.60312925021536e-1 0e0 -9.23879532511283e-1
 3.82683432365100e-1 14 651 388 0 ?644 688 672 101 650 +0 0 644 688 103 45 12
 652 4.68635390304199e0 3.12388005546064e-5 4.68648091714942e0
 1.22483780244833e-4 4.68672764238389e0 3.05395271876834e-4 4.68707668355860e0
 5.80395314223786e-4 4.68729647863414e0 7.64150487968705e-4 4.68740357378814e0
 8.56238800554434e-4 127 4 653 4 1 1 4 128 4 654 0e0 3.31801904066465e-1
 6.65135232706470e-1 1e0 136 655 3 6 2 4 6 FFF2 652 653 654 135 656 1 134 657 0
 0 0 0 0 0 +655 656 137 658 392 0 1 660 670 661 -650 657 0 ?141 659 658 669 669
 650 133 660 391 0 674 582 658 0 +658 -1.49999999999916e-4 1.44202880582050e-2
 3.24929000723827e-2 -9.74999999999743e-4 1.32101777924269e-2
 2.96821162525132e-2 1e0 0e0 141 661 660 661 661 658 45 14 662
 4.70935666762715e0 8.56238800554434e-4 4.71621833488250e0 8.08889838739478e-4
 4.72902587923512e0 6.99775032511011e-4 4.74449110776940e0 5.01504902079394e-4
 4.75530842271804e0 2.75271603789150e-4 4.75877072651812e0 1.13340164783876e-4
 4.75942271211913e0 3.12388005546064e-5 127 5 663 4 1 1 1 4 128 5 664 0e0
 2.45156318116998e-1 4.93510387182350e-1 7.45484561126952e-1 1e0 136 665 3 7 2
 5 6 FFF2 662 663 664 135 666 1 134 667 0 0 0 0 0 0 +665 666 137 668 396 0 1
 670 685 671 -650 667 0 ?141 669 668 659 659 650 133 670 395 0 678 658 668 0 +
668 -9.74999999999743e-4 1.10080210953244e-2 3.05673076030607e-2
 -1.49999999999916e-4 1.37035509632366e-2 3.28016151095252e-2 1e0 0e0 141 671
 670 671 671 668 15 672 397 0 679 651 0 16 673 398 0 5e-9 674 675 639 0 0 0 1
 17 674 672 679 676 162 734 673 660 636 +16 675 399 0 ?676 677 673 96 0 0 1 17
 676 672 674 678 160 819 675 0 0 +16 677 400 0 3.26015328323709e-6 793 730 675
 0 0 0 1 17 678 672 676 679 136 793 677 670 0 -17 679 672 678 674 138 636 635 0
 638 -45 24 680 -1.09500480019193e-3 1.31627245737754e-2 2.95718921893101e-2
 -1.09500480019193e-3 1.31785422704327e-2 2.96086335621773e-2
 -1.09500480019193e-3 1.33288146644492e-2 2.99576853664678e-2
 -1.09500480019193e-3 1.36135483281770e-2 3.06190445148529e-2
 -1.09500480019193e-3 1.40169183415117e-2 3.15559724872033e-2
 -1.09500480019193e-3 1.43016476937953e-2 3.22173329768755e-2
 -1.09500480019193e-3 1.44519244667116e-2 3.25663823810531e-2
 -1.09500480019193e-3 1.44677427290610e-2 3.26031235103764e-2 127 6 681 4 1 1 1
 1 4 128 6 682 0e0 3.63626940677864e-2 3.45454446406003e-1 6.54545983497992e-1
 9.63637305932211e-1 1e0 136 683 3 8 3 6 6 FFF2 680 681 682 135 684 1 134 685
 401 0 0 668 697 687 +683 684 67 686 402 0 688 650 736 696 +685 1e0 0e0 0e0 ?
141 687 686 687 687 685 14 688 403 0 ?651 737 729 101 686 +0 0 651 737 103 45
 12 689 3.63626940677872e-2 2.07000480019209e-3 1.38919899103378e-1
 1.97875982050182e-3 3.44507627651551e-1 1.79584832886976e-3
 6.53599161480607e-1 1.52084828652275e-3 8.60133481199195e-1
 1.33709311277781e-3 9.63637305932214e-1 1.24500480019207e-3 127 4 690 4 1 1 4
 128 4 691 0e0 3.31801904066543e-1 6.65135232706512e-1 1e0 136 692 3 6 2 4 6 FFF
2 689 690 691 135 693 1 134 694 0 0 0 0 0 0 +692 693 137 695 407 0 1 697 707
 698 -686 694 0 ?141 696 695 726 706 686 133 697 406 0 731 685 695 0 +695
 1.50000000000143e-4 1.44202880582050e-2 3.24929000723827e-2
 9.75000000000156e-4 1.32101777924266e-2 2.96821162525126e-2 1e0 0e0 141 698
 697 698 698 695 45 4 699 9.63637305932214e-1 1.24500480019207e-3
 9.63637305932214e-1 9.45004800192002e-4 127 2 700 2 2 128 2 701 0e0 1e0 136
 702 1 2 2 2 6 FFF2 699 700 701 135 703 1 134 704 0 0 0 0 0 0 +702 703 137 705
 411 0 1 707 717 708 -686 704 0 ?141 706 705 696 716 686 133 707 410 0 733 695
 705 0 +705 -1.49999999999928e-4 1.44202880582050e-2 3.24929000723827e-2
 1.50000000000143e-4 1.44202880582050e-2 3.24929000723827e-2 1e0 0e0 141 708
 707 708 708 705 45 12 709 9.63637305932214e-1 9.45004800192002e-4
 8.60133481199204e-1 8.52916487606283e-4 6.53599161480636e-1
 6.69161313861371e-4 3.44507627651581e-1 3.94161271514352e-4
 1.38919899103398e-1 2.11249779882289e-4 3.63626940677860e-2
 1.20004800192006e-4 127 4 710 4 1 1 4 128 4 711 0e0 3.34864767293457e-1
 6.68198095933389e-1 1e0 136 712 3 6 2 4 6 FFF2 709 710 711 135 713 1 134 714 0
 0 0 0 0 0 +712 713 137 715 415 0 1 717 727 718 -686 714 0 ?141 716 715 706 726
 686 133 717 414 0 734 705 715 0 +715 -9.74999999999924e-4 1.32101777924266e-2
 2.96821162525126e-2 -1.49999999999928e-4 1.44202880582050e-2
 3.24929000723827e-2 1e0 0e0 141 718 717 718 718 715 45 4 719
 3.63626940677860e-2 1.20004800192006e-4 3.63626940677872e-2
 2.07000480019209e-3 127 2 720 2 2 128 2 721 0e0 1e0 136 722 1 2 2 2 6 FFF2 719
 720 721 135 723 1 134 724 0 0 0 0 0 0 +722 723 137 725 419 0 1 727 746 728 -
686 724 0 ?141 726 725 716 696 686 133 727 418 0 735 715 725 0 +725
 9.75000000000156e-4 1.32101777924266e-2 2.96821162525126e-2
 -9.74999999999924e-4 1.32101777924266e-2 2.96821162525126e-2 1e0 0e0 141 728
 727 728 728 725 15 729 420 0 735 688 0 16 730 421 0 5e-9 759 732 677 0 0 0 1
 17 731 729 735 733 152 759 730 697 619 -16 732 422 0 5e-9 816 761 730 0 0 0 1
 17 733 729 731 734 154 816 732 707 0 -17 734 729 733 735 160 674 673 717 676 -
17 735 729 734 731 162 592 591 727 674 -52 736 423 0 737 686 765 745 +
1.00623880055478e-3 0e0 0e0 -1e0 0e0 0e0 3.23731586351691e-2
 9.65524303716241e-1 2.60312925021536e-1 0e0 9.23879532511283e-1
 -3.82683432365100e-1 14 737 424 0 ?688 766 758 101 736 +0 0 688 766 103 45 12
 738 4.73737438698124e0 8.56238800554602e-4 4.73748148213524e0
 7.64150487968869e-4 4.73770127721078e0 5.80395314223933e-4 4.73805031838550e0
 3.05395271876925e-4 4.73829704361996e0 1.22483780244873e-4 4.73842405772739e0
 3.12388005546064e-5 127 4 739 4 1 1 4 128 4 740 0e0 3.34864767293481e-1
 6.68198095933457e-1 1e0 136 741 3 6 2 4 6 FFF2 738 739 740 135 742 1 134 743 0
 0 0 0 0 0 +741 742 137 744 428 0 1 746 756 747 -736 743 0 ?141 745 744 755 755
 736 133 746 427 0 759 725 744 0 +744 9.75000000000153e-4 1.32101777924266e-2
 2.96821162525126e-2 1.50000000000157e-4 1.44202880582049e-2
 3.24929000723827e-2 1e0 0e0 141 747 746 747 747 744 45 14 748
 4.66535524865025e0 3.12388005546168e-5 4.66600723425125e0 1.13340164783902e-4
 4.66946953805134e0 2.75271603789208e-4 4.68028685299998e0 5.01504902079494e-4
 4.69575208153426e0 6.99775032511157e-4 4.70855962588688e0 8.08889838739648e-4
 4.71542129314223e0 8.56238800554611e-4 127 5 749 4 1 1 1 4 128 5 750 0e0
 2.54515438873039e-1 5.06489612817647e-1 7.54843681883002e-1 1e0 136 751 3 7 2
 5 6 FFF2 748 749 750 135 752 1 134 753 0 0 0 0 0 0 +751 752 137 754 432 0 1
 756 775 757 -736 753 0 ?141 755 754 745 745 736 133 756 431 0 762 744 754 0 +
754 1.50000000000148e-4 1.37035509632366e-2 3.28016151095252e-2
 9.75000000000142e-4 1.10080210953242e-2 3.05673076030601e-2 1e0 0e0 141 757
 756 757 757 754 15 758 433 0 764 737 0 17 759 758 764 760 154 731 730 746 733 +
17 760 758 759 762 152 618 617 0 731 -16 761 434 0 3.26015328326376e-6 762 763
 732 0 0 0 1 17 762 758 760 764 134 788 761 756 618 +16 763 435 0 ?764 790 761
 97 0 0 1 17 764 758 762 759 132 817 763 0 0 +51 765 436 0 766 736 796 774 +
-1.695e-3 1.45943805634068e-2 2.89837595006067e-2 1e0 0e0 0e0
 3.92040799242755e-3 0e0 7.07106781186548e-1 -7.07106781186548e-1 14 766 437 0 ?
737 797 787 101 765 +0 0 737 797 103 45 14 767 2.58542558504847e0
 1.84500000000013e-3 2.66211971523683e0 1.89234896181510e-3 2.81589389117515e0
 2.00146376804360e-3 3.04648750648962e0 2.19973389847526e-3 3.27841890269654e0
 2.42596719676555e-3 3.43338245038600e0 2.58789863577086e-3 3.51118817376408e0
 2.67000000000015e-3 127 5 768 4 1 1 1 4 128 5 769 0e0 2.45156318117007e-1
 4.93510387182357e-1 7.45484561126959e-1 1e0 136 770 3 7 2 5 6 FFF2 767 768 769
 135 771 1 134 772 0 0 0 0 0 0 +770 771 137 773 441 0 1 775 785 776 -765 772 0 ?
141 774 773 784 784 765 133 775 440 0 788 754 773 0 +773 9.75000000000154e-4
 1.10080210953242e-2 3.05673076030601e-2 1.50000000000129e-4
 1.37035509632367e-2 3.28016151095252e-2 1e0 0e0 141 776 775 776 776 773 45 14
 777 3.51118817376392e0 7.20000000000255e-4 3.43338245038584e0
 8.02101364229526e-4 3.27841890269642e0 9.64032803234801e-4 3.04648750648954e0
 1.19026610152504e-3 2.81589389117511e0 1.38853623195666e-3 2.66211971523681e0
 1.49765103818514e-3 2.58542558504847e0 1.54500000000010e-3 127 5 778 4 1 1 1 4
 128 5 779 0e0 2.54515438873042e-1 5.06489612817643e-1 7.54843681882992e-1 1e0
 136 780 3 7 2 5 6 FFF2 777 778 779 135 781 1 134 782 0 0 0 0 0 0 +780 781 137
 783 445 0 1 785 813 786 -765 782 0 ?141 784 783 774 774 765 133 785 444 0 793
 773 783 0 +783 -1.49999999999896e-4 1.37035509632367e-2 3.28016151095252e-2
 -9.74999999999743e-4 1.10080210953244e-2 3.05673076030607e-2 1e0 0e0 141 786
 785 786 786 783 15 787 446 0 795 766 0 17 788 787 795 789 132 762 761 775 764 -
17 789 787 788 791 134 616 615 0 762 -16 790 447 0 ?791 794 763 98 0 0 1 17 791
 787 789 792 142 801 790 0 616 +17 792 787 791 793 140 638 637 0 640 +17 793
 787 792 795 138 678 677 785 679 +16 794 448 0 ?795 0 790 100 0 0 1 17 795 787
 793 788 136 818 794 0 678 +51 796 449 0 797 765 803 0 +-1.695e-3
 8.12968921523414e-3 3.17463216636175e-2 1e0 0e0 0e0 3.10981134495e-3 0e0
 7.07106781186548e-1 -7.07106781186548e-1 14 797 450 0 ?766 804 798 101 796 -0
 0 766 804 103 15 798 451 0 802 797 0 17 799 798 802 800 148 626 625 0 627 -17
 800 798 799 801 146 640 639 0 641 -17 801 798 800 802 140 791 790 0 792 -17
 802 798 801 799 142 614 613 0 791 +51 803 452 0 804 796 0 812 +
9.75000000000170e-4 0e0 0e0 -1e0 0e0 0e0 3.55490261863171e-2 0e0
 9.23879532511283e-1 -3.82683432365100e-1 14 804 453 0 ?797 0 815 101 803 +0 0
 797 0 103 45 4 805 4.73737438698124e0 1.12500000000006e-3 4.73737438698124e0
 8.25e-4 127 2 806 2 2 128 2 807 0e0 1e0 136 808 1 2 2 2 6 FFF2 805 806 807 135
 809 1 134 810 0 0 0 0 0 0 +808 809 137 811 457 0 1 813 0 814 -803 810 0 ?141
 812 811 812 812 803 133 813 456 0 816 783 811 0 +811 1.50000000000152e-4
 1.44202880582050e-2 3.24929000723827e-2 -1.49999999999909e-4
 1.44202880582050e-2 3.24929000723827e-2 1e0 0e0 141 814 813 814 814 811 15 815
 458 0 819 804 0 17 816 815 819 817 160 733 732 813 734 +17 817 815 816 818 154
 764 763 0 759 -17 818 815 817 819 132 795 794 0 788 -17 819 815 818 816 136
 676 675 0 795 -1 0 
